G04 start of page 8 for group -4079 idx -4079 *
G04 Title: (unknown), topsilk *
G04 Creator: pcb 20140316 *
G04 CreationDate: Sat 04 Mar 2017 04:47:27 AM GMT UTC *
G04 For: petersen *
G04 Format: Gerber/RS-274X *
G04 PCB-Dimensions (mil): 1000.00 1100.00 *
G04 PCB-Coordinate-Origin: lower left *
%MOIN*%
%FSLAX25Y25*%
%LNTOPSILK*%
%ADD62C,0.0200*%
%ADD61C,0.0100*%
%ADD60C,0.0080*%
G54D60*X56500Y106500D02*X58500D01*
X59000Y106000D01*
Y105000D01*
X58500Y104500D02*X59000Y105000D01*
X57000Y104500D02*X58500D01*
X57000Y106500D02*Y102500D01*
X57800Y104500D02*X59000Y102500D01*
X60700Y106500D02*Y102500D01*
X60200Y106500D02*X62200D01*
X62700Y106000D01*
Y105000D01*
X62200Y104500D02*X62700Y105000D01*
X60700Y104500D02*X62200D01*
X63900Y106500D02*X64900D01*
X64400D02*Y102500D01*
X63900D02*X64900D01*
X66100Y104500D02*X68100D01*
X69300Y106500D02*X71300D01*
X69300D02*Y104500D01*
X69800Y105000D01*
X70800D01*
X71300Y104500D01*
Y103000D01*
X70800Y102500D02*X71300Y103000D01*
X69800Y102500D02*X70800D01*
X69300Y103000D02*X69800Y102500D01*
X72500Y106500D02*X73500Y102500D01*
X74500Y106500D01*
X75700D02*X76700D01*
X76200D02*Y102500D01*
X75700D02*X76700D01*
X77900Y106000D02*X78400Y106500D01*
X79900D01*
X80400Y106000D01*
Y105000D01*
X77900Y102500D02*X80400Y105000D01*
X77900Y102500D02*X80400D01*
X82300D02*X83600D01*
X81600Y103200D02*X82300Y102500D01*
X81600Y105800D02*Y103200D01*
Y105800D02*X82300Y106500D01*
X83600D01*
X86600Y104500D02*X87600Y102500D01*
X88600Y104500D02*X87600Y102500D01*
X89800Y105700D02*X90600Y106500D01*
Y102500D01*
X89800D02*X91300D01*
X92500D02*X93000D01*
X94200Y103000D02*X94700Y102500D01*
X94200Y106000D02*Y103000D01*
Y106000D02*X94700Y106500D01*
X95700D01*
X96200Y106000D01*
Y103000D01*
X95700Y102500D02*X96200Y103000D01*
X94700Y102500D02*X95700D01*
X94200Y103500D02*X96200Y105500D01*
X51500Y79500D02*X52500D01*
X52000D02*Y75500D01*
X51500D02*X52500D01*
X53700Y77000D02*Y76000D01*
Y77000D02*X54200Y77500D01*
X55200D01*
X55700Y77000D01*
Y76000D01*
X55200Y75500D02*X55700Y76000D01*
X54200Y75500D02*X55200D01*
X53700Y76000D02*X54200Y75500D01*
X56900Y77500D02*Y76000D01*
X57400Y75500D01*
X57900D01*
X58400Y76000D01*
Y77500D02*Y76000D01*
X58900Y75500D01*
X59400D01*
X59900Y76000D01*
Y77500D02*Y76000D01*
X62600Y77500D02*X63100Y77000D01*
X61600Y77500D02*X62600D01*
X61100Y77000D02*X61600Y77500D01*
X61100Y77000D02*Y76000D01*
X61600Y75500D01*
X63100Y77500D02*Y76000D01*
X63600Y75500D01*
X61600D02*X62600D01*
X63100Y76000D01*
X68600Y79500D02*X69100Y79000D01*
X67100Y79500D02*X68600D01*
X66600Y79000D02*X67100Y79500D01*
X66600Y79000D02*Y78000D01*
X67100Y77500D01*
X68600D01*
X69100Y77000D01*
Y76000D01*
X68600Y75500D02*X69100Y76000D01*
X67100Y75500D02*X68600D01*
X66600Y76000D02*X67100Y75500D01*
X70800Y77500D02*X72300D01*
X70300Y77000D02*X70800Y77500D01*
X70300Y77000D02*Y76000D01*
X70800Y75500D01*
X72300D01*
X75000Y77500D02*X75500Y77000D01*
X74000Y77500D02*X75000D01*
X73500Y77000D02*X74000Y77500D01*
X73500Y77000D02*Y76000D01*
X74000Y75500D01*
X75500Y77500D02*Y76000D01*
X76000Y75500D01*
X74000D02*X75000D01*
X75500Y76000D01*
X77200Y79500D02*Y76000D01*
X77700Y75500D01*
X79200D02*X80700D01*
X78700Y76000D02*X79200Y75500D01*
X78700Y77000D02*Y76000D01*
Y77000D02*X79200Y77500D01*
X80200D01*
X80700Y77000D01*
X78700Y76500D02*X80700D01*
Y77000D02*Y76500D01*
X83900Y79500D02*Y75500D01*
X83400D02*X83900Y76000D01*
X82400Y75500D02*X83400D01*
X81900Y76000D02*X82400Y75500D01*
X81900Y77000D02*Y76000D01*
Y77000D02*X82400Y77500D01*
X83400D01*
X83900Y77000D01*
X86900Y77700D02*X88400D01*
X86900Y75500D02*X88900D01*
X86900Y79500D02*Y75500D01*
Y79500D02*X88900D01*
X90600Y77000D02*Y75500D01*
Y77000D02*X91100Y77500D01*
X91600D01*
X92100Y77000D01*
Y75500D01*
X90100Y77500D02*X90600Y77000D01*
X94800Y77500D02*X95300Y77000D01*
X93800Y77500D02*X94800D01*
X93300Y77000D02*X93800Y77500D01*
X93300Y77000D02*Y76000D01*
X93800Y75500D01*
X94800D01*
X95300Y76000D01*
X93300Y74500D02*X93800Y74000D01*
X94800D01*
X95300Y74500D01*
Y77500D02*Y74500D01*
X39500Y8500D02*Y7200D01*
X38800Y6500D02*X39500Y7200D01*
X36200Y6500D02*X38800D01*
X36200D02*X35500Y7200D01*
Y8500D02*Y7200D01*
X39500Y11700D02*Y10400D01*
X38800Y9700D02*X39500Y10400D01*
X36200Y9700D02*X38800D01*
X36200D02*X35500Y10400D01*
Y11700D02*Y10400D01*
X39500Y16700D02*Y14700D01*
Y16700D02*X39000Y17200D01*
X37800D02*X39000D01*
X37300Y16700D02*X37800Y17200D01*
X37300Y16700D02*Y15200D01*
X35500D02*X39500D01*
X35500Y16700D02*Y14700D01*
Y16700D02*X36000Y17200D01*
X36800D01*
X37300Y16700D02*X36800Y17200D01*
X35500Y18400D02*X37500Y19400D01*
X35500Y20400D01*
X37500Y19400D02*X39500D01*
X37500Y23600D02*Y21600D01*
X35500Y26800D02*X36000Y27300D01*
X35500Y26800D02*Y25300D01*
X36000Y24800D02*X35500Y25300D01*
X36000Y24800D02*X37000D01*
X37500Y25300D01*
Y26800D02*Y25300D01*
Y26800D02*X38000Y27300D01*
X39000D01*
X39500Y26800D02*X39000Y27300D01*
X39500Y26800D02*Y25300D01*
X39000Y24800D02*X39500Y25300D01*
X36500Y28500D02*X39500D01*
X36500D02*X35500Y29200D01*
Y30300D02*Y29200D01*
Y30300D02*X36500Y31000D01*
X39500D01*
X37500D02*Y28500D01*
X39000Y34000D02*X39500Y34500D01*
X36000Y34000D02*X35500Y34500D01*
X36000Y34000D02*X39000D01*
X39500Y37700D02*Y36400D01*
X38800Y35700D02*X39500Y36400D01*
X36200Y35700D02*X38800D01*
X36200D02*X35500Y36400D01*
Y37700D02*Y36400D01*
Y38900D02*X36000Y39400D01*
X39000D01*
X39500Y38900D02*X39000Y39400D01*
X36000Y40600D02*X35500Y41100D01*
Y42600D02*Y41100D01*
Y42600D02*X36000Y43100D01*
X37000D01*
X39500Y40600D02*X37000Y43100D01*
X39500D02*Y40600D01*
X39000Y44300D02*X39500Y44800D01*
X36000Y44300D02*X39000D01*
X36000D02*X35500Y44800D01*
Y45800D02*Y44800D01*
Y45800D02*X36000Y46300D01*
X39000D01*
X39500Y45800D02*X39000Y46300D01*
X39500Y45800D02*Y44800D01*
X38500Y44300D02*X36500Y46300D01*
X36300Y47500D02*X35500Y48300D01*
X39500D01*
Y49000D02*Y47500D01*
Y50700D02*X35500Y52700D01*
Y50200D01*
G54D61*X74241Y94799D02*Y82201D01*
X66759D02*X74241D01*
X66759Y94799D02*Y82201D01*
Y94799D02*X74241D01*
G54D62*X96500Y72300D02*Y1000D01*
X44500Y72300D02*Y1000D01*
Y72300D02*X96500D01*
X44500Y1000D02*X96500Y980D01*
G54D61*X8701Y92241D02*X21299D01*
Y84759D01*
X8701D02*X21299D01*
X8701Y92241D02*Y84759D01*
X47245Y88893D02*Y88107D01*
X52755Y88893D02*Y88107D01*
X40906Y100311D02*Y76689D01*
X29094D02*X40906D01*
X29094Y100311D02*Y76689D01*
Y100311D02*X40906D01*
X42406Y102311D02*G75*G03X42406Y102311I0J-500D01*G01*
X30000Y60700D02*Y30700D01*
X10000Y60700D02*X30000D01*
X10000D02*Y30700D01*
X30000D01*
X20000Y40700D02*X30000D01*
X20000D02*Y30700D01*
G54D60*X69357Y34000D02*X70157D01*
Y30500D01*
X69657Y30000D02*X70157Y30500D01*
X69157Y30000D02*X69657D01*
X68657Y30500D02*X69157Y30000D01*
X68657Y31000D02*Y30500D01*
X71357Y33200D02*X72157Y34000D01*
Y30000D01*
X71357D02*X72857D01*
X12000Y98000D02*X14000D01*
X14500Y97500D01*
Y96500D01*
X14000Y96000D02*X14500Y96500D01*
X12500Y96000D02*X14000D01*
X12500Y98000D02*Y94000D01*
X13300Y96000D02*X14500Y94000D01*
X15700Y97500D02*X16200Y98000D01*
X17700D01*
X18200Y97500D01*
Y96500D01*
X15700Y94000D02*X18200Y96500D01*
X15700Y94000D02*X18200D01*
X59500Y90500D02*X61500D01*
X62000Y90000D01*
Y89000D01*
X61500Y88500D02*X62000Y89000D01*
X60000Y88500D02*X61500D01*
X60000Y90500D02*Y86500D01*
X60800Y88500D02*X62000Y86500D01*
X63200Y89700D02*X64000Y90500D01*
Y86500D01*
X63200D02*X64700D01*
X48093Y96150D02*X49393D01*
X47393Y96850D02*X48093Y96150D01*
X47393Y99450D02*Y96850D01*
Y99450D02*X48093Y100150D01*
X49393D01*
X50593Y99350D02*X51393Y100150D01*
Y96150D01*
X50593D02*X52093D01*
X32500Y106500D02*Y103000D01*
X33000Y102500D01*
X34000D01*
X34500Y103000D01*
Y106500D02*Y103000D01*
X35700Y105700D02*X36500Y106500D01*
Y102500D01*
X35700D02*X37200D01*
X17900Y67000D02*X18700D01*
Y63500D01*
X18200Y63000D02*X18700Y63500D01*
X17700Y63000D02*X18200D01*
X17200Y63500D02*X17700Y63000D01*
X17200Y64000D02*Y63500D01*
X19900Y66500D02*X20400Y67000D01*
X21900D01*
X22400Y66500D01*
Y65500D01*
X19900Y63000D02*X22400Y65500D01*
X19900Y63000D02*X22400D01*
M02*
