G04 start of page 6 for group -4063 idx -4063 *
G04 Title: (unknown), componentmask *
G04 Creator: pcb 20140316 *
G04 CreationDate: Sat 04 Mar 2017 04:47:27 AM GMT UTC *
G04 For: petersen *
G04 Format: Gerber/RS-274X *
G04 PCB-Dimensions (mil): 1000.00 1100.00 *
G04 PCB-Coordinate-Origin: lower left *
%MOIN*%
%FSLAX25Y25*%
%LNTOPMASK*%
%ADD53R,0.0225X0.0225*%
%ADD52R,0.0572X0.0572*%
%ADD51R,0.0227X0.0227*%
%ADD50C,0.1500*%
%ADD49C,0.0660*%
%ADD48C,0.0001*%
%ADD47C,0.0760*%
G54D47*X58000Y67000D03*
G54D48*G36*
X21700Y39000D02*Y32400D01*
X28300D01*
Y39000D01*
X21700D01*
G37*
G54D49*X25000Y45700D03*
Y55700D03*
X15000Y35700D03*
Y45700D03*
Y55700D03*
G54D47*X63000Y57000D03*
G54D50*X50500Y32000D03*
G54D47*X68000Y67000D03*
X73000Y57000D03*
X83000D03*
G54D50*X90500Y32000D03*
G54D47*X78000Y67000D03*
G54D51*X68925Y86087D02*Y84217D01*
G54D52*X49607Y84957D02*X50393D01*
G54D51*X72075Y86087D02*Y84217D01*
X10717Y90075D02*X12587D01*
X10717Y86925D02*X12587D01*
X17413D02*X19283D01*
X17413Y90075D02*X19283D01*
G54D53*X31161Y80878D02*Y79031D01*
Y80500D02*Y79500D01*
X33720Y80878D02*Y79031D01*
Y80500D02*Y79500D01*
X36280Y80878D02*Y79031D01*
Y80500D02*Y79500D01*
X38839Y80878D02*Y79031D01*
Y80500D02*Y79500D01*
G54D51*X72075Y92783D02*Y90913D01*
X68925Y92783D02*Y90913D01*
G54D52*X49607Y92043D02*X50393D01*
G54D53*X38839Y97969D02*Y96122D01*
X36280Y97969D02*Y96122D01*
X38839Y97500D02*Y96500D01*
X36280Y97500D02*Y96500D01*
X33720Y97969D02*Y96122D01*
X31161Y97969D02*Y96122D01*
X33720Y97500D02*Y96500D01*
X31161Y97500D02*Y96500D01*
M02*
