M48
INCH
T46C0.108
T45C0.020
T44C0.128
T43C0.038
T42C0.030
%
T45
X001165Y008100
X003300Y009150
X003750Y009150
X003950Y007200
X004400Y009150
X006300Y007200
T42
X005800Y006700
X006300Y005700
X006800Y006700
X007300Y005700
X007800Y006700
X008300Y005700
T43
X001500Y005570
X001500Y004570
X001500Y003570
X002500Y005570
X002500Y004570
X002500Y003570
T46
X002000Y001650
T44
X005050Y003200
X009050Y003200
M30
