G04 start of page 3 for group 1 idx 1 *
G04 Title: (unknown), bottom *
G04 Creator: pcb 20140316 *
G04 CreationDate: Sat 04 Mar 2017 04:47:27 AM GMT UTC *
G04 For: petersen *
G04 Format: Gerber/RS-274X *
G04 PCB-Dimensions (mil): 1000.00 1100.00 *
G04 PCB-Coordinate-Origin: lower left *
%MOIN*%
%FSLAX25Y25*%
%LNBOTTOM*%
%ADD40C,0.1280*%
%ADD39C,0.0380*%
%ADD38C,0.0300*%
%ADD37C,0.1083*%
%ADD36C,0.0200*%
%ADD35C,0.2000*%
%ADD34C,0.0360*%
%ADD33R,0.0300X0.0300*%
%ADD32C,0.1440*%
%ADD31C,0.0600*%
%ADD30C,0.0700*%
%ADD29C,0.0150*%
%ADD28C,0.0100*%
%ADD27C,0.0001*%
G54D27*G36*
X82993Y28696D02*X83171Y28266D01*
X83846Y27165D01*
X84684Y26184D01*
X85665Y25346D01*
X86766Y24671D01*
X87958Y24177D01*
X89213Y23876D01*
X90500Y23775D01*
X91787Y23876D01*
X93042Y24177D01*
X94234Y24671D01*
X95335Y25346D01*
X96316Y26184D01*
X97154Y27165D01*
X97829Y28266D01*
X98000Y28679D01*
Y2000D01*
X82993D01*
Y28696D01*
G37*
G36*
Y108000D02*X98000D01*
Y35321D01*
X97829Y35734D01*
X97154Y36835D01*
X96316Y37816D01*
X95335Y38654D01*
X94234Y39329D01*
X93042Y39823D01*
X91787Y40124D01*
X90500Y40225D01*
X89213Y40124D01*
X87958Y39823D01*
X86766Y39329D01*
X85665Y38654D01*
X84684Y37816D01*
X83846Y36835D01*
X83171Y35734D01*
X82993Y35304D01*
Y52487D01*
X83000Y52486D01*
X83706Y52542D01*
X84395Y52707D01*
X85049Y52978D01*
X85653Y53348D01*
X86192Y53808D01*
X86652Y54347D01*
X87022Y54951D01*
X87293Y55605D01*
X87458Y56294D01*
X87500Y57000D01*
X87458Y57706D01*
X87293Y58395D01*
X87022Y59049D01*
X86652Y59653D01*
X86192Y60192D01*
X85653Y60652D01*
X85049Y61022D01*
X84395Y61293D01*
X83706Y61458D01*
X83000Y61514D01*
X82993Y61513D01*
Y108000D01*
G37*
G36*
X77993D02*X82993D01*
Y61513D01*
X82294Y61458D01*
X81605Y61293D01*
X80951Y61022D01*
X80347Y60652D01*
X79808Y60192D01*
X79348Y59653D01*
X78978Y59049D01*
X78707Y58395D01*
X78542Y57706D01*
X78486Y57000D01*
X78542Y56294D01*
X78707Y55605D01*
X78978Y54951D01*
X79348Y54347D01*
X79808Y53808D01*
X80347Y53348D01*
X80951Y52978D01*
X81605Y52707D01*
X82294Y52542D01*
X82993Y52487D01*
Y35304D01*
X82677Y34542D01*
X82376Y33287D01*
X82275Y32000D01*
X82376Y30713D01*
X82677Y29458D01*
X82993Y28696D01*
Y2000D01*
X77993D01*
Y62487D01*
X78000Y62486D01*
X78706Y62542D01*
X79395Y62707D01*
X80049Y62978D01*
X80653Y63348D01*
X81192Y63808D01*
X81652Y64347D01*
X82022Y64951D01*
X82293Y65605D01*
X82458Y66294D01*
X82500Y67000D01*
X82458Y67706D01*
X82293Y68395D01*
X82022Y69049D01*
X81652Y69653D01*
X81192Y70192D01*
X80653Y70652D01*
X80049Y71022D01*
X79395Y71293D01*
X78706Y71458D01*
X78000Y71514D01*
X77993Y71513D01*
Y108000D01*
G37*
G36*
X71720D02*X77993D01*
Y71513D01*
X77294Y71458D01*
X76605Y71293D01*
X75951Y71022D01*
X75347Y70652D01*
X74808Y70192D01*
X74348Y69653D01*
X73978Y69049D01*
X73707Y68395D01*
X73542Y67706D01*
X73486Y67000D01*
X73542Y66294D01*
X73707Y65605D01*
X73978Y64951D01*
X74348Y64347D01*
X74808Y63808D01*
X75347Y63348D01*
X75951Y62978D01*
X76605Y62707D01*
X77294Y62542D01*
X77993Y62487D01*
Y2000D01*
X71720D01*
Y52679D01*
X72294Y52542D01*
X73000Y52486D01*
X73706Y52542D01*
X74395Y52707D01*
X75049Y52978D01*
X75653Y53348D01*
X76192Y53808D01*
X76652Y54347D01*
X77022Y54951D01*
X77293Y55605D01*
X77458Y56294D01*
X77500Y57000D01*
X77458Y57706D01*
X77293Y58395D01*
X77022Y59049D01*
X76652Y59653D01*
X76192Y60192D01*
X75653Y60652D01*
X75049Y61022D01*
X74395Y61293D01*
X73706Y61458D01*
X73000Y61514D01*
X72294Y61458D01*
X71720Y61321D01*
Y64544D01*
X71771Y64583D01*
X71826Y64639D01*
X71870Y64704D01*
X72064Y65056D01*
X72221Y65426D01*
X72344Y65809D01*
X72433Y66200D01*
X72487Y66599D01*
X72504Y67000D01*
X72487Y67401D01*
X72433Y67800D01*
X72344Y68191D01*
X72221Y68574D01*
X72064Y68944D01*
X71874Y69298D01*
X71829Y69363D01*
X71774Y69420D01*
X71720Y69460D01*
Y108000D01*
G37*
G36*
X68002D02*X71720D01*
Y69460D01*
X71710Y69468D01*
X71640Y69504D01*
X71565Y69530D01*
X71487Y69544D01*
X71408Y69545D01*
X71329Y69533D01*
X71254Y69510D01*
X71183Y69475D01*
X71118Y69429D01*
X71061Y69374D01*
X71013Y69311D01*
X70976Y69241D01*
X70951Y69166D01*
X70937Y69088D01*
X70936Y69008D01*
X70948Y68930D01*
X70971Y68854D01*
X71007Y68784D01*
X71157Y68510D01*
X71279Y68223D01*
X71375Y67926D01*
X71444Y67621D01*
X71486Y67312D01*
X71500Y67000D01*
X71486Y66688D01*
X71444Y66379D01*
X71375Y66074D01*
X71279Y65777D01*
X71157Y65490D01*
X71010Y65214D01*
X70974Y65145D01*
X70951Y65069D01*
X70940Y64991D01*
X70941Y64913D01*
X70954Y64835D01*
X70980Y64761D01*
X71016Y64691D01*
X71064Y64628D01*
X71120Y64573D01*
X71184Y64528D01*
X71255Y64493D01*
X71330Y64470D01*
X71408Y64459D01*
X71487Y64460D01*
X71564Y64473D01*
X71639Y64499D01*
X71708Y64535D01*
X71720Y64544D01*
Y61321D01*
X71605Y61293D01*
X70951Y61022D01*
X70347Y60652D01*
X69808Y60192D01*
X69348Y59653D01*
X68978Y59049D01*
X68707Y58395D01*
X68542Y57706D01*
X68486Y57000D01*
X68542Y56294D01*
X68707Y55605D01*
X68978Y54951D01*
X69348Y54347D01*
X69808Y53808D01*
X70347Y53348D01*
X70951Y52978D01*
X71605Y52707D01*
X71720Y52679D01*
Y2000D01*
X68002D01*
Y62496D01*
X68401Y62513D01*
X68800Y62567D01*
X69191Y62656D01*
X69574Y62779D01*
X69944Y62936D01*
X70298Y63126D01*
X70363Y63171D01*
X70420Y63226D01*
X70468Y63290D01*
X70504Y63360D01*
X70530Y63435D01*
X70544Y63513D01*
X70545Y63592D01*
X70533Y63671D01*
X70510Y63746D01*
X70475Y63817D01*
X70429Y63882D01*
X70374Y63939D01*
X70311Y63987D01*
X70241Y64024D01*
X70166Y64049D01*
X70088Y64063D01*
X70008Y64064D01*
X69930Y64052D01*
X69854Y64029D01*
X69784Y63993D01*
X69510Y63843D01*
X69223Y63721D01*
X68926Y63625D01*
X68621Y63556D01*
X68312Y63514D01*
X68002Y63500D01*
Y70500D01*
X68312Y70486D01*
X68621Y70444D01*
X68926Y70375D01*
X69223Y70279D01*
X69510Y70157D01*
X69786Y70010D01*
X69855Y69974D01*
X69931Y69951D01*
X70009Y69940D01*
X70087Y69941D01*
X70165Y69954D01*
X70239Y69980D01*
X70309Y70016D01*
X70372Y70064D01*
X70427Y70120D01*
X70472Y70184D01*
X70507Y70255D01*
X70530Y70330D01*
X70541Y70408D01*
X70540Y70487D01*
X70527Y70564D01*
X70501Y70639D01*
X70465Y70708D01*
X70417Y70771D01*
X70361Y70826D01*
X70296Y70870D01*
X69944Y71064D01*
X69574Y71221D01*
X69191Y71344D01*
X68800Y71433D01*
X68401Y71487D01*
X68002Y71504D01*
Y108000D01*
G37*
G36*
Y2000D02*X62993D01*
Y52487D01*
X63000Y52486D01*
X63706Y52542D01*
X64395Y52707D01*
X65049Y52978D01*
X65653Y53348D01*
X66192Y53808D01*
X66652Y54347D01*
X67022Y54951D01*
X67293Y55605D01*
X67458Y56294D01*
X67500Y57000D01*
X67458Y57706D01*
X67293Y58395D01*
X67022Y59049D01*
X66652Y59653D01*
X66192Y60192D01*
X65653Y60652D01*
X65049Y61022D01*
X64395Y61293D01*
X63706Y61458D01*
X63000Y61514D01*
X62993Y61513D01*
Y68289D01*
X63000Y68289D01*
X63581Y68334D01*
X63712Y68366D01*
X63656Y68191D01*
X63567Y67800D01*
X63513Y67401D01*
X63496Y67000D01*
X63513Y66599D01*
X63567Y66200D01*
X63656Y65809D01*
X63779Y65426D01*
X63936Y65056D01*
X64126Y64702D01*
X64171Y64637D01*
X64226Y64580D01*
X64290Y64532D01*
X64360Y64496D01*
X64435Y64470D01*
X64513Y64456D01*
X64592Y64455D01*
X64671Y64467D01*
X64746Y64490D01*
X64817Y64525D01*
X64882Y64571D01*
X64939Y64626D01*
X64987Y64689D01*
X65024Y64759D01*
X65049Y64834D01*
X65063Y64912D01*
X65064Y64992D01*
X65052Y65070D01*
X65029Y65146D01*
X64993Y65216D01*
X64843Y65490D01*
X64721Y65777D01*
X64625Y66074D01*
X64556Y66379D01*
X64514Y66688D01*
X64500Y67000D01*
X64514Y67312D01*
X64556Y67621D01*
X64625Y67926D01*
X64721Y68223D01*
X64843Y68510D01*
X64990Y68786D01*
X65026Y68855D01*
X65044Y68913D01*
X65182Y68997D01*
X65624Y69376D01*
X66003Y69818D01*
X66084Y69952D01*
X66146Y69971D01*
X66216Y70007D01*
X66490Y70157D01*
X66777Y70279D01*
X67074Y70375D01*
X67379Y70444D01*
X67688Y70486D01*
X68000Y70500D01*
X68002Y70500D01*
Y63500D01*
X68000Y63500D01*
X67688Y63514D01*
X67379Y63556D01*
X67074Y63625D01*
X66777Y63721D01*
X66490Y63843D01*
X66214Y63990D01*
X66145Y64026D01*
X66069Y64049D01*
X65991Y64060D01*
X65913Y64059D01*
X65835Y64046D01*
X65761Y64020D01*
X65691Y63984D01*
X65628Y63936D01*
X65573Y63880D01*
X65528Y63816D01*
X65493Y63745D01*
X65470Y63670D01*
X65459Y63592D01*
X65460Y63513D01*
X65473Y63436D01*
X65499Y63361D01*
X65535Y63292D01*
X65583Y63229D01*
X65639Y63174D01*
X65704Y63130D01*
X66056Y62936D01*
X66426Y62779D01*
X66809Y62656D01*
X67200Y62567D01*
X67599Y62513D01*
X68000Y62496D01*
X68002Y62496D01*
Y2000D01*
G37*
G36*
X62993Y108000D02*X68002D01*
Y71504D01*
X68000Y71504D01*
X67599Y71487D01*
X67200Y71433D01*
X66809Y71344D01*
X66634Y71288D01*
X66666Y71419D01*
X66700Y72000D01*
X66666Y72581D01*
X66530Y73147D01*
X66307Y73685D01*
X66003Y74182D01*
X65624Y74624D01*
X65182Y75003D01*
X64685Y75307D01*
X64147Y75530D01*
X63581Y75666D01*
X63000Y75711D01*
X62993Y75711D01*
Y108000D01*
G37*
G36*
Y2000D02*X53616D01*
Y24415D01*
X54234Y24671D01*
X55335Y25346D01*
X56316Y26184D01*
X57154Y27165D01*
X57829Y28266D01*
X58323Y29458D01*
X58624Y30713D01*
X58700Y32000D01*
X58624Y33287D01*
X58323Y34542D01*
X57829Y35734D01*
X57154Y36835D01*
X56316Y37816D01*
X55335Y38654D01*
X54234Y39329D01*
X53616Y39585D01*
Y65500D01*
X53751D01*
X53978Y64951D01*
X54348Y64347D01*
X54808Y63808D01*
X55347Y63348D01*
X55951Y62978D01*
X56605Y62707D01*
X57294Y62542D01*
X58000Y62486D01*
X58706Y62542D01*
X59395Y62707D01*
X60049Y62978D01*
X60653Y63348D01*
X61192Y63808D01*
X61652Y64347D01*
X62022Y64951D01*
X62293Y65605D01*
X62458Y66294D01*
X62500Y67000D01*
X62458Y67706D01*
X62301Y68363D01*
X62419Y68334D01*
X62993Y68289D01*
Y61513D01*
X62294Y61458D01*
X61605Y61293D01*
X60951Y61022D01*
X60347Y60652D01*
X59808Y60192D01*
X59348Y59653D01*
X58978Y59049D01*
X58707Y58395D01*
X58542Y57706D01*
X58486Y57000D01*
X58542Y56294D01*
X58707Y55605D01*
X58978Y54951D01*
X59348Y54347D01*
X59808Y53808D01*
X60347Y53348D01*
X60951Y52978D01*
X61605Y52707D01*
X62294Y52542D01*
X62993Y52487D01*
Y2000D01*
G37*
G36*
X53616Y108000D02*X62993D01*
Y75711D01*
X62419Y75666D01*
X61853Y75530D01*
X61315Y75307D01*
X60818Y75003D01*
X60376Y74624D01*
X59997Y74182D01*
X59693Y73685D01*
X59616Y73500D01*
X53616D01*
Y108000D01*
G37*
G36*
X24993D02*X53616D01*
Y73500D01*
X41865D01*
X41772Y73651D01*
X41486Y73986D01*
X41151Y74272D01*
X40775Y74503D01*
X40368Y74671D01*
X39939Y74774D01*
X39500Y74809D01*
X39061Y74774D01*
X38632Y74671D01*
X38225Y74503D01*
X37849Y74272D01*
X37514Y73986D01*
X37228Y73651D01*
X36997Y73275D01*
X36829Y72868D01*
X36726Y72439D01*
X36691Y72000D01*
X36726Y71561D01*
X36829Y71132D01*
X36997Y70725D01*
X37228Y70349D01*
X37514Y70014D01*
X37849Y69728D01*
X38225Y69497D01*
X38632Y69329D01*
X39061Y69226D01*
X39500Y69191D01*
X39939Y69226D01*
X40368Y69329D01*
X40775Y69497D01*
X41151Y69728D01*
X41486Y70014D01*
X41772Y70349D01*
X41865Y70500D01*
X43556D01*
X43142Y70246D01*
X42663Y69837D01*
X42254Y69358D01*
X41925Y68822D01*
X41684Y68240D01*
X41537Y67628D01*
X41488Y67000D01*
X41500Y66837D01*
X41509Y63843D01*
X41546Y63690D01*
X41583Y63600D01*
X41546Y63510D01*
X41509Y63357D01*
X41500Y63200D01*
X41508Y60459D01*
X41488Y60200D01*
X41537Y59572D01*
X41684Y58960D01*
X41925Y58378D01*
X42254Y57842D01*
X42663Y57363D01*
X43142Y56954D01*
X43678Y56625D01*
X44260Y56384D01*
X44872Y56237D01*
X45500Y56188D01*
X46128Y56237D01*
X46740Y56384D01*
X47322Y56625D01*
X47858Y56954D01*
X48337Y57363D01*
X48746Y57842D01*
X49075Y58378D01*
X49316Y58960D01*
X49463Y59572D01*
X49491Y60043D01*
X49491Y60043D01*
X49500Y60200D01*
X49491Y63357D01*
X49454Y63510D01*
X49417Y63600D01*
X49454Y63690D01*
X49491Y63843D01*
X49500Y64000D01*
X49496Y65500D01*
X53616D01*
Y39585D01*
X53042Y39823D01*
X51787Y40124D01*
X50500Y40225D01*
X49213Y40124D01*
X47958Y39823D01*
X46766Y39329D01*
X45665Y38654D01*
X44684Y37816D01*
X43846Y36835D01*
X43171Y35734D01*
X42677Y34542D01*
X42376Y33287D01*
X42275Y32000D01*
X42376Y30713D01*
X42677Y29458D01*
X43171Y28266D01*
X43846Y27165D01*
X44684Y26184D01*
X45665Y25346D01*
X46766Y24671D01*
X47958Y24177D01*
X49213Y23876D01*
X50500Y23775D01*
X51787Y23876D01*
X53042Y24177D01*
X53616Y24415D01*
Y2000D01*
X24993D01*
Y6662D01*
X25009Y6669D01*
X26486Y7573D01*
X27802Y8698D01*
X28927Y10014D01*
X29831Y11491D01*
X30494Y13090D01*
X30898Y14774D01*
X31000Y16500D01*
X30898Y18226D01*
X30494Y19910D01*
X29831Y21509D01*
X28927Y22986D01*
X27802Y24302D01*
X26486Y25427D01*
X25009Y26331D01*
X24993Y26338D01*
Y31207D01*
X28235Y31214D01*
X28465Y31269D01*
X28683Y31359D01*
X28884Y31483D01*
X29064Y31636D01*
X29217Y31816D01*
X29341Y32017D01*
X29431Y32235D01*
X29486Y32465D01*
X29500Y32700D01*
X29486Y38935D01*
X29431Y39165D01*
X29341Y39383D01*
X29217Y39584D01*
X29064Y39764D01*
X28884Y39917D01*
X28683Y40041D01*
X28465Y40131D01*
X28235Y40186D01*
X28000Y40200D01*
X24993Y40193D01*
Y41187D01*
X25000Y41186D01*
X25706Y41242D01*
X26395Y41407D01*
X27049Y41678D01*
X27653Y42048D01*
X28192Y42508D01*
X28652Y43047D01*
X29022Y43651D01*
X29293Y44305D01*
X29458Y44994D01*
X29500Y45700D01*
X29458Y46406D01*
X29293Y47095D01*
X29022Y47749D01*
X28652Y48353D01*
X28192Y48892D01*
X27653Y49352D01*
X27049Y49722D01*
X26395Y49993D01*
X25706Y50158D01*
X25000Y50214D01*
X24993Y50213D01*
Y51187D01*
X25000Y51186D01*
X25706Y51242D01*
X26395Y51407D01*
X27049Y51678D01*
X27653Y52048D01*
X28192Y52508D01*
X28652Y53047D01*
X29022Y53651D01*
X29293Y54305D01*
X29458Y54994D01*
X29500Y55700D01*
X29458Y56406D01*
X29293Y57095D01*
X29022Y57749D01*
X28652Y58353D01*
X28192Y58892D01*
X27653Y59352D01*
X27049Y59722D01*
X26395Y59993D01*
X25706Y60158D01*
X25000Y60214D01*
X24993Y60213D01*
Y108000D01*
G37*
G36*
Y26338D02*X23410Y26994D01*
X21726Y27398D01*
X20000Y27534D01*
X18274Y27398D01*
X16998Y27092D01*
Y28500D01*
X19241D01*
X19300Y28495D01*
X19535Y28514D01*
X19535Y28514D01*
X19765Y28569D01*
X19983Y28659D01*
X20184Y28783D01*
X20364Y28936D01*
X20402Y28981D01*
X22623Y31201D01*
X24993Y31207D01*
Y26338D01*
G37*
G36*
Y2000D02*X16998D01*
Y5908D01*
X18274Y5602D01*
X20000Y5466D01*
X21726Y5602D01*
X23410Y6006D01*
X24993Y6662D01*
Y2000D01*
G37*
G36*
X18613Y108000D02*X24993D01*
Y60213D01*
X24294Y60158D01*
X23605Y59993D01*
X22951Y59722D01*
X22347Y59352D01*
X21808Y58892D01*
X21348Y58353D01*
X20978Y57749D01*
X20707Y57095D01*
X20542Y56406D01*
X20486Y55700D01*
X20542Y54994D01*
X20707Y54305D01*
X20978Y53651D01*
X21348Y53047D01*
X21808Y52508D01*
X22347Y52048D01*
X22951Y51678D01*
X23605Y51407D01*
X24294Y51242D01*
X24993Y51187D01*
Y50213D01*
X24294Y50158D01*
X23605Y49993D01*
X22951Y49722D01*
X22347Y49352D01*
X21808Y48892D01*
X21348Y48353D01*
X20978Y47749D01*
X20707Y47095D01*
X20542Y46406D01*
X20486Y45700D01*
X20542Y44994D01*
X20707Y44305D01*
X20978Y43651D01*
X21348Y43047D01*
X21808Y42508D01*
X22347Y42048D01*
X22951Y41678D01*
X23605Y41407D01*
X24294Y41242D01*
X24993Y41187D01*
Y40193D01*
X21765Y40186D01*
X21535Y40131D01*
X21317Y40041D01*
X21116Y39917D01*
X20936Y39764D01*
X20783Y39584D01*
X20659Y39383D01*
X20569Y39165D01*
X20514Y38935D01*
X20500Y38700D01*
X20512Y33333D01*
X18679Y31500D01*
X18613D01*
Y33002D01*
X18652Y33047D01*
X19022Y33651D01*
X19293Y34305D01*
X19458Y34994D01*
X19500Y35700D01*
X19458Y36406D01*
X19293Y37095D01*
X19022Y37749D01*
X18652Y38353D01*
X18613Y38398D01*
Y43002D01*
X18652Y43047D01*
X19022Y43651D01*
X19293Y44305D01*
X19458Y44994D01*
X19500Y45700D01*
X19458Y46406D01*
X19293Y47095D01*
X19022Y47749D01*
X18652Y48353D01*
X18613Y48398D01*
Y53553D01*
X18656Y53560D01*
X18768Y53597D01*
X18873Y53652D01*
X18968Y53722D01*
X19051Y53806D01*
X19119Y53902D01*
X19170Y54008D01*
X19318Y54416D01*
X19422Y54837D01*
X19484Y55267D01*
X19505Y55700D01*
X19484Y56133D01*
X19422Y56563D01*
X19318Y56984D01*
X19175Y57394D01*
X19122Y57500D01*
X19053Y57596D01*
X18970Y57681D01*
X18875Y57751D01*
X18769Y57806D01*
X18657Y57843D01*
X18613Y57851D01*
Y108000D01*
G37*
G36*
Y38398D02*X18192Y38892D01*
X17653Y39352D01*
X17049Y39722D01*
X16998Y39743D01*
Y41657D01*
X17049Y41678D01*
X17653Y42048D01*
X18192Y42508D01*
X18613Y43002D01*
Y38398D01*
G37*
G36*
Y31500D02*X16998D01*
Y31657D01*
X17049Y31678D01*
X17653Y32048D01*
X18192Y32508D01*
X18613Y33002D01*
Y31500D01*
G37*
G36*
X16998Y108000D02*X18613D01*
Y57851D01*
X18540Y57863D01*
X18421Y57864D01*
X18304Y57846D01*
X18191Y57810D01*
X18085Y57757D01*
X17988Y57688D01*
X17904Y57605D01*
X17833Y57509D01*
X17779Y57404D01*
X17741Y57292D01*
X17722Y57175D01*
X17721Y57056D01*
X17739Y56939D01*
X17777Y56826D01*
X17876Y56555D01*
X17944Y56275D01*
X17986Y55989D01*
X18000Y55700D01*
X17986Y55411D01*
X17944Y55125D01*
X17876Y54845D01*
X17780Y54572D01*
X17742Y54461D01*
X17725Y54344D01*
X17725Y54226D01*
X17745Y54109D01*
X17782Y53997D01*
X17836Y53893D01*
X17906Y53798D01*
X17991Y53715D01*
X18087Y53646D01*
X18192Y53593D01*
X18305Y53557D01*
X18421Y53540D01*
X18539Y53541D01*
X18613Y53553D01*
Y48398D01*
X18192Y48892D01*
X17653Y49352D01*
X17049Y49722D01*
X16998Y49743D01*
Y51753D01*
X17051Y51825D01*
X17106Y51931D01*
X17143Y52043D01*
X17163Y52160D01*
X17164Y52279D01*
X17146Y52396D01*
X17110Y52509D01*
X17057Y52615D01*
X16998Y52698D01*
Y58708D01*
X17054Y58787D01*
X17107Y58892D01*
X17143Y59005D01*
X17160Y59121D01*
X17159Y59239D01*
X17140Y59356D01*
X17103Y59468D01*
X17048Y59573D01*
X16998Y59641D01*
Y108000D01*
G37*
G36*
Y31500D02*X16619D01*
X16998Y31657D01*
Y31500D01*
G37*
G36*
X11387Y9647D02*X12198Y8698D01*
X13514Y7573D01*
X14991Y6669D01*
X16590Y6006D01*
X16998Y5908D01*
Y2000D01*
X11387D01*
Y9647D01*
G37*
G36*
Y28500D02*X16998D01*
Y27092D01*
X16590Y26994D01*
X14991Y26331D01*
X13514Y25427D01*
X12198Y24302D01*
X11387Y23353D01*
Y28500D01*
G37*
G36*
Y33002D02*X11808Y32508D01*
X12347Y32048D01*
X12951Y31678D01*
X13381Y31500D01*
X11387D01*
Y33002D01*
G37*
G36*
Y43002D02*X11808Y42508D01*
X12347Y42048D01*
X12951Y41678D01*
X13605Y41407D01*
X14294Y41242D01*
X15000Y41186D01*
X15706Y41242D01*
X16395Y41407D01*
X16998Y41657D01*
Y39743D01*
X16395Y39993D01*
X15706Y40158D01*
X15000Y40214D01*
X14294Y40158D01*
X13605Y39993D01*
X12951Y39722D01*
X12347Y39352D01*
X11808Y38892D01*
X11387Y38398D01*
Y43002D01*
G37*
G36*
Y108000D02*X16998D01*
Y59641D01*
X16978Y59668D01*
X16894Y59751D01*
X16798Y59819D01*
X16692Y59870D01*
X16284Y60018D01*
X15863Y60122D01*
X15433Y60184D01*
X15000Y60205D01*
X14567Y60184D01*
X14137Y60122D01*
X13716Y60018D01*
X13306Y59875D01*
X13200Y59822D01*
X13104Y59753D01*
X13019Y59670D01*
X12949Y59575D01*
X12894Y59469D01*
X12857Y59357D01*
X12837Y59240D01*
X12836Y59121D01*
X12854Y59004D01*
X12890Y58891D01*
X12943Y58785D01*
X13012Y58688D01*
X13095Y58604D01*
X13191Y58533D01*
X13296Y58479D01*
X13408Y58441D01*
X13525Y58422D01*
X13644Y58421D01*
X13761Y58439D01*
X13874Y58477D01*
X14145Y58576D01*
X14425Y58644D01*
X14711Y58686D01*
X15000Y58700D01*
X15289Y58686D01*
X15575Y58644D01*
X15855Y58576D01*
X16128Y58480D01*
X16239Y58442D01*
X16356Y58425D01*
X16474Y58425D01*
X16591Y58445D01*
X16703Y58482D01*
X16807Y58536D01*
X16902Y58606D01*
X16985Y58691D01*
X16998Y58708D01*
Y52698D01*
X16988Y52712D01*
X16905Y52796D01*
X16809Y52867D01*
X16704Y52921D01*
X16592Y52959D01*
X16475Y52978D01*
X16356Y52979D01*
X16239Y52961D01*
X16126Y52923D01*
X15855Y52824D01*
X15575Y52756D01*
X15289Y52714D01*
X15000Y52700D01*
X14711Y52714D01*
X14425Y52756D01*
X14145Y52824D01*
X13872Y52920D01*
X13761Y52958D01*
X13644Y52975D01*
X13526Y52975D01*
X13409Y52955D01*
X13297Y52918D01*
X13193Y52864D01*
X13098Y52794D01*
X13015Y52709D01*
X12946Y52613D01*
X12893Y52508D01*
X12857Y52395D01*
X12840Y52279D01*
X12841Y52161D01*
X12860Y52044D01*
X12897Y51932D01*
X12952Y51827D01*
X13022Y51732D01*
X13106Y51649D01*
X13202Y51581D01*
X13308Y51530D01*
X13716Y51382D01*
X14137Y51278D01*
X14567Y51216D01*
X15000Y51195D01*
X15433Y51216D01*
X15863Y51278D01*
X16284Y51382D01*
X16694Y51525D01*
X16800Y51578D01*
X16896Y51647D01*
X16981Y51730D01*
X16998Y51753D01*
Y49743D01*
X16395Y49993D01*
X15706Y50158D01*
X15000Y50214D01*
X14294Y50158D01*
X13605Y49993D01*
X12951Y49722D01*
X12347Y49352D01*
X11808Y48892D01*
X11387Y48398D01*
Y53549D01*
X11460Y53537D01*
X11579Y53536D01*
X11696Y53554D01*
X11809Y53590D01*
X11915Y53643D01*
X12012Y53712D01*
X12096Y53795D01*
X12167Y53891D01*
X12221Y53996D01*
X12259Y54108D01*
X12278Y54225D01*
X12279Y54344D01*
X12261Y54461D01*
X12223Y54574D01*
X12124Y54845D01*
X12056Y55125D01*
X12014Y55411D01*
X12000Y55700D01*
X12014Y55989D01*
X12056Y56275D01*
X12124Y56555D01*
X12220Y56828D01*
X12258Y56939D01*
X12275Y57056D01*
X12275Y57174D01*
X12255Y57291D01*
X12218Y57403D01*
X12164Y57507D01*
X12094Y57602D01*
X12009Y57685D01*
X11913Y57754D01*
X11808Y57807D01*
X11695Y57843D01*
X11579Y57860D01*
X11461Y57859D01*
X11387Y57847D01*
Y78212D01*
X11652Y78191D01*
X12091Y78226D01*
X12520Y78329D01*
X12927Y78497D01*
X13303Y78728D01*
X13638Y79014D01*
X13924Y79349D01*
X14155Y79725D01*
X14323Y80132D01*
X14426Y80561D01*
X14452Y81000D01*
X14426Y81439D01*
X14323Y81868D01*
X14155Y82275D01*
X13924Y82651D01*
X13638Y82986D01*
X13303Y83272D01*
X12927Y83503D01*
X12520Y83671D01*
X12091Y83774D01*
X11652Y83809D01*
X11387Y83788D01*
Y108000D01*
G37*
G36*
Y48398D02*X11348Y48353D01*
X10978Y47749D01*
X10707Y47095D01*
X10542Y46406D01*
X10486Y45700D01*
X10542Y44994D01*
X10707Y44305D01*
X10978Y43651D01*
X11348Y43047D01*
X11387Y43002D01*
Y38398D01*
X11348Y38353D01*
X10978Y37749D01*
X10707Y37095D01*
X10542Y36406D01*
X10486Y35700D01*
X10542Y34994D01*
X10707Y34305D01*
X10978Y33651D01*
X11348Y33047D01*
X11387Y33002D01*
Y31500D01*
X8621D01*
X7500Y32621D01*
Y74727D01*
X11041Y78267D01*
X11213Y78226D01*
X11387Y78212D01*
Y57847D01*
X11344Y57840D01*
X11232Y57803D01*
X11127Y57748D01*
X11032Y57678D01*
X10949Y57594D01*
X10881Y57498D01*
X10830Y57392D01*
X10682Y56984D01*
X10578Y56563D01*
X10516Y56133D01*
X10495Y55700D01*
X10516Y55267D01*
X10578Y54837D01*
X10682Y54416D01*
X10825Y54006D01*
X10878Y53900D01*
X10947Y53804D01*
X11030Y53719D01*
X11125Y53649D01*
X11231Y53594D01*
X11343Y53557D01*
X11387Y53549D01*
Y48398D01*
G37*
G36*
X2000Y108000D02*X11387D01*
Y83788D01*
X11213Y83774D01*
X10784Y83671D01*
X10377Y83503D01*
X10001Y83272D01*
X9666Y82986D01*
X9380Y82651D01*
X9149Y82275D01*
X8981Y81868D01*
X8878Y81439D01*
X8843Y81000D01*
X8878Y80561D01*
X8919Y80389D01*
X4981Y76450D01*
X4936Y76412D01*
X4783Y76232D01*
X4659Y76031D01*
X4569Y75813D01*
X4514Y75583D01*
X4514Y75583D01*
X4495Y75348D01*
X4500Y75289D01*
Y32059D01*
X4495Y32000D01*
X4514Y31765D01*
X4569Y31535D01*
X4659Y31317D01*
X4783Y31116D01*
X4936Y30936D01*
X4981Y30898D01*
X6898Y28981D01*
X6936Y28936D01*
X7115Y28783D01*
X7116Y28783D01*
X7317Y28659D01*
X7535Y28569D01*
X7765Y28514D01*
X8000Y28495D01*
X8059Y28500D01*
X11387D01*
Y23353D01*
X11073Y22986D01*
X10169Y21509D01*
X9506Y19910D01*
X9102Y18226D01*
X8966Y16500D01*
X9102Y14774D01*
X9506Y13090D01*
X10169Y11491D01*
X11073Y10014D01*
X11387Y9647D01*
Y2000D01*
X2000D01*
Y108000D01*
G37*
G54D28*X11652Y81000D02*X6000Y75348D01*
X58000Y67000D02*X45500D01*
G54D29*Y60200D02*Y51500D01*
G54D28*X25000Y35700D02*X19300Y30000D01*
X8000D01*
X6000Y32000D01*
Y75348D01*
X39500Y72000D02*X63000D01*
G54D30*X58000Y67000D03*
G54D27*G36*
X22000Y38700D02*Y32700D01*
X28000D01*
Y38700D01*
X22000D01*
G37*
G54D31*X25000Y45700D03*
Y55700D03*
X15000Y35700D03*
Y45700D03*
Y55700D03*
G54D30*X63000Y57000D03*
G54D32*X50500Y32000D03*
G54D30*X68000Y67000D03*
X73000Y57000D03*
X83000D03*
G54D32*X90500Y32000D03*
G54D30*X78000Y67000D03*
G54D31*X45500D03*
G54D33*X44000Y65500D02*X47000D01*
G54D31*X45500Y60200D03*
G54D33*X44000Y61700D02*X47000D01*
G54D34*X33000Y91500D03*
X37500D03*
X44000D03*
X11652Y81000D03*
X63000Y72000D03*
X39500D03*
G54D35*X20000Y16500D03*
G54D36*G54D37*G54D38*G54D39*G54D38*G54D40*G54D38*G54D40*G54D38*M02*
