G04 start of page 10 for group -4015 idx -4015 *
G04 Title: (unknown), toppaste *
G04 Creator: pcb 20140316 *
G04 CreationDate: Thu 25 Oct 2018 04:49:50 PM GMT UTC *
G04 For: railfan *
G04 Format: Gerber/RS-274X *
G04 PCB-Dimensions (mil): 5400.00 1100.00 *
G04 PCB-Coordinate-Origin: lower left *
%MOIN*%
%FSLAX25Y25*%
%LNTOPPASTE*%
%ADD66R,0.0120X0.0120*%
%ADD65R,0.0512X0.0512*%
%ADD64R,0.0167X0.0167*%
G54D64*X10717Y90075D02*X12587D01*
X10717Y86925D02*X12587D01*
X17413D02*X19283D01*
X17413Y90075D02*X19283D01*
X72075Y92783D02*Y90913D01*
X68925Y92783D02*Y90913D01*
Y86087D02*Y84217D01*
X72075Y86087D02*Y84217D01*
G54D65*X49607Y84957D02*X50393D01*
X49607Y92043D02*X50393D01*
G54D66*X38839Y97500D02*Y96500D01*
X36280Y97500D02*Y96500D01*
X33720Y97500D02*Y96500D01*
X31161Y97500D02*Y96500D01*
Y80500D02*Y79500D01*
X33720Y80500D02*Y79500D01*
X36280Y80500D02*Y79500D01*
X38839Y80500D02*Y79500D01*
G54D64*X120717Y90075D02*X122587D01*
X120717Y86925D02*X122587D01*
X127413D02*X129283D01*
X127413Y90075D02*X129283D01*
X182075Y92783D02*Y90913D01*
X178925Y92783D02*Y90913D01*
Y86087D02*Y84217D01*
X182075Y86087D02*Y84217D01*
G54D65*X159607Y84957D02*X160393D01*
X159607Y92043D02*X160393D01*
G54D66*X148839Y97500D02*Y96500D01*
X146280Y97500D02*Y96500D01*
X143720Y97500D02*Y96500D01*
X141161Y97500D02*Y96500D01*
Y80500D02*Y79500D01*
X143720Y80500D02*Y79500D01*
X146280Y80500D02*Y79500D01*
X148839Y80500D02*Y79500D01*
G54D64*X230717Y90075D02*X232587D01*
X230717Y86925D02*X232587D01*
X237413D02*X239283D01*
X237413Y90075D02*X239283D01*
X292075Y92783D02*Y90913D01*
X288925Y92783D02*Y90913D01*
Y86087D02*Y84217D01*
X292075Y86087D02*Y84217D01*
G54D65*X269607Y84957D02*X270393D01*
X269607Y92043D02*X270393D01*
G54D66*X258839Y97500D02*Y96500D01*
X256280Y97500D02*Y96500D01*
X253720Y97500D02*Y96500D01*
X251161Y97500D02*Y96500D01*
Y80500D02*Y79500D01*
X253720Y80500D02*Y79500D01*
X256280Y80500D02*Y79500D01*
X258839Y80500D02*Y79500D01*
G54D64*X340717Y90075D02*X342587D01*
X340717Y86925D02*X342587D01*
X347413D02*X349283D01*
X347413Y90075D02*X349283D01*
X402075Y92783D02*Y90913D01*
X398925Y92783D02*Y90913D01*
Y86087D02*Y84217D01*
X402075Y86087D02*Y84217D01*
G54D65*X379607Y84957D02*X380393D01*
X379607Y92043D02*X380393D01*
G54D66*X368839Y97500D02*Y96500D01*
X366280Y97500D02*Y96500D01*
X363720Y97500D02*Y96500D01*
X361161Y97500D02*Y96500D01*
Y80500D02*Y79500D01*
X363720Y80500D02*Y79500D01*
X366280Y80500D02*Y79500D01*
X368839Y80500D02*Y79500D01*
G54D64*X450717Y90075D02*X452587D01*
X450717Y86925D02*X452587D01*
X457413D02*X459283D01*
X457413Y90075D02*X459283D01*
X512075Y92783D02*Y90913D01*
X508925Y92783D02*Y90913D01*
Y86087D02*Y84217D01*
X512075Y86087D02*Y84217D01*
G54D65*X489607Y84957D02*X490393D01*
X489607Y92043D02*X490393D01*
G54D66*X478839Y97500D02*Y96500D01*
X476280Y97500D02*Y96500D01*
X473720Y97500D02*Y96500D01*
X471161Y97500D02*Y96500D01*
Y80500D02*Y79500D01*
X473720Y80500D02*Y79500D01*
X476280Y80500D02*Y79500D01*
X478839Y80500D02*Y79500D01*
M02*
