G04 start of page 3 for group 1 idx 1 *
G04 Title: (unknown), bottom *
G04 Creator: pcb 20140316 *
G04 CreationDate: Thu 25 Oct 2018 04:49:50 PM GMT UTC *
G04 For: railfan *
G04 Format: Gerber/RS-274X *
G04 PCB-Dimensions (mil): 5400.00 1100.00 *
G04 PCB-Coordinate-Origin: lower left *
%MOIN*%
%FSLAX25Y25*%
%LNBOTTOM*%
%ADD40C,0.1280*%
%ADD39C,0.0380*%
%ADD38C,0.0300*%
%ADD37C,0.0200*%
%ADD36C,0.1083*%
%ADD35C,0.0360*%
%ADD34C,0.2000*%
%ADD33R,0.0300X0.0300*%
%ADD32C,0.1440*%
%ADD31C,0.0600*%
%ADD30C,0.0700*%
%ADD29C,0.0150*%
%ADD28C,0.0100*%
%ADD27C,0.0001*%
G54D27*G36*
X82993Y28696D02*X83171Y28266D01*
X83846Y27165D01*
X84684Y26184D01*
X85665Y25346D01*
X86766Y24671D01*
X87958Y24177D01*
X89213Y23876D01*
X90500Y23775D01*
X91787Y23876D01*
X93042Y24177D01*
X94234Y24671D01*
X95335Y25346D01*
X96316Y26184D01*
X97154Y27165D01*
X97829Y28266D01*
X98000Y28679D01*
Y2000D01*
X82993D01*
Y28696D01*
G37*
G36*
Y108000D02*X98000D01*
Y35321D01*
X97829Y35734D01*
X97154Y36835D01*
X96316Y37816D01*
X95335Y38654D01*
X94234Y39329D01*
X93042Y39823D01*
X91787Y40124D01*
X90500Y40225D01*
X89213Y40124D01*
X87958Y39823D01*
X86766Y39329D01*
X85665Y38654D01*
X84684Y37816D01*
X83846Y36835D01*
X83171Y35734D01*
X82993Y35304D01*
Y52487D01*
X83000Y52486D01*
X83706Y52542D01*
X84395Y52707D01*
X85049Y52978D01*
X85653Y53348D01*
X86192Y53808D01*
X86652Y54347D01*
X87022Y54951D01*
X87293Y55605D01*
X87458Y56294D01*
X87500Y57000D01*
X87458Y57706D01*
X87293Y58395D01*
X87022Y59049D01*
X86652Y59653D01*
X86192Y60192D01*
X85653Y60652D01*
X85049Y61022D01*
X84395Y61293D01*
X83706Y61458D01*
X83000Y61514D01*
X82993Y61513D01*
Y108000D01*
G37*
G36*
X77993D02*X82993D01*
Y61513D01*
X82294Y61458D01*
X81605Y61293D01*
X80951Y61022D01*
X80347Y60652D01*
X79808Y60192D01*
X79348Y59653D01*
X78978Y59049D01*
X78707Y58395D01*
X78542Y57706D01*
X78486Y57000D01*
X78542Y56294D01*
X78707Y55605D01*
X78978Y54951D01*
X79348Y54347D01*
X79808Y53808D01*
X80347Y53348D01*
X80951Y52978D01*
X81605Y52707D01*
X82294Y52542D01*
X82993Y52487D01*
Y35304D01*
X82677Y34542D01*
X82376Y33287D01*
X82275Y32000D01*
X82376Y30713D01*
X82677Y29458D01*
X82993Y28696D01*
Y2000D01*
X77993D01*
Y62487D01*
X78000Y62486D01*
X78706Y62542D01*
X79395Y62707D01*
X80049Y62978D01*
X80653Y63348D01*
X81192Y63808D01*
X81652Y64347D01*
X82022Y64951D01*
X82293Y65605D01*
X82458Y66294D01*
X82500Y67000D01*
X82458Y67706D01*
X82293Y68395D01*
X82022Y69049D01*
X81652Y69653D01*
X81192Y70192D01*
X80653Y70652D01*
X80049Y71022D01*
X79395Y71293D01*
X78706Y71458D01*
X78000Y71514D01*
X77993Y71513D01*
Y108000D01*
G37*
G36*
X72993D02*X77993D01*
Y71513D01*
X77294Y71458D01*
X76605Y71293D01*
X75951Y71022D01*
X75347Y70652D01*
X74808Y70192D01*
X74348Y69653D01*
X73978Y69049D01*
X73707Y68395D01*
X73542Y67706D01*
X73486Y67000D01*
X73542Y66294D01*
X73707Y65605D01*
X73978Y64951D01*
X74348Y64347D01*
X74808Y63808D01*
X75347Y63348D01*
X75951Y62978D01*
X76605Y62707D01*
X77294Y62542D01*
X77993Y62487D01*
Y2000D01*
X72993D01*
Y52487D01*
X73000Y52486D01*
X73706Y52542D01*
X74395Y52707D01*
X75049Y52978D01*
X75653Y53348D01*
X76192Y53808D01*
X76652Y54347D01*
X77022Y54951D01*
X77293Y55605D01*
X77458Y56294D01*
X77500Y57000D01*
X77458Y57706D01*
X77293Y58395D01*
X77022Y59049D01*
X76652Y59653D01*
X76192Y60192D01*
X75653Y60652D01*
X75049Y61022D01*
X74395Y61293D01*
X73706Y61458D01*
X73000Y61514D01*
X72993Y61513D01*
Y108000D01*
G37*
G36*
X71720Y52679D02*X72294Y52542D01*
X72993Y52487D01*
Y2000D01*
X71720D01*
Y52679D01*
G37*
G36*
Y108000D02*X72993D01*
Y61513D01*
X72294Y61458D01*
X71720Y61321D01*
Y64544D01*
X71771Y64583D01*
X71826Y64639D01*
X71870Y64704D01*
X72064Y65056D01*
X72221Y65426D01*
X72344Y65809D01*
X72433Y66200D01*
X72487Y66599D01*
X72504Y67000D01*
X72487Y67401D01*
X72433Y67800D01*
X72344Y68191D01*
X72221Y68574D01*
X72064Y68944D01*
X71874Y69298D01*
X71829Y69363D01*
X71774Y69420D01*
X71720Y69460D01*
Y108000D01*
G37*
G36*
X68002D02*X71720D01*
Y69460D01*
X71710Y69468D01*
X71640Y69504D01*
X71565Y69530D01*
X71487Y69544D01*
X71408Y69545D01*
X71329Y69533D01*
X71254Y69510D01*
X71183Y69475D01*
X71118Y69429D01*
X71061Y69374D01*
X71013Y69311D01*
X70976Y69241D01*
X70951Y69166D01*
X70937Y69088D01*
X70936Y69008D01*
X70948Y68930D01*
X70971Y68854D01*
X71007Y68784D01*
X71157Y68510D01*
X71279Y68223D01*
X71375Y67926D01*
X71444Y67621D01*
X71486Y67312D01*
X71500Y67000D01*
X71486Y66688D01*
X71444Y66379D01*
X71375Y66074D01*
X71279Y65777D01*
X71157Y65490D01*
X71010Y65214D01*
X70974Y65145D01*
X70951Y65069D01*
X70940Y64991D01*
X70941Y64913D01*
X70954Y64835D01*
X70980Y64761D01*
X71016Y64691D01*
X71064Y64628D01*
X71120Y64573D01*
X71184Y64528D01*
X71255Y64493D01*
X71330Y64470D01*
X71408Y64459D01*
X71487Y64460D01*
X71564Y64473D01*
X71639Y64499D01*
X71708Y64535D01*
X71720Y64544D01*
Y61321D01*
X71605Y61293D01*
X70951Y61022D01*
X70347Y60652D01*
X69808Y60192D01*
X69348Y59653D01*
X68978Y59049D01*
X68707Y58395D01*
X68542Y57706D01*
X68486Y57000D01*
X68542Y56294D01*
X68707Y55605D01*
X68978Y54951D01*
X69348Y54347D01*
X69808Y53808D01*
X70347Y53348D01*
X70951Y52978D01*
X71605Y52707D01*
X71720Y52679D01*
Y2000D01*
X68002D01*
Y62496D01*
X68401Y62513D01*
X68800Y62567D01*
X69191Y62656D01*
X69574Y62779D01*
X69944Y62936D01*
X70298Y63126D01*
X70363Y63171D01*
X70420Y63226D01*
X70468Y63290D01*
X70504Y63360D01*
X70530Y63435D01*
X70544Y63513D01*
X70545Y63592D01*
X70533Y63671D01*
X70510Y63746D01*
X70475Y63817D01*
X70429Y63882D01*
X70374Y63939D01*
X70311Y63987D01*
X70241Y64024D01*
X70166Y64049D01*
X70088Y64063D01*
X70008Y64064D01*
X69930Y64052D01*
X69854Y64029D01*
X69784Y63993D01*
X69510Y63843D01*
X69223Y63721D01*
X68926Y63625D01*
X68621Y63556D01*
X68312Y63514D01*
X68002Y63500D01*
Y70500D01*
X68312Y70486D01*
X68621Y70444D01*
X68926Y70375D01*
X69223Y70279D01*
X69510Y70157D01*
X69786Y70010D01*
X69855Y69974D01*
X69931Y69951D01*
X70009Y69940D01*
X70087Y69941D01*
X70165Y69954D01*
X70239Y69980D01*
X70309Y70016D01*
X70372Y70064D01*
X70427Y70120D01*
X70472Y70184D01*
X70507Y70255D01*
X70530Y70330D01*
X70541Y70408D01*
X70540Y70487D01*
X70527Y70564D01*
X70501Y70639D01*
X70465Y70708D01*
X70417Y70771D01*
X70361Y70826D01*
X70296Y70870D01*
X69944Y71064D01*
X69574Y71221D01*
X69191Y71344D01*
X68800Y71433D01*
X68401Y71487D01*
X68002Y71504D01*
Y108000D01*
G37*
G36*
Y2000D02*X62993D01*
Y52487D01*
X63000Y52486D01*
X63706Y52542D01*
X64395Y52707D01*
X65049Y52978D01*
X65653Y53348D01*
X66192Y53808D01*
X66652Y54347D01*
X67022Y54951D01*
X67293Y55605D01*
X67458Y56294D01*
X67500Y57000D01*
X67458Y57706D01*
X67293Y58395D01*
X67022Y59049D01*
X66652Y59653D01*
X66192Y60192D01*
X65653Y60652D01*
X65049Y61022D01*
X64395Y61293D01*
X63706Y61458D01*
X63000Y61514D01*
X62993Y61513D01*
Y68289D01*
X63000Y68289D01*
X63581Y68334D01*
X63712Y68366D01*
X63656Y68191D01*
X63567Y67800D01*
X63513Y67401D01*
X63496Y67000D01*
X63513Y66599D01*
X63567Y66200D01*
X63656Y65809D01*
X63779Y65426D01*
X63936Y65056D01*
X64126Y64702D01*
X64171Y64637D01*
X64226Y64580D01*
X64290Y64532D01*
X64360Y64496D01*
X64435Y64470D01*
X64513Y64456D01*
X64592Y64455D01*
X64671Y64467D01*
X64746Y64490D01*
X64817Y64525D01*
X64882Y64571D01*
X64939Y64626D01*
X64987Y64689D01*
X65024Y64759D01*
X65049Y64834D01*
X65063Y64912D01*
X65064Y64992D01*
X65052Y65070D01*
X65029Y65146D01*
X64993Y65216D01*
X64843Y65490D01*
X64721Y65777D01*
X64625Y66074D01*
X64556Y66379D01*
X64514Y66688D01*
X64500Y67000D01*
X64514Y67312D01*
X64556Y67621D01*
X64625Y67926D01*
X64721Y68223D01*
X64843Y68510D01*
X64990Y68786D01*
X65026Y68855D01*
X65044Y68913D01*
X65182Y68997D01*
X65624Y69376D01*
X66003Y69818D01*
X66084Y69952D01*
X66146Y69971D01*
X66216Y70007D01*
X66490Y70157D01*
X66777Y70279D01*
X67074Y70375D01*
X67379Y70444D01*
X67688Y70486D01*
X68000Y70500D01*
X68002Y70500D01*
Y63500D01*
X68000Y63500D01*
X67688Y63514D01*
X67379Y63556D01*
X67074Y63625D01*
X66777Y63721D01*
X66490Y63843D01*
X66214Y63990D01*
X66145Y64026D01*
X66069Y64049D01*
X65991Y64060D01*
X65913Y64059D01*
X65835Y64046D01*
X65761Y64020D01*
X65691Y63984D01*
X65628Y63936D01*
X65573Y63880D01*
X65528Y63816D01*
X65493Y63745D01*
X65470Y63670D01*
X65459Y63592D01*
X65460Y63513D01*
X65473Y63436D01*
X65499Y63361D01*
X65535Y63292D01*
X65583Y63229D01*
X65639Y63174D01*
X65704Y63130D01*
X66056Y62936D01*
X66426Y62779D01*
X66809Y62656D01*
X67200Y62567D01*
X67599Y62513D01*
X68000Y62496D01*
X68002Y62496D01*
Y2000D01*
G37*
G36*
X62993Y108000D02*X68002D01*
Y71504D01*
X68000Y71504D01*
X67599Y71487D01*
X67200Y71433D01*
X66809Y71344D01*
X66634Y71288D01*
X66666Y71419D01*
X66700Y72000D01*
X66666Y72581D01*
X66530Y73147D01*
X66307Y73685D01*
X66003Y74182D01*
X65624Y74624D01*
X65182Y75003D01*
X64685Y75307D01*
X64147Y75530D01*
X63581Y75666D01*
X63000Y75711D01*
X62993Y75711D01*
Y108000D01*
G37*
G36*
Y2000D02*X53616D01*
Y24415D01*
X54234Y24671D01*
X55335Y25346D01*
X56316Y26184D01*
X57154Y27165D01*
X57829Y28266D01*
X58323Y29458D01*
X58624Y30713D01*
X58700Y32000D01*
X58624Y33287D01*
X58323Y34542D01*
X57829Y35734D01*
X57154Y36835D01*
X56316Y37816D01*
X55335Y38654D01*
X54234Y39329D01*
X53616Y39585D01*
Y65500D01*
X53751D01*
X53978Y64951D01*
X54348Y64347D01*
X54808Y63808D01*
X55347Y63348D01*
X55951Y62978D01*
X56605Y62707D01*
X57294Y62542D01*
X58000Y62486D01*
X58706Y62542D01*
X59395Y62707D01*
X60049Y62978D01*
X60653Y63348D01*
X61192Y63808D01*
X61652Y64347D01*
X62022Y64951D01*
X62293Y65605D01*
X62458Y66294D01*
X62500Y67000D01*
X62458Y67706D01*
X62301Y68363D01*
X62419Y68334D01*
X62993Y68289D01*
Y61513D01*
X62294Y61458D01*
X61605Y61293D01*
X60951Y61022D01*
X60347Y60652D01*
X59808Y60192D01*
X59348Y59653D01*
X58978Y59049D01*
X58707Y58395D01*
X58542Y57706D01*
X58486Y57000D01*
X58542Y56294D01*
X58707Y55605D01*
X58978Y54951D01*
X59348Y54347D01*
X59808Y53808D01*
X60347Y53348D01*
X60951Y52978D01*
X61605Y52707D01*
X62294Y52542D01*
X62993Y52487D01*
Y2000D01*
G37*
G36*
X53616Y108000D02*X62993D01*
Y75711D01*
X62419Y75666D01*
X61853Y75530D01*
X61315Y75307D01*
X60818Y75003D01*
X60376Y74624D01*
X59997Y74182D01*
X59693Y73685D01*
X59616Y73500D01*
X53616D01*
Y108000D01*
G37*
G36*
X24993D02*X53616D01*
Y73500D01*
X41865D01*
X41772Y73651D01*
X41486Y73986D01*
X41151Y74272D01*
X40775Y74503D01*
X40368Y74671D01*
X39939Y74774D01*
X39500Y74809D01*
X39061Y74774D01*
X38632Y74671D01*
X38225Y74503D01*
X37849Y74272D01*
X37514Y73986D01*
X37228Y73651D01*
X36997Y73275D01*
X36829Y72868D01*
X36726Y72439D01*
X36691Y72000D01*
X36726Y71561D01*
X36829Y71132D01*
X36997Y70725D01*
X37228Y70349D01*
X37514Y70014D01*
X37849Y69728D01*
X38225Y69497D01*
X38632Y69329D01*
X39061Y69226D01*
X39500Y69191D01*
X39939Y69226D01*
X40368Y69329D01*
X40775Y69497D01*
X41151Y69728D01*
X41486Y70014D01*
X41772Y70349D01*
X41865Y70500D01*
X43556D01*
X43142Y70246D01*
X42663Y69837D01*
X42254Y69358D01*
X41925Y68822D01*
X41684Y68240D01*
X41537Y67628D01*
X41488Y67000D01*
X41500Y66837D01*
X41509Y63843D01*
X41546Y63690D01*
X41583Y63600D01*
X41546Y63510D01*
X41509Y63357D01*
X41500Y63200D01*
X41508Y60459D01*
X41488Y60200D01*
X41537Y59572D01*
X41684Y58960D01*
X41925Y58378D01*
X42254Y57842D01*
X42663Y57363D01*
X43142Y56954D01*
X43678Y56625D01*
X44260Y56384D01*
X44872Y56237D01*
X45500Y56188D01*
X46128Y56237D01*
X46740Y56384D01*
X47322Y56625D01*
X47858Y56954D01*
X48337Y57363D01*
X48746Y57842D01*
X49075Y58378D01*
X49316Y58960D01*
X49463Y59572D01*
X49491Y60043D01*
X49491Y60043D01*
X49500Y60200D01*
X49491Y63357D01*
X49454Y63510D01*
X49417Y63600D01*
X49454Y63690D01*
X49491Y63843D01*
X49500Y64000D01*
X49496Y65500D01*
X53616D01*
Y39585D01*
X53042Y39823D01*
X51787Y40124D01*
X50500Y40225D01*
X49213Y40124D01*
X47958Y39823D01*
X46766Y39329D01*
X45665Y38654D01*
X44684Y37816D01*
X43846Y36835D01*
X43171Y35734D01*
X42677Y34542D01*
X42376Y33287D01*
X42275Y32000D01*
X42376Y30713D01*
X42677Y29458D01*
X43171Y28266D01*
X43846Y27165D01*
X44684Y26184D01*
X45665Y25346D01*
X46766Y24671D01*
X47958Y24177D01*
X49213Y23876D01*
X50500Y23775D01*
X51787Y23876D01*
X53042Y24177D01*
X53616Y24415D01*
Y2000D01*
X24993D01*
Y6662D01*
X25009Y6669D01*
X26486Y7573D01*
X27802Y8698D01*
X28927Y10014D01*
X29831Y11491D01*
X30494Y13090D01*
X30898Y14774D01*
X31000Y16500D01*
X30898Y18226D01*
X30494Y19910D01*
X29831Y21509D01*
X28927Y22986D01*
X27802Y24302D01*
X26486Y25427D01*
X25009Y26331D01*
X24993Y26338D01*
Y31207D01*
X28235Y31214D01*
X28465Y31269D01*
X28683Y31359D01*
X28884Y31483D01*
X29064Y31636D01*
X29217Y31816D01*
X29341Y32017D01*
X29431Y32235D01*
X29486Y32465D01*
X29500Y32700D01*
X29486Y38935D01*
X29431Y39165D01*
X29341Y39383D01*
X29217Y39584D01*
X29064Y39764D01*
X28884Y39917D01*
X28683Y40041D01*
X28465Y40131D01*
X28235Y40186D01*
X28000Y40200D01*
X24993Y40193D01*
Y41187D01*
X25000Y41186D01*
X25706Y41242D01*
X26395Y41407D01*
X27049Y41678D01*
X27653Y42048D01*
X28192Y42508D01*
X28652Y43047D01*
X29022Y43651D01*
X29293Y44305D01*
X29458Y44994D01*
X29500Y45700D01*
X29458Y46406D01*
X29293Y47095D01*
X29022Y47749D01*
X28652Y48353D01*
X28192Y48892D01*
X27653Y49352D01*
X27049Y49722D01*
X26395Y49993D01*
X25706Y50158D01*
X25000Y50214D01*
X24993Y50213D01*
Y51187D01*
X25000Y51186D01*
X25706Y51242D01*
X26395Y51407D01*
X27049Y51678D01*
X27653Y52048D01*
X28192Y52508D01*
X28652Y53047D01*
X29022Y53651D01*
X29293Y54305D01*
X29458Y54994D01*
X29500Y55700D01*
X29458Y56406D01*
X29293Y57095D01*
X29022Y57749D01*
X28652Y58353D01*
X28192Y58892D01*
X27653Y59352D01*
X27049Y59722D01*
X26395Y59993D01*
X25706Y60158D01*
X25000Y60214D01*
X24993Y60213D01*
Y108000D01*
G37*
G36*
Y26338D02*X23410Y26994D01*
X21726Y27398D01*
X20000Y27534D01*
X18274Y27398D01*
X16998Y27092D01*
Y28500D01*
X19241D01*
X19300Y28495D01*
X19535Y28514D01*
X19535Y28514D01*
X19765Y28569D01*
X19983Y28659D01*
X20184Y28783D01*
X20364Y28936D01*
X20402Y28981D01*
X22623Y31201D01*
X24993Y31207D01*
Y26338D01*
G37*
G36*
Y2000D02*X16998D01*
Y5908D01*
X18274Y5602D01*
X20000Y5466D01*
X21726Y5602D01*
X23410Y6006D01*
X24993Y6662D01*
Y2000D01*
G37*
G36*
X18613Y108000D02*X24993D01*
Y60213D01*
X24294Y60158D01*
X23605Y59993D01*
X22951Y59722D01*
X22347Y59352D01*
X21808Y58892D01*
X21348Y58353D01*
X20978Y57749D01*
X20707Y57095D01*
X20542Y56406D01*
X20486Y55700D01*
X20542Y54994D01*
X20707Y54305D01*
X20978Y53651D01*
X21348Y53047D01*
X21808Y52508D01*
X22347Y52048D01*
X22951Y51678D01*
X23605Y51407D01*
X24294Y51242D01*
X24993Y51187D01*
Y50213D01*
X24294Y50158D01*
X23605Y49993D01*
X22951Y49722D01*
X22347Y49352D01*
X21808Y48892D01*
X21348Y48353D01*
X20978Y47749D01*
X20707Y47095D01*
X20542Y46406D01*
X20486Y45700D01*
X20542Y44994D01*
X20707Y44305D01*
X20978Y43651D01*
X21348Y43047D01*
X21808Y42508D01*
X22347Y42048D01*
X22951Y41678D01*
X23605Y41407D01*
X24294Y41242D01*
X24993Y41187D01*
Y40193D01*
X21765Y40186D01*
X21535Y40131D01*
X21317Y40041D01*
X21116Y39917D01*
X20936Y39764D01*
X20783Y39584D01*
X20659Y39383D01*
X20569Y39165D01*
X20514Y38935D01*
X20500Y38700D01*
X20512Y33333D01*
X18679Y31500D01*
X18613D01*
Y33002D01*
X18652Y33047D01*
X19022Y33651D01*
X19293Y34305D01*
X19458Y34994D01*
X19500Y35700D01*
X19458Y36406D01*
X19293Y37095D01*
X19022Y37749D01*
X18652Y38353D01*
X18613Y38398D01*
Y43002D01*
X18652Y43047D01*
X19022Y43651D01*
X19293Y44305D01*
X19458Y44994D01*
X19500Y45700D01*
X19458Y46406D01*
X19293Y47095D01*
X19022Y47749D01*
X18652Y48353D01*
X18613Y48398D01*
Y53553D01*
X18656Y53560D01*
X18768Y53597D01*
X18873Y53652D01*
X18968Y53722D01*
X19051Y53806D01*
X19119Y53902D01*
X19170Y54008D01*
X19318Y54416D01*
X19422Y54837D01*
X19484Y55267D01*
X19505Y55700D01*
X19484Y56133D01*
X19422Y56563D01*
X19318Y56984D01*
X19175Y57394D01*
X19122Y57500D01*
X19053Y57596D01*
X18970Y57681D01*
X18875Y57751D01*
X18769Y57806D01*
X18657Y57843D01*
X18613Y57851D01*
Y108000D01*
G37*
G36*
Y38398D02*X18192Y38892D01*
X17653Y39352D01*
X17049Y39722D01*
X16998Y39743D01*
Y41657D01*
X17049Y41678D01*
X17653Y42048D01*
X18192Y42508D01*
X18613Y43002D01*
Y38398D01*
G37*
G36*
Y31500D02*X16998D01*
Y31657D01*
X17049Y31678D01*
X17653Y32048D01*
X18192Y32508D01*
X18613Y33002D01*
Y31500D01*
G37*
G36*
X16998Y108000D02*X18613D01*
Y57851D01*
X18540Y57863D01*
X18421Y57864D01*
X18304Y57846D01*
X18191Y57810D01*
X18085Y57757D01*
X17988Y57688D01*
X17904Y57605D01*
X17833Y57509D01*
X17779Y57404D01*
X17741Y57292D01*
X17722Y57175D01*
X17721Y57056D01*
X17739Y56939D01*
X17777Y56826D01*
X17876Y56555D01*
X17944Y56275D01*
X17986Y55989D01*
X18000Y55700D01*
X17986Y55411D01*
X17944Y55125D01*
X17876Y54845D01*
X17780Y54572D01*
X17742Y54461D01*
X17725Y54344D01*
X17725Y54226D01*
X17745Y54109D01*
X17782Y53997D01*
X17836Y53893D01*
X17906Y53798D01*
X17991Y53715D01*
X18087Y53646D01*
X18192Y53593D01*
X18305Y53557D01*
X18421Y53540D01*
X18539Y53541D01*
X18613Y53553D01*
Y48398D01*
X18192Y48892D01*
X17653Y49352D01*
X17049Y49722D01*
X16998Y49743D01*
Y51753D01*
X17051Y51825D01*
X17106Y51931D01*
X17143Y52043D01*
X17163Y52160D01*
X17164Y52279D01*
X17146Y52396D01*
X17110Y52509D01*
X17057Y52615D01*
X16998Y52698D01*
Y58708D01*
X17054Y58787D01*
X17107Y58892D01*
X17143Y59005D01*
X17160Y59121D01*
X17159Y59239D01*
X17140Y59356D01*
X17103Y59468D01*
X17048Y59573D01*
X16998Y59641D01*
Y108000D01*
G37*
G36*
Y31500D02*X16619D01*
X16998Y31657D01*
Y31500D01*
G37*
G36*
X11387Y9647D02*X12198Y8698D01*
X13514Y7573D01*
X14991Y6669D01*
X16590Y6006D01*
X16998Y5908D01*
Y2000D01*
X11387D01*
Y9647D01*
G37*
G36*
Y28500D02*X16998D01*
Y27092D01*
X16590Y26994D01*
X14991Y26331D01*
X13514Y25427D01*
X12198Y24302D01*
X11387Y23353D01*
Y28500D01*
G37*
G36*
Y33002D02*X11808Y32508D01*
X12347Y32048D01*
X12951Y31678D01*
X13381Y31500D01*
X11387D01*
Y33002D01*
G37*
G36*
Y43002D02*X11808Y42508D01*
X12347Y42048D01*
X12951Y41678D01*
X13605Y41407D01*
X14294Y41242D01*
X15000Y41186D01*
X15706Y41242D01*
X16395Y41407D01*
X16998Y41657D01*
Y39743D01*
X16395Y39993D01*
X15706Y40158D01*
X15000Y40214D01*
X14294Y40158D01*
X13605Y39993D01*
X12951Y39722D01*
X12347Y39352D01*
X11808Y38892D01*
X11387Y38398D01*
Y43002D01*
G37*
G36*
Y108000D02*X16998D01*
Y59641D01*
X16978Y59668D01*
X16894Y59751D01*
X16798Y59819D01*
X16692Y59870D01*
X16284Y60018D01*
X15863Y60122D01*
X15433Y60184D01*
X15000Y60205D01*
X14567Y60184D01*
X14137Y60122D01*
X13716Y60018D01*
X13306Y59875D01*
X13200Y59822D01*
X13104Y59753D01*
X13019Y59670D01*
X12949Y59575D01*
X12894Y59469D01*
X12857Y59357D01*
X12837Y59240D01*
X12836Y59121D01*
X12854Y59004D01*
X12890Y58891D01*
X12943Y58785D01*
X13012Y58688D01*
X13095Y58604D01*
X13191Y58533D01*
X13296Y58479D01*
X13408Y58441D01*
X13525Y58422D01*
X13644Y58421D01*
X13761Y58439D01*
X13874Y58477D01*
X14145Y58576D01*
X14425Y58644D01*
X14711Y58686D01*
X15000Y58700D01*
X15289Y58686D01*
X15575Y58644D01*
X15855Y58576D01*
X16128Y58480D01*
X16239Y58442D01*
X16356Y58425D01*
X16474Y58425D01*
X16591Y58445D01*
X16703Y58482D01*
X16807Y58536D01*
X16902Y58606D01*
X16985Y58691D01*
X16998Y58708D01*
Y52698D01*
X16988Y52712D01*
X16905Y52796D01*
X16809Y52867D01*
X16704Y52921D01*
X16592Y52959D01*
X16475Y52978D01*
X16356Y52979D01*
X16239Y52961D01*
X16126Y52923D01*
X15855Y52824D01*
X15575Y52756D01*
X15289Y52714D01*
X15000Y52700D01*
X14711Y52714D01*
X14425Y52756D01*
X14145Y52824D01*
X13872Y52920D01*
X13761Y52958D01*
X13644Y52975D01*
X13526Y52975D01*
X13409Y52955D01*
X13297Y52918D01*
X13193Y52864D01*
X13098Y52794D01*
X13015Y52709D01*
X12946Y52613D01*
X12893Y52508D01*
X12857Y52395D01*
X12840Y52279D01*
X12841Y52161D01*
X12860Y52044D01*
X12897Y51932D01*
X12952Y51827D01*
X13022Y51732D01*
X13106Y51649D01*
X13202Y51581D01*
X13308Y51530D01*
X13716Y51382D01*
X14137Y51278D01*
X14567Y51216D01*
X15000Y51195D01*
X15433Y51216D01*
X15863Y51278D01*
X16284Y51382D01*
X16694Y51525D01*
X16800Y51578D01*
X16896Y51647D01*
X16981Y51730D01*
X16998Y51753D01*
Y49743D01*
X16395Y49993D01*
X15706Y50158D01*
X15000Y50214D01*
X14294Y50158D01*
X13605Y49993D01*
X12951Y49722D01*
X12347Y49352D01*
X11808Y48892D01*
X11387Y48398D01*
Y53549D01*
X11460Y53537D01*
X11579Y53536D01*
X11696Y53554D01*
X11809Y53590D01*
X11915Y53643D01*
X12012Y53712D01*
X12096Y53795D01*
X12167Y53891D01*
X12221Y53996D01*
X12259Y54108D01*
X12278Y54225D01*
X12279Y54344D01*
X12261Y54461D01*
X12223Y54574D01*
X12124Y54845D01*
X12056Y55125D01*
X12014Y55411D01*
X12000Y55700D01*
X12014Y55989D01*
X12056Y56275D01*
X12124Y56555D01*
X12220Y56828D01*
X12258Y56939D01*
X12275Y57056D01*
X12275Y57174D01*
X12255Y57291D01*
X12218Y57403D01*
X12164Y57507D01*
X12094Y57602D01*
X12009Y57685D01*
X11913Y57754D01*
X11808Y57807D01*
X11695Y57843D01*
X11579Y57860D01*
X11461Y57859D01*
X11387Y57847D01*
Y78212D01*
X11652Y78191D01*
X12091Y78226D01*
X12520Y78329D01*
X12927Y78497D01*
X13303Y78728D01*
X13638Y79014D01*
X13924Y79349D01*
X14155Y79725D01*
X14323Y80132D01*
X14426Y80561D01*
X14452Y81000D01*
X14426Y81439D01*
X14323Y81868D01*
X14155Y82275D01*
X13924Y82651D01*
X13638Y82986D01*
X13303Y83272D01*
X12927Y83503D01*
X12520Y83671D01*
X12091Y83774D01*
X11652Y83809D01*
X11387Y83788D01*
Y108000D01*
G37*
G36*
Y48398D02*X11348Y48353D01*
X10978Y47749D01*
X10707Y47095D01*
X10542Y46406D01*
X10486Y45700D01*
X10542Y44994D01*
X10707Y44305D01*
X10978Y43651D01*
X11348Y43047D01*
X11387Y43002D01*
Y38398D01*
X11348Y38353D01*
X10978Y37749D01*
X10707Y37095D01*
X10542Y36406D01*
X10486Y35700D01*
X10542Y34994D01*
X10707Y34305D01*
X10978Y33651D01*
X11348Y33047D01*
X11387Y33002D01*
Y31500D01*
X8621D01*
X7500Y32621D01*
Y74727D01*
X11041Y78267D01*
X11213Y78226D01*
X11387Y78212D01*
Y57847D01*
X11344Y57840D01*
X11232Y57803D01*
X11127Y57748D01*
X11032Y57678D01*
X10949Y57594D01*
X10881Y57498D01*
X10830Y57392D01*
X10682Y56984D01*
X10578Y56563D01*
X10516Y56133D01*
X10495Y55700D01*
X10516Y55267D01*
X10578Y54837D01*
X10682Y54416D01*
X10825Y54006D01*
X10878Y53900D01*
X10947Y53804D01*
X11030Y53719D01*
X11125Y53649D01*
X11231Y53594D01*
X11343Y53557D01*
X11387Y53549D01*
Y48398D01*
G37*
G36*
X2000Y108000D02*X11387D01*
Y83788D01*
X11213Y83774D01*
X10784Y83671D01*
X10377Y83503D01*
X10001Y83272D01*
X9666Y82986D01*
X9380Y82651D01*
X9149Y82275D01*
X8981Y81868D01*
X8878Y81439D01*
X8843Y81000D01*
X8878Y80561D01*
X8919Y80389D01*
X4981Y76450D01*
X4936Y76412D01*
X4783Y76232D01*
X4659Y76031D01*
X4569Y75813D01*
X4514Y75583D01*
X4514Y75583D01*
X4495Y75348D01*
X4500Y75289D01*
Y32059D01*
X4495Y32000D01*
X4514Y31765D01*
X4569Y31535D01*
X4659Y31317D01*
X4783Y31116D01*
X4936Y30936D01*
X4981Y30898D01*
X6898Y28981D01*
X6936Y28936D01*
X7115Y28783D01*
X7116Y28783D01*
X7317Y28659D01*
X7535Y28569D01*
X7765Y28514D01*
X8000Y28495D01*
X8059Y28500D01*
X11387D01*
Y23353D01*
X11073Y22986D01*
X10169Y21509D01*
X9506Y19910D01*
X9102Y18226D01*
X8966Y16500D01*
X9102Y14774D01*
X9506Y13090D01*
X10169Y11491D01*
X11073Y10014D01*
X11387Y9647D01*
Y2000D01*
X2000D01*
Y108000D01*
G37*
G36*
X192993Y28696D02*X193171Y28266D01*
X193846Y27165D01*
X194684Y26184D01*
X195665Y25346D01*
X196766Y24671D01*
X197958Y24177D01*
X199213Y23876D01*
X200500Y23775D01*
X201787Y23876D01*
X203042Y24177D01*
X204234Y24671D01*
X205335Y25346D01*
X206316Y26184D01*
X207154Y27165D01*
X207829Y28266D01*
X208000Y28679D01*
Y2000D01*
X192993D01*
Y28696D01*
G37*
G36*
Y108000D02*X208000D01*
Y35321D01*
X207829Y35734D01*
X207154Y36835D01*
X206316Y37816D01*
X205335Y38654D01*
X204234Y39329D01*
X203042Y39823D01*
X201787Y40124D01*
X200500Y40225D01*
X199213Y40124D01*
X197958Y39823D01*
X196766Y39329D01*
X195665Y38654D01*
X194684Y37816D01*
X193846Y36835D01*
X193171Y35734D01*
X192993Y35304D01*
Y52487D01*
X193000Y52486D01*
X193706Y52542D01*
X194395Y52707D01*
X195049Y52978D01*
X195653Y53348D01*
X196192Y53808D01*
X196652Y54347D01*
X197022Y54951D01*
X197293Y55605D01*
X197458Y56294D01*
X197500Y57000D01*
X197458Y57706D01*
X197293Y58395D01*
X197022Y59049D01*
X196652Y59653D01*
X196192Y60192D01*
X195653Y60652D01*
X195049Y61022D01*
X194395Y61293D01*
X193706Y61458D01*
X193000Y61514D01*
X192993Y61513D01*
Y108000D01*
G37*
G36*
X187993D02*X192993D01*
Y61513D01*
X192294Y61458D01*
X191605Y61293D01*
X190951Y61022D01*
X190347Y60652D01*
X189808Y60192D01*
X189348Y59653D01*
X188978Y59049D01*
X188707Y58395D01*
X188542Y57706D01*
X188486Y57000D01*
X188542Y56294D01*
X188707Y55605D01*
X188978Y54951D01*
X189348Y54347D01*
X189808Y53808D01*
X190347Y53348D01*
X190951Y52978D01*
X191605Y52707D01*
X192294Y52542D01*
X192993Y52487D01*
Y35304D01*
X192677Y34542D01*
X192376Y33287D01*
X192275Y32000D01*
X192376Y30713D01*
X192677Y29458D01*
X192993Y28696D01*
Y2000D01*
X187993D01*
Y62487D01*
X188000Y62486D01*
X188706Y62542D01*
X189395Y62707D01*
X190049Y62978D01*
X190653Y63348D01*
X191192Y63808D01*
X191652Y64347D01*
X192022Y64951D01*
X192293Y65605D01*
X192458Y66294D01*
X192500Y67000D01*
X192458Y67706D01*
X192293Y68395D01*
X192022Y69049D01*
X191652Y69653D01*
X191192Y70192D01*
X190653Y70652D01*
X190049Y71022D01*
X189395Y71293D01*
X188706Y71458D01*
X188000Y71514D01*
X187993Y71513D01*
Y108000D01*
G37*
G36*
X181720D02*X187993D01*
Y71513D01*
X187294Y71458D01*
X186605Y71293D01*
X185951Y71022D01*
X185347Y70652D01*
X184808Y70192D01*
X184348Y69653D01*
X183978Y69049D01*
X183707Y68395D01*
X183542Y67706D01*
X183486Y67000D01*
X183542Y66294D01*
X183707Y65605D01*
X183978Y64951D01*
X184348Y64347D01*
X184808Y63808D01*
X185347Y63348D01*
X185951Y62978D01*
X186605Y62707D01*
X187294Y62542D01*
X187993Y62487D01*
Y2000D01*
X181720D01*
Y52679D01*
X182294Y52542D01*
X183000Y52486D01*
X183706Y52542D01*
X184395Y52707D01*
X185049Y52978D01*
X185653Y53348D01*
X186192Y53808D01*
X186652Y54347D01*
X187022Y54951D01*
X187293Y55605D01*
X187458Y56294D01*
X187500Y57000D01*
X187458Y57706D01*
X187293Y58395D01*
X187022Y59049D01*
X186652Y59653D01*
X186192Y60192D01*
X185653Y60652D01*
X185049Y61022D01*
X184395Y61293D01*
X183706Y61458D01*
X183000Y61514D01*
X182294Y61458D01*
X181720Y61321D01*
Y64544D01*
X181771Y64583D01*
X181826Y64639D01*
X181870Y64704D01*
X182064Y65056D01*
X182221Y65426D01*
X182344Y65809D01*
X182433Y66200D01*
X182487Y66599D01*
X182504Y67000D01*
X182487Y67401D01*
X182433Y67800D01*
X182344Y68191D01*
X182221Y68574D01*
X182064Y68944D01*
X181874Y69298D01*
X181829Y69363D01*
X181774Y69420D01*
X181720Y69460D01*
Y108000D01*
G37*
G36*
X178002D02*X181720D01*
Y69460D01*
X181710Y69468D01*
X181640Y69504D01*
X181565Y69530D01*
X181487Y69544D01*
X181408Y69545D01*
X181329Y69533D01*
X181254Y69510D01*
X181183Y69475D01*
X181118Y69429D01*
X181061Y69374D01*
X181013Y69311D01*
X180976Y69241D01*
X180951Y69166D01*
X180937Y69088D01*
X180936Y69008D01*
X180948Y68930D01*
X180971Y68854D01*
X181007Y68784D01*
X181157Y68510D01*
X181279Y68223D01*
X181375Y67926D01*
X181444Y67621D01*
X181486Y67312D01*
X181500Y67000D01*
X181486Y66688D01*
X181444Y66379D01*
X181375Y66074D01*
X181279Y65777D01*
X181157Y65490D01*
X181010Y65214D01*
X180974Y65145D01*
X180951Y65069D01*
X180940Y64991D01*
X180941Y64913D01*
X180954Y64835D01*
X180980Y64761D01*
X181016Y64691D01*
X181064Y64628D01*
X181120Y64573D01*
X181184Y64528D01*
X181255Y64493D01*
X181330Y64470D01*
X181408Y64459D01*
X181487Y64460D01*
X181564Y64473D01*
X181639Y64499D01*
X181708Y64535D01*
X181720Y64544D01*
Y61321D01*
X181605Y61293D01*
X180951Y61022D01*
X180347Y60652D01*
X179808Y60192D01*
X179348Y59653D01*
X178978Y59049D01*
X178707Y58395D01*
X178542Y57706D01*
X178486Y57000D01*
X178542Y56294D01*
X178707Y55605D01*
X178978Y54951D01*
X179348Y54347D01*
X179808Y53808D01*
X180347Y53348D01*
X180951Y52978D01*
X181605Y52707D01*
X181720Y52679D01*
Y2000D01*
X178002D01*
Y62496D01*
X178401Y62513D01*
X178800Y62567D01*
X179191Y62656D01*
X179574Y62779D01*
X179944Y62936D01*
X180298Y63126D01*
X180363Y63171D01*
X180420Y63226D01*
X180468Y63290D01*
X180504Y63360D01*
X180530Y63435D01*
X180544Y63513D01*
X180545Y63592D01*
X180533Y63671D01*
X180510Y63746D01*
X180475Y63817D01*
X180429Y63882D01*
X180374Y63939D01*
X180311Y63987D01*
X180241Y64024D01*
X180166Y64049D01*
X180088Y64063D01*
X180008Y64064D01*
X179930Y64052D01*
X179854Y64029D01*
X179784Y63993D01*
X179510Y63843D01*
X179223Y63721D01*
X178926Y63625D01*
X178621Y63556D01*
X178312Y63514D01*
X178002Y63500D01*
Y70500D01*
X178312Y70486D01*
X178621Y70444D01*
X178926Y70375D01*
X179223Y70279D01*
X179510Y70157D01*
X179786Y70010D01*
X179855Y69974D01*
X179931Y69951D01*
X180009Y69940D01*
X180087Y69941D01*
X180165Y69954D01*
X180239Y69980D01*
X180309Y70016D01*
X180372Y70064D01*
X180427Y70120D01*
X180472Y70184D01*
X180507Y70255D01*
X180530Y70330D01*
X180541Y70408D01*
X180540Y70487D01*
X180527Y70564D01*
X180501Y70639D01*
X180465Y70708D01*
X180417Y70771D01*
X180361Y70826D01*
X180296Y70870D01*
X179944Y71064D01*
X179574Y71221D01*
X179191Y71344D01*
X178800Y71433D01*
X178401Y71487D01*
X178002Y71504D01*
Y108000D01*
G37*
G36*
Y2000D02*X172993D01*
Y52487D01*
X173000Y52486D01*
X173706Y52542D01*
X174395Y52707D01*
X175049Y52978D01*
X175653Y53348D01*
X176192Y53808D01*
X176652Y54347D01*
X177022Y54951D01*
X177293Y55605D01*
X177458Y56294D01*
X177500Y57000D01*
X177458Y57706D01*
X177293Y58395D01*
X177022Y59049D01*
X176652Y59653D01*
X176192Y60192D01*
X175653Y60652D01*
X175049Y61022D01*
X174395Y61293D01*
X173706Y61458D01*
X173000Y61514D01*
X172993Y61513D01*
Y68289D01*
X173000Y68289D01*
X173581Y68334D01*
X173712Y68366D01*
X173656Y68191D01*
X173567Y67800D01*
X173513Y67401D01*
X173496Y67000D01*
X173513Y66599D01*
X173567Y66200D01*
X173656Y65809D01*
X173779Y65426D01*
X173936Y65056D01*
X174126Y64702D01*
X174171Y64637D01*
X174226Y64580D01*
X174290Y64532D01*
X174360Y64496D01*
X174435Y64470D01*
X174513Y64456D01*
X174592Y64455D01*
X174671Y64467D01*
X174746Y64490D01*
X174817Y64525D01*
X174882Y64571D01*
X174939Y64626D01*
X174987Y64689D01*
X175024Y64759D01*
X175049Y64834D01*
X175063Y64912D01*
X175064Y64992D01*
X175052Y65070D01*
X175029Y65146D01*
X174993Y65216D01*
X174843Y65490D01*
X174721Y65777D01*
X174625Y66074D01*
X174556Y66379D01*
X174514Y66688D01*
X174500Y67000D01*
X174514Y67312D01*
X174556Y67621D01*
X174625Y67926D01*
X174721Y68223D01*
X174843Y68510D01*
X174990Y68786D01*
X175026Y68855D01*
X175044Y68913D01*
X175182Y68997D01*
X175624Y69376D01*
X176003Y69818D01*
X176084Y69952D01*
X176146Y69971D01*
X176216Y70007D01*
X176490Y70157D01*
X176777Y70279D01*
X177074Y70375D01*
X177379Y70444D01*
X177688Y70486D01*
X178000Y70500D01*
X178002Y70500D01*
Y63500D01*
X178000Y63500D01*
X177688Y63514D01*
X177379Y63556D01*
X177074Y63625D01*
X176777Y63721D01*
X176490Y63843D01*
X176214Y63990D01*
X176145Y64026D01*
X176069Y64049D01*
X175991Y64060D01*
X175913Y64059D01*
X175835Y64046D01*
X175761Y64020D01*
X175691Y63984D01*
X175628Y63936D01*
X175573Y63880D01*
X175528Y63816D01*
X175493Y63745D01*
X175470Y63670D01*
X175459Y63592D01*
X175460Y63513D01*
X175473Y63436D01*
X175499Y63361D01*
X175535Y63292D01*
X175583Y63229D01*
X175639Y63174D01*
X175704Y63130D01*
X176056Y62936D01*
X176426Y62779D01*
X176809Y62656D01*
X177200Y62567D01*
X177599Y62513D01*
X178000Y62496D01*
X178002Y62496D01*
Y2000D01*
G37*
G36*
X172993D02*X163616D01*
Y24415D01*
X164234Y24671D01*
X165335Y25346D01*
X166316Y26184D01*
X167154Y27165D01*
X167829Y28266D01*
X168323Y29458D01*
X168624Y30713D01*
X168700Y32000D01*
X168624Y33287D01*
X168323Y34542D01*
X167829Y35734D01*
X167154Y36835D01*
X166316Y37816D01*
X165335Y38654D01*
X164234Y39329D01*
X163616Y39585D01*
Y65500D01*
X163751D01*
X163978Y64951D01*
X164348Y64347D01*
X164808Y63808D01*
X165347Y63348D01*
X165951Y62978D01*
X166605Y62707D01*
X167294Y62542D01*
X168000Y62486D01*
X168706Y62542D01*
X169395Y62707D01*
X170049Y62978D01*
X170653Y63348D01*
X171192Y63808D01*
X171652Y64347D01*
X172022Y64951D01*
X172293Y65605D01*
X172458Y66294D01*
X172500Y67000D01*
X172458Y67706D01*
X172301Y68363D01*
X172419Y68334D01*
X172993Y68289D01*
Y61513D01*
X172294Y61458D01*
X171605Y61293D01*
X170951Y61022D01*
X170347Y60652D01*
X169808Y60192D01*
X169348Y59653D01*
X168978Y59049D01*
X168707Y58395D01*
X168542Y57706D01*
X168486Y57000D01*
X168542Y56294D01*
X168707Y55605D01*
X168978Y54951D01*
X169348Y54347D01*
X169808Y53808D01*
X170347Y53348D01*
X170951Y52978D01*
X171605Y52707D01*
X172294Y52542D01*
X172993Y52487D01*
Y2000D01*
G37*
G36*
X163616Y108000D02*X178002D01*
Y71504D01*
X178000Y71504D01*
X177599Y71487D01*
X177200Y71433D01*
X176809Y71344D01*
X176634Y71288D01*
X176666Y71419D01*
X176700Y72000D01*
X176666Y72581D01*
X176530Y73147D01*
X176307Y73685D01*
X176003Y74182D01*
X175624Y74624D01*
X175182Y75003D01*
X174685Y75307D01*
X174147Y75530D01*
X173581Y75666D01*
X173000Y75711D01*
X172419Y75666D01*
X171853Y75530D01*
X171315Y75307D01*
X170818Y75003D01*
X170376Y74624D01*
X169997Y74182D01*
X169693Y73685D01*
X169616Y73500D01*
X163616D01*
Y108000D01*
G37*
G36*
X134993D02*X163616D01*
Y73500D01*
X151865D01*
X151772Y73651D01*
X151486Y73986D01*
X151151Y74272D01*
X150775Y74503D01*
X150368Y74671D01*
X149939Y74774D01*
X149500Y74809D01*
X149061Y74774D01*
X148632Y74671D01*
X148225Y74503D01*
X147849Y74272D01*
X147514Y73986D01*
X147228Y73651D01*
X146997Y73275D01*
X146829Y72868D01*
X146726Y72439D01*
X146691Y72000D01*
X146726Y71561D01*
X146829Y71132D01*
X146997Y70725D01*
X147228Y70349D01*
X147514Y70014D01*
X147849Y69728D01*
X148225Y69497D01*
X148632Y69329D01*
X149061Y69226D01*
X149500Y69191D01*
X149939Y69226D01*
X150368Y69329D01*
X150775Y69497D01*
X151151Y69728D01*
X151486Y70014D01*
X151772Y70349D01*
X151865Y70500D01*
X153556D01*
X153142Y70246D01*
X152663Y69837D01*
X152254Y69358D01*
X151925Y68822D01*
X151684Y68240D01*
X151537Y67628D01*
X151488Y67000D01*
X151500Y66837D01*
X151509Y63843D01*
X151546Y63690D01*
X151583Y63600D01*
X151546Y63510D01*
X151509Y63357D01*
X151500Y63200D01*
X151508Y60459D01*
X151488Y60200D01*
X151537Y59572D01*
X151684Y58960D01*
X151925Y58378D01*
X152254Y57842D01*
X152663Y57363D01*
X153142Y56954D01*
X153678Y56625D01*
X154260Y56384D01*
X154872Y56237D01*
X155500Y56188D01*
X156128Y56237D01*
X156740Y56384D01*
X157322Y56625D01*
X157858Y56954D01*
X158337Y57363D01*
X158746Y57842D01*
X159075Y58378D01*
X159316Y58960D01*
X159463Y59572D01*
X159491Y60043D01*
X159491Y60043D01*
X159500Y60200D01*
X159491Y63357D01*
X159454Y63510D01*
X159417Y63600D01*
X159454Y63690D01*
X159491Y63843D01*
X159500Y64000D01*
X159496Y65500D01*
X163616D01*
Y39585D01*
X163042Y39823D01*
X161787Y40124D01*
X160500Y40225D01*
X159213Y40124D01*
X157958Y39823D01*
X156766Y39329D01*
X155665Y38654D01*
X154684Y37816D01*
X153846Y36835D01*
X153171Y35734D01*
X152677Y34542D01*
X152376Y33287D01*
X152275Y32000D01*
X152376Y30713D01*
X152677Y29458D01*
X153171Y28266D01*
X153846Y27165D01*
X154684Y26184D01*
X155665Y25346D01*
X156766Y24671D01*
X157958Y24177D01*
X159213Y23876D01*
X160500Y23775D01*
X161787Y23876D01*
X163042Y24177D01*
X163616Y24415D01*
Y2000D01*
X134993D01*
Y6662D01*
X135009Y6669D01*
X136486Y7573D01*
X137802Y8698D01*
X138927Y10014D01*
X139831Y11491D01*
X140494Y13090D01*
X140898Y14774D01*
X141000Y16500D01*
X140898Y18226D01*
X140494Y19910D01*
X139831Y21509D01*
X138927Y22986D01*
X137802Y24302D01*
X136486Y25427D01*
X135009Y26331D01*
X134993Y26338D01*
Y31207D01*
X138235Y31214D01*
X138465Y31269D01*
X138683Y31359D01*
X138884Y31483D01*
X139064Y31636D01*
X139217Y31816D01*
X139341Y32017D01*
X139431Y32235D01*
X139486Y32465D01*
X139500Y32700D01*
X139486Y38935D01*
X139431Y39165D01*
X139341Y39383D01*
X139217Y39584D01*
X139064Y39764D01*
X138884Y39917D01*
X138683Y40041D01*
X138465Y40131D01*
X138235Y40186D01*
X138000Y40200D01*
X134993Y40193D01*
Y41187D01*
X135000Y41186D01*
X135706Y41242D01*
X136395Y41407D01*
X137049Y41678D01*
X137653Y42048D01*
X138192Y42508D01*
X138652Y43047D01*
X139022Y43651D01*
X139293Y44305D01*
X139458Y44994D01*
X139500Y45700D01*
X139458Y46406D01*
X139293Y47095D01*
X139022Y47749D01*
X138652Y48353D01*
X138192Y48892D01*
X137653Y49352D01*
X137049Y49722D01*
X136395Y49993D01*
X135706Y50158D01*
X135000Y50214D01*
X134993Y50213D01*
Y51187D01*
X135000Y51186D01*
X135706Y51242D01*
X136395Y51407D01*
X137049Y51678D01*
X137653Y52048D01*
X138192Y52508D01*
X138652Y53047D01*
X139022Y53651D01*
X139293Y54305D01*
X139458Y54994D01*
X139500Y55700D01*
X139458Y56406D01*
X139293Y57095D01*
X139022Y57749D01*
X138652Y58353D01*
X138192Y58892D01*
X137653Y59352D01*
X137049Y59722D01*
X136395Y59993D01*
X135706Y60158D01*
X135000Y60214D01*
X134993Y60213D01*
Y108000D01*
G37*
G36*
Y26338D02*X133410Y26994D01*
X131726Y27398D01*
X130000Y27534D01*
X128274Y27398D01*
X126998Y27092D01*
Y28500D01*
X129241D01*
X129300Y28495D01*
X129535Y28514D01*
X129535Y28514D01*
X129765Y28569D01*
X129983Y28659D01*
X130184Y28783D01*
X130364Y28936D01*
X130402Y28981D01*
X132623Y31201D01*
X134993Y31207D01*
Y26338D01*
G37*
G36*
Y2000D02*X126998D01*
Y5908D01*
X128274Y5602D01*
X130000Y5466D01*
X131726Y5602D01*
X133410Y6006D01*
X134993Y6662D01*
Y2000D01*
G37*
G36*
X128613Y108000D02*X134993D01*
Y60213D01*
X134294Y60158D01*
X133605Y59993D01*
X132951Y59722D01*
X132347Y59352D01*
X131808Y58892D01*
X131348Y58353D01*
X130978Y57749D01*
X130707Y57095D01*
X130542Y56406D01*
X130486Y55700D01*
X130542Y54994D01*
X130707Y54305D01*
X130978Y53651D01*
X131348Y53047D01*
X131808Y52508D01*
X132347Y52048D01*
X132951Y51678D01*
X133605Y51407D01*
X134294Y51242D01*
X134993Y51187D01*
Y50213D01*
X134294Y50158D01*
X133605Y49993D01*
X132951Y49722D01*
X132347Y49352D01*
X131808Y48892D01*
X131348Y48353D01*
X130978Y47749D01*
X130707Y47095D01*
X130542Y46406D01*
X130486Y45700D01*
X130542Y44994D01*
X130707Y44305D01*
X130978Y43651D01*
X131348Y43047D01*
X131808Y42508D01*
X132347Y42048D01*
X132951Y41678D01*
X133605Y41407D01*
X134294Y41242D01*
X134993Y41187D01*
Y40193D01*
X131765Y40186D01*
X131535Y40131D01*
X131317Y40041D01*
X131116Y39917D01*
X130936Y39764D01*
X130783Y39584D01*
X130659Y39383D01*
X130569Y39165D01*
X130514Y38935D01*
X130500Y38700D01*
X130512Y33333D01*
X128679Y31500D01*
X128613D01*
Y33002D01*
X128652Y33047D01*
X129022Y33651D01*
X129293Y34305D01*
X129458Y34994D01*
X129500Y35700D01*
X129458Y36406D01*
X129293Y37095D01*
X129022Y37749D01*
X128652Y38353D01*
X128613Y38398D01*
Y43002D01*
X128652Y43047D01*
X129022Y43651D01*
X129293Y44305D01*
X129458Y44994D01*
X129500Y45700D01*
X129458Y46406D01*
X129293Y47095D01*
X129022Y47749D01*
X128652Y48353D01*
X128613Y48398D01*
Y53553D01*
X128656Y53560D01*
X128768Y53597D01*
X128873Y53652D01*
X128968Y53722D01*
X129051Y53806D01*
X129119Y53902D01*
X129170Y54008D01*
X129318Y54416D01*
X129422Y54837D01*
X129484Y55267D01*
X129505Y55700D01*
X129484Y56133D01*
X129422Y56563D01*
X129318Y56984D01*
X129175Y57394D01*
X129122Y57500D01*
X129053Y57596D01*
X128970Y57681D01*
X128875Y57751D01*
X128769Y57806D01*
X128657Y57843D01*
X128613Y57851D01*
Y108000D01*
G37*
G36*
Y38398D02*X128192Y38892D01*
X127653Y39352D01*
X127049Y39722D01*
X126998Y39743D01*
Y41657D01*
X127049Y41678D01*
X127653Y42048D01*
X128192Y42508D01*
X128613Y43002D01*
Y38398D01*
G37*
G36*
Y31500D02*X126998D01*
Y31657D01*
X127049Y31678D01*
X127653Y32048D01*
X128192Y32508D01*
X128613Y33002D01*
Y31500D01*
G37*
G36*
X126998Y108000D02*X128613D01*
Y57851D01*
X128540Y57863D01*
X128421Y57864D01*
X128304Y57846D01*
X128191Y57810D01*
X128085Y57757D01*
X127988Y57688D01*
X127904Y57605D01*
X127833Y57509D01*
X127779Y57404D01*
X127741Y57292D01*
X127722Y57175D01*
X127721Y57056D01*
X127739Y56939D01*
X127777Y56826D01*
X127876Y56555D01*
X127944Y56275D01*
X127986Y55989D01*
X128000Y55700D01*
X127986Y55411D01*
X127944Y55125D01*
X127876Y54845D01*
X127780Y54572D01*
X127742Y54461D01*
X127725Y54344D01*
X127725Y54226D01*
X127745Y54109D01*
X127782Y53997D01*
X127836Y53893D01*
X127906Y53798D01*
X127991Y53715D01*
X128087Y53646D01*
X128192Y53593D01*
X128305Y53557D01*
X128421Y53540D01*
X128539Y53541D01*
X128613Y53553D01*
Y48398D01*
X128192Y48892D01*
X127653Y49352D01*
X127049Y49722D01*
X126998Y49743D01*
Y51753D01*
X127051Y51825D01*
X127106Y51931D01*
X127143Y52043D01*
X127163Y52160D01*
X127164Y52279D01*
X127146Y52396D01*
X127110Y52509D01*
X127057Y52615D01*
X126998Y52698D01*
Y58708D01*
X127054Y58787D01*
X127107Y58892D01*
X127143Y59005D01*
X127160Y59121D01*
X127159Y59239D01*
X127140Y59356D01*
X127103Y59468D01*
X127048Y59573D01*
X126998Y59641D01*
Y108000D01*
G37*
G36*
Y31500D02*X126619D01*
X126998Y31657D01*
Y31500D01*
G37*
G36*
X121387Y9647D02*X122198Y8698D01*
X123514Y7573D01*
X124991Y6669D01*
X126590Y6006D01*
X126998Y5908D01*
Y2000D01*
X121387D01*
Y9647D01*
G37*
G36*
Y28500D02*X126998D01*
Y27092D01*
X126590Y26994D01*
X124991Y26331D01*
X123514Y25427D01*
X122198Y24302D01*
X121387Y23353D01*
Y28500D01*
G37*
G36*
Y33002D02*X121808Y32508D01*
X122347Y32048D01*
X122951Y31678D01*
X123381Y31500D01*
X121387D01*
Y33002D01*
G37*
G36*
Y43002D02*X121808Y42508D01*
X122347Y42048D01*
X122951Y41678D01*
X123605Y41407D01*
X124294Y41242D01*
X125000Y41186D01*
X125706Y41242D01*
X126395Y41407D01*
X126998Y41657D01*
Y39743D01*
X126395Y39993D01*
X125706Y40158D01*
X125000Y40214D01*
X124294Y40158D01*
X123605Y39993D01*
X122951Y39722D01*
X122347Y39352D01*
X121808Y38892D01*
X121387Y38398D01*
Y43002D01*
G37*
G36*
Y108000D02*X126998D01*
Y59641D01*
X126978Y59668D01*
X126894Y59751D01*
X126798Y59819D01*
X126692Y59870D01*
X126284Y60018D01*
X125863Y60122D01*
X125433Y60184D01*
X125000Y60205D01*
X124567Y60184D01*
X124137Y60122D01*
X123716Y60018D01*
X123306Y59875D01*
X123200Y59822D01*
X123104Y59753D01*
X123019Y59670D01*
X122949Y59575D01*
X122894Y59469D01*
X122857Y59357D01*
X122837Y59240D01*
X122836Y59121D01*
X122854Y59004D01*
X122890Y58891D01*
X122943Y58785D01*
X123012Y58688D01*
X123095Y58604D01*
X123191Y58533D01*
X123296Y58479D01*
X123408Y58441D01*
X123525Y58422D01*
X123644Y58421D01*
X123761Y58439D01*
X123874Y58477D01*
X124145Y58576D01*
X124425Y58644D01*
X124711Y58686D01*
X125000Y58700D01*
X125289Y58686D01*
X125575Y58644D01*
X125855Y58576D01*
X126128Y58480D01*
X126239Y58442D01*
X126356Y58425D01*
X126474Y58425D01*
X126591Y58445D01*
X126703Y58482D01*
X126807Y58536D01*
X126902Y58606D01*
X126985Y58691D01*
X126998Y58708D01*
Y52698D01*
X126988Y52712D01*
X126905Y52796D01*
X126809Y52867D01*
X126704Y52921D01*
X126592Y52959D01*
X126475Y52978D01*
X126356Y52979D01*
X126239Y52961D01*
X126126Y52923D01*
X125855Y52824D01*
X125575Y52756D01*
X125289Y52714D01*
X125000Y52700D01*
X124711Y52714D01*
X124425Y52756D01*
X124145Y52824D01*
X123872Y52920D01*
X123761Y52958D01*
X123644Y52975D01*
X123526Y52975D01*
X123409Y52955D01*
X123297Y52918D01*
X123193Y52864D01*
X123098Y52794D01*
X123015Y52709D01*
X122946Y52613D01*
X122893Y52508D01*
X122857Y52395D01*
X122840Y52279D01*
X122841Y52161D01*
X122860Y52044D01*
X122897Y51932D01*
X122952Y51827D01*
X123022Y51732D01*
X123106Y51649D01*
X123202Y51581D01*
X123308Y51530D01*
X123716Y51382D01*
X124137Y51278D01*
X124567Y51216D01*
X125000Y51195D01*
X125433Y51216D01*
X125863Y51278D01*
X126284Y51382D01*
X126694Y51525D01*
X126800Y51578D01*
X126896Y51647D01*
X126981Y51730D01*
X126998Y51753D01*
Y49743D01*
X126395Y49993D01*
X125706Y50158D01*
X125000Y50214D01*
X124294Y50158D01*
X123605Y49993D01*
X122951Y49722D01*
X122347Y49352D01*
X121808Y48892D01*
X121387Y48398D01*
Y53549D01*
X121460Y53537D01*
X121579Y53536D01*
X121696Y53554D01*
X121809Y53590D01*
X121915Y53643D01*
X122012Y53712D01*
X122096Y53795D01*
X122167Y53891D01*
X122221Y53996D01*
X122259Y54108D01*
X122278Y54225D01*
X122279Y54344D01*
X122261Y54461D01*
X122223Y54574D01*
X122124Y54845D01*
X122056Y55125D01*
X122014Y55411D01*
X122000Y55700D01*
X122014Y55989D01*
X122056Y56275D01*
X122124Y56555D01*
X122220Y56828D01*
X122258Y56939D01*
X122275Y57056D01*
X122275Y57174D01*
X122255Y57291D01*
X122218Y57403D01*
X122164Y57507D01*
X122094Y57602D01*
X122009Y57685D01*
X121913Y57754D01*
X121808Y57807D01*
X121695Y57843D01*
X121579Y57860D01*
X121461Y57859D01*
X121387Y57847D01*
Y78212D01*
X121652Y78191D01*
X122091Y78226D01*
X122520Y78329D01*
X122927Y78497D01*
X123303Y78728D01*
X123638Y79014D01*
X123924Y79349D01*
X124154Y79725D01*
X124323Y80132D01*
X124426Y80561D01*
X124452Y81000D01*
X124426Y81439D01*
X124323Y81868D01*
X124154Y82275D01*
X123924Y82651D01*
X123638Y82986D01*
X123303Y83272D01*
X122927Y83503D01*
X122520Y83671D01*
X122091Y83774D01*
X121652Y83809D01*
X121387Y83788D01*
Y108000D01*
G37*
G36*
Y48398D02*X121348Y48353D01*
X120978Y47749D01*
X120707Y47095D01*
X120542Y46406D01*
X120486Y45700D01*
X120542Y44994D01*
X120707Y44305D01*
X120978Y43651D01*
X121348Y43047D01*
X121387Y43002D01*
Y38398D01*
X121348Y38353D01*
X120978Y37749D01*
X120707Y37095D01*
X120542Y36406D01*
X120486Y35700D01*
X120542Y34994D01*
X120707Y34305D01*
X120978Y33651D01*
X121348Y33047D01*
X121387Y33002D01*
Y31500D01*
X118621D01*
X117500Y32621D01*
Y74727D01*
X121041Y78267D01*
X121213Y78226D01*
X121387Y78212D01*
Y57847D01*
X121344Y57840D01*
X121232Y57803D01*
X121127Y57748D01*
X121032Y57678D01*
X120949Y57594D01*
X120881Y57498D01*
X120830Y57392D01*
X120682Y56984D01*
X120578Y56563D01*
X120516Y56133D01*
X120495Y55700D01*
X120516Y55267D01*
X120578Y54837D01*
X120682Y54416D01*
X120825Y54006D01*
X120878Y53900D01*
X120947Y53804D01*
X121030Y53719D01*
X121125Y53649D01*
X121231Y53594D01*
X121343Y53557D01*
X121387Y53549D01*
Y48398D01*
G37*
G36*
X112000Y108000D02*X121387D01*
Y83788D01*
X121213Y83774D01*
X120784Y83671D01*
X120377Y83503D01*
X120001Y83272D01*
X119666Y82986D01*
X119380Y82651D01*
X119149Y82275D01*
X118981Y81868D01*
X118878Y81439D01*
X118843Y81000D01*
X118878Y80561D01*
X118919Y80389D01*
X114981Y76450D01*
X114936Y76412D01*
X114783Y76232D01*
X114659Y76031D01*
X114569Y75813D01*
X114514Y75583D01*
X114514Y75583D01*
X114495Y75348D01*
X114500Y75289D01*
Y32059D01*
X114495Y32000D01*
X114514Y31765D01*
X114569Y31535D01*
X114659Y31317D01*
X114783Y31116D01*
X114936Y30936D01*
X114981Y30898D01*
X116898Y28981D01*
X116936Y28936D01*
X117115Y28783D01*
X117116Y28783D01*
X117317Y28659D01*
X117535Y28569D01*
X117765Y28514D01*
X118000Y28495D01*
X118059Y28500D01*
X121387D01*
Y23353D01*
X121073Y22986D01*
X120169Y21509D01*
X119506Y19910D01*
X119102Y18226D01*
X118966Y16500D01*
X119102Y14774D01*
X119506Y13090D01*
X120169Y11491D01*
X121073Y10014D01*
X121387Y9647D01*
Y2000D01*
X112000D01*
Y108000D01*
G37*
G36*
X302993Y28696D02*X303171Y28266D01*
X303846Y27165D01*
X304684Y26184D01*
X305665Y25346D01*
X306766Y24671D01*
X307958Y24177D01*
X309213Y23876D01*
X310500Y23775D01*
X311787Y23876D01*
X313042Y24177D01*
X314234Y24671D01*
X315335Y25346D01*
X316316Y26184D01*
X317154Y27165D01*
X317829Y28266D01*
X318000Y28679D01*
Y2000D01*
X302993D01*
Y28696D01*
G37*
G36*
Y108000D02*X318000D01*
Y35321D01*
X317829Y35734D01*
X317154Y36835D01*
X316316Y37816D01*
X315335Y38654D01*
X314234Y39329D01*
X313042Y39823D01*
X311787Y40124D01*
X310500Y40225D01*
X309213Y40124D01*
X307958Y39823D01*
X306766Y39329D01*
X305665Y38654D01*
X304684Y37816D01*
X303846Y36835D01*
X303171Y35734D01*
X302993Y35304D01*
Y52487D01*
X303000Y52486D01*
X303706Y52542D01*
X304395Y52707D01*
X305049Y52978D01*
X305653Y53348D01*
X306192Y53808D01*
X306652Y54347D01*
X307022Y54951D01*
X307293Y55605D01*
X307458Y56294D01*
X307500Y57000D01*
X307458Y57706D01*
X307293Y58395D01*
X307022Y59049D01*
X306652Y59653D01*
X306192Y60192D01*
X305653Y60652D01*
X305049Y61022D01*
X304395Y61293D01*
X303706Y61458D01*
X303000Y61514D01*
X302993Y61513D01*
Y108000D01*
G37*
G36*
X297993D02*X302993D01*
Y61513D01*
X302294Y61458D01*
X301605Y61293D01*
X300951Y61022D01*
X300347Y60652D01*
X299808Y60192D01*
X299348Y59653D01*
X298978Y59049D01*
X298707Y58395D01*
X298542Y57706D01*
X298486Y57000D01*
X298542Y56294D01*
X298707Y55605D01*
X298978Y54951D01*
X299348Y54347D01*
X299808Y53808D01*
X300347Y53348D01*
X300951Y52978D01*
X301605Y52707D01*
X302294Y52542D01*
X302993Y52487D01*
Y35304D01*
X302677Y34542D01*
X302376Y33287D01*
X302275Y32000D01*
X302376Y30713D01*
X302677Y29458D01*
X302993Y28696D01*
Y2000D01*
X297993D01*
Y62487D01*
X298000Y62486D01*
X298706Y62542D01*
X299395Y62707D01*
X300049Y62978D01*
X300653Y63348D01*
X301192Y63808D01*
X301652Y64347D01*
X302022Y64951D01*
X302293Y65605D01*
X302458Y66294D01*
X302500Y67000D01*
X302458Y67706D01*
X302293Y68395D01*
X302022Y69049D01*
X301652Y69653D01*
X301192Y70192D01*
X300653Y70652D01*
X300049Y71022D01*
X299395Y71293D01*
X298706Y71458D01*
X298000Y71514D01*
X297993Y71513D01*
Y108000D01*
G37*
G36*
X292993D02*X297993D01*
Y71513D01*
X297294Y71458D01*
X296605Y71293D01*
X295951Y71022D01*
X295347Y70652D01*
X294808Y70192D01*
X294348Y69653D01*
X293978Y69049D01*
X293707Y68395D01*
X293542Y67706D01*
X293486Y67000D01*
X293542Y66294D01*
X293707Y65605D01*
X293978Y64951D01*
X294348Y64347D01*
X294808Y63808D01*
X295347Y63348D01*
X295951Y62978D01*
X296605Y62707D01*
X297294Y62542D01*
X297993Y62487D01*
Y2000D01*
X292993D01*
Y52487D01*
X293000Y52486D01*
X293706Y52542D01*
X294395Y52707D01*
X295049Y52978D01*
X295653Y53348D01*
X296192Y53808D01*
X296652Y54347D01*
X297022Y54951D01*
X297293Y55605D01*
X297458Y56294D01*
X297500Y57000D01*
X297458Y57706D01*
X297293Y58395D01*
X297022Y59049D01*
X296652Y59653D01*
X296192Y60192D01*
X295653Y60652D01*
X295049Y61022D01*
X294395Y61293D01*
X293706Y61458D01*
X293000Y61514D01*
X292993Y61513D01*
Y108000D01*
G37*
G36*
X291720Y52679D02*X292294Y52542D01*
X292993Y52487D01*
Y2000D01*
X291720D01*
Y52679D01*
G37*
G36*
Y108000D02*X292993D01*
Y61513D01*
X292294Y61458D01*
X291720Y61321D01*
Y64544D01*
X291771Y64583D01*
X291826Y64639D01*
X291870Y64704D01*
X292064Y65056D01*
X292221Y65426D01*
X292344Y65809D01*
X292433Y66200D01*
X292487Y66599D01*
X292504Y67000D01*
X292487Y67401D01*
X292433Y67800D01*
X292344Y68191D01*
X292221Y68574D01*
X292064Y68944D01*
X291874Y69298D01*
X291829Y69363D01*
X291774Y69420D01*
X291720Y69460D01*
Y108000D01*
G37*
G36*
X288002D02*X291720D01*
Y69460D01*
X291710Y69468D01*
X291640Y69504D01*
X291565Y69530D01*
X291487Y69544D01*
X291408Y69545D01*
X291329Y69533D01*
X291254Y69510D01*
X291183Y69475D01*
X291118Y69429D01*
X291061Y69374D01*
X291013Y69311D01*
X290976Y69241D01*
X290951Y69166D01*
X290937Y69088D01*
X290936Y69008D01*
X290948Y68930D01*
X290971Y68854D01*
X291007Y68784D01*
X291157Y68510D01*
X291279Y68223D01*
X291375Y67926D01*
X291444Y67621D01*
X291486Y67312D01*
X291500Y67000D01*
X291486Y66688D01*
X291444Y66379D01*
X291375Y66074D01*
X291279Y65777D01*
X291157Y65490D01*
X291010Y65214D01*
X290974Y65145D01*
X290951Y65069D01*
X290940Y64991D01*
X290941Y64913D01*
X290954Y64835D01*
X290980Y64761D01*
X291016Y64691D01*
X291064Y64628D01*
X291120Y64573D01*
X291184Y64528D01*
X291255Y64493D01*
X291330Y64470D01*
X291408Y64459D01*
X291487Y64460D01*
X291564Y64473D01*
X291639Y64499D01*
X291708Y64535D01*
X291720Y64544D01*
Y61321D01*
X291605Y61293D01*
X290951Y61022D01*
X290347Y60652D01*
X289808Y60192D01*
X289348Y59653D01*
X288978Y59049D01*
X288707Y58395D01*
X288542Y57706D01*
X288486Y57000D01*
X288542Y56294D01*
X288707Y55605D01*
X288978Y54951D01*
X289348Y54347D01*
X289808Y53808D01*
X290347Y53348D01*
X290951Y52978D01*
X291605Y52707D01*
X291720Y52679D01*
Y2000D01*
X288002D01*
Y62496D01*
X288401Y62513D01*
X288800Y62567D01*
X289191Y62656D01*
X289574Y62779D01*
X289944Y62936D01*
X290298Y63126D01*
X290363Y63171D01*
X290420Y63226D01*
X290468Y63290D01*
X290504Y63360D01*
X290530Y63435D01*
X290544Y63513D01*
X290545Y63592D01*
X290533Y63671D01*
X290510Y63746D01*
X290475Y63817D01*
X290429Y63882D01*
X290374Y63939D01*
X290311Y63987D01*
X290241Y64024D01*
X290166Y64049D01*
X290088Y64063D01*
X290008Y64064D01*
X289930Y64052D01*
X289854Y64029D01*
X289784Y63993D01*
X289510Y63843D01*
X289223Y63721D01*
X288926Y63625D01*
X288621Y63556D01*
X288312Y63514D01*
X288002Y63500D01*
Y70500D01*
X288312Y70486D01*
X288621Y70444D01*
X288926Y70375D01*
X289223Y70279D01*
X289510Y70157D01*
X289786Y70010D01*
X289855Y69974D01*
X289931Y69951D01*
X290009Y69940D01*
X290087Y69941D01*
X290165Y69954D01*
X290239Y69980D01*
X290309Y70016D01*
X290372Y70064D01*
X290427Y70120D01*
X290472Y70184D01*
X290507Y70255D01*
X290530Y70330D01*
X290541Y70408D01*
X290540Y70487D01*
X290527Y70564D01*
X290501Y70639D01*
X290465Y70708D01*
X290417Y70771D01*
X290361Y70826D01*
X290296Y70870D01*
X289944Y71064D01*
X289574Y71221D01*
X289191Y71344D01*
X288800Y71433D01*
X288401Y71487D01*
X288002Y71504D01*
Y108000D01*
G37*
G36*
Y2000D02*X282993D01*
Y52487D01*
X283000Y52486D01*
X283706Y52542D01*
X284395Y52707D01*
X285049Y52978D01*
X285653Y53348D01*
X286192Y53808D01*
X286652Y54347D01*
X287022Y54951D01*
X287293Y55605D01*
X287458Y56294D01*
X287500Y57000D01*
X287458Y57706D01*
X287293Y58395D01*
X287022Y59049D01*
X286652Y59653D01*
X286192Y60192D01*
X285653Y60652D01*
X285049Y61022D01*
X284395Y61293D01*
X283706Y61458D01*
X283000Y61514D01*
X282993Y61513D01*
Y68289D01*
X283000Y68289D01*
X283581Y68334D01*
X283712Y68366D01*
X283656Y68191D01*
X283567Y67800D01*
X283513Y67401D01*
X283496Y67000D01*
X283513Y66599D01*
X283567Y66200D01*
X283656Y65809D01*
X283779Y65426D01*
X283936Y65056D01*
X284126Y64702D01*
X284171Y64637D01*
X284226Y64580D01*
X284290Y64532D01*
X284360Y64496D01*
X284435Y64470D01*
X284513Y64456D01*
X284592Y64455D01*
X284671Y64467D01*
X284746Y64490D01*
X284817Y64525D01*
X284882Y64571D01*
X284939Y64626D01*
X284987Y64689D01*
X285024Y64759D01*
X285049Y64834D01*
X285063Y64912D01*
X285064Y64992D01*
X285052Y65070D01*
X285029Y65146D01*
X284993Y65216D01*
X284843Y65490D01*
X284721Y65777D01*
X284625Y66074D01*
X284556Y66379D01*
X284514Y66688D01*
X284500Y67000D01*
X284514Y67312D01*
X284556Y67621D01*
X284625Y67926D01*
X284721Y68223D01*
X284843Y68510D01*
X284990Y68786D01*
X285026Y68855D01*
X285044Y68913D01*
X285182Y68997D01*
X285624Y69376D01*
X286003Y69818D01*
X286084Y69952D01*
X286146Y69971D01*
X286216Y70007D01*
X286490Y70157D01*
X286777Y70279D01*
X287074Y70375D01*
X287379Y70444D01*
X287688Y70486D01*
X288000Y70500D01*
X288002Y70500D01*
Y63500D01*
X288000Y63500D01*
X287688Y63514D01*
X287379Y63556D01*
X287074Y63625D01*
X286777Y63721D01*
X286490Y63843D01*
X286214Y63990D01*
X286145Y64026D01*
X286069Y64049D01*
X285991Y64060D01*
X285913Y64059D01*
X285835Y64046D01*
X285761Y64020D01*
X285691Y63984D01*
X285628Y63936D01*
X285573Y63880D01*
X285528Y63816D01*
X285493Y63745D01*
X285470Y63670D01*
X285459Y63592D01*
X285460Y63513D01*
X285473Y63436D01*
X285499Y63361D01*
X285535Y63292D01*
X285583Y63229D01*
X285639Y63174D01*
X285704Y63130D01*
X286056Y62936D01*
X286426Y62779D01*
X286809Y62656D01*
X287200Y62567D01*
X287599Y62513D01*
X288000Y62496D01*
X288002Y62496D01*
Y2000D01*
G37*
G36*
X282993Y108000D02*X288002D01*
Y71504D01*
X288000Y71504D01*
X287599Y71487D01*
X287200Y71433D01*
X286809Y71344D01*
X286634Y71288D01*
X286666Y71419D01*
X286700Y72000D01*
X286666Y72581D01*
X286530Y73147D01*
X286307Y73685D01*
X286003Y74182D01*
X285624Y74624D01*
X285182Y75003D01*
X284685Y75307D01*
X284147Y75530D01*
X283581Y75666D01*
X283000Y75711D01*
X282993Y75711D01*
Y108000D01*
G37*
G36*
Y2000D02*X273616D01*
Y24415D01*
X274234Y24671D01*
X275335Y25346D01*
X276316Y26184D01*
X277154Y27165D01*
X277829Y28266D01*
X278323Y29458D01*
X278624Y30713D01*
X278700Y32000D01*
X278624Y33287D01*
X278323Y34542D01*
X277829Y35734D01*
X277154Y36835D01*
X276316Y37816D01*
X275335Y38654D01*
X274234Y39329D01*
X273616Y39585D01*
Y65500D01*
X273751D01*
X273978Y64951D01*
X274348Y64347D01*
X274808Y63808D01*
X275347Y63348D01*
X275951Y62978D01*
X276605Y62707D01*
X277294Y62542D01*
X278000Y62486D01*
X278706Y62542D01*
X279395Y62707D01*
X280049Y62978D01*
X280653Y63348D01*
X281192Y63808D01*
X281652Y64347D01*
X282022Y64951D01*
X282293Y65605D01*
X282458Y66294D01*
X282500Y67000D01*
X282458Y67706D01*
X282301Y68363D01*
X282419Y68334D01*
X282993Y68289D01*
Y61513D01*
X282294Y61458D01*
X281605Y61293D01*
X280951Y61022D01*
X280347Y60652D01*
X279808Y60192D01*
X279348Y59653D01*
X278978Y59049D01*
X278707Y58395D01*
X278542Y57706D01*
X278486Y57000D01*
X278542Y56294D01*
X278707Y55605D01*
X278978Y54951D01*
X279348Y54347D01*
X279808Y53808D01*
X280347Y53348D01*
X280951Y52978D01*
X281605Y52707D01*
X282294Y52542D01*
X282993Y52487D01*
Y2000D01*
G37*
G36*
X273616Y108000D02*X282993D01*
Y75711D01*
X282419Y75666D01*
X281853Y75530D01*
X281315Y75307D01*
X280818Y75003D01*
X280376Y74624D01*
X279997Y74182D01*
X279693Y73685D01*
X279616Y73500D01*
X273616D01*
Y108000D01*
G37*
G36*
X244993D02*X273616D01*
Y73500D01*
X261865D01*
X261772Y73651D01*
X261486Y73986D01*
X261151Y74272D01*
X260775Y74503D01*
X260368Y74671D01*
X259939Y74774D01*
X259500Y74809D01*
X259061Y74774D01*
X258632Y74671D01*
X258225Y74503D01*
X257849Y74272D01*
X257514Y73986D01*
X257228Y73651D01*
X256997Y73275D01*
X256829Y72868D01*
X256726Y72439D01*
X256691Y72000D01*
X256726Y71561D01*
X256829Y71132D01*
X256997Y70725D01*
X257228Y70349D01*
X257514Y70014D01*
X257849Y69728D01*
X258225Y69497D01*
X258632Y69329D01*
X259061Y69226D01*
X259500Y69191D01*
X259939Y69226D01*
X260368Y69329D01*
X260775Y69497D01*
X261151Y69728D01*
X261486Y70014D01*
X261772Y70349D01*
X261865Y70500D01*
X263556D01*
X263142Y70246D01*
X262663Y69837D01*
X262254Y69358D01*
X261925Y68822D01*
X261684Y68240D01*
X261537Y67628D01*
X261488Y67000D01*
X261500Y66837D01*
X261509Y63843D01*
X261546Y63690D01*
X261583Y63600D01*
X261546Y63510D01*
X261509Y63357D01*
X261500Y63200D01*
X261508Y60459D01*
X261488Y60200D01*
X261537Y59572D01*
X261684Y58960D01*
X261925Y58378D01*
X262254Y57842D01*
X262663Y57363D01*
X263142Y56954D01*
X263678Y56625D01*
X264260Y56384D01*
X264872Y56237D01*
X265500Y56188D01*
X266128Y56237D01*
X266740Y56384D01*
X267322Y56625D01*
X267858Y56954D01*
X268337Y57363D01*
X268746Y57842D01*
X269075Y58378D01*
X269316Y58960D01*
X269463Y59572D01*
X269491Y60043D01*
X269491Y60043D01*
X269500Y60200D01*
X269491Y63357D01*
X269454Y63510D01*
X269417Y63600D01*
X269454Y63690D01*
X269491Y63843D01*
X269500Y64000D01*
X269496Y65500D01*
X273616D01*
Y39585D01*
X273042Y39823D01*
X271787Y40124D01*
X270500Y40225D01*
X269213Y40124D01*
X267958Y39823D01*
X266766Y39329D01*
X265665Y38654D01*
X264684Y37816D01*
X263846Y36835D01*
X263171Y35734D01*
X262677Y34542D01*
X262376Y33287D01*
X262275Y32000D01*
X262376Y30713D01*
X262677Y29458D01*
X263171Y28266D01*
X263846Y27165D01*
X264684Y26184D01*
X265665Y25346D01*
X266766Y24671D01*
X267958Y24177D01*
X269213Y23876D01*
X270500Y23775D01*
X271787Y23876D01*
X273042Y24177D01*
X273616Y24415D01*
Y2000D01*
X244993D01*
Y6662D01*
X245009Y6669D01*
X246486Y7573D01*
X247802Y8698D01*
X248927Y10014D01*
X249831Y11491D01*
X250494Y13090D01*
X250898Y14774D01*
X251000Y16500D01*
X250898Y18226D01*
X250494Y19910D01*
X249831Y21509D01*
X248927Y22986D01*
X247802Y24302D01*
X246486Y25427D01*
X245009Y26331D01*
X244993Y26338D01*
Y31207D01*
X248235Y31214D01*
X248465Y31269D01*
X248683Y31359D01*
X248884Y31483D01*
X249064Y31636D01*
X249217Y31816D01*
X249341Y32017D01*
X249431Y32235D01*
X249486Y32465D01*
X249500Y32700D01*
X249486Y38935D01*
X249431Y39165D01*
X249341Y39383D01*
X249217Y39584D01*
X249064Y39764D01*
X248884Y39917D01*
X248683Y40041D01*
X248465Y40131D01*
X248235Y40186D01*
X248000Y40200D01*
X244993Y40193D01*
Y41187D01*
X245000Y41186D01*
X245706Y41242D01*
X246395Y41407D01*
X247049Y41678D01*
X247653Y42048D01*
X248192Y42508D01*
X248652Y43047D01*
X249022Y43651D01*
X249293Y44305D01*
X249458Y44994D01*
X249500Y45700D01*
X249458Y46406D01*
X249293Y47095D01*
X249022Y47749D01*
X248652Y48353D01*
X248192Y48892D01*
X247653Y49352D01*
X247049Y49722D01*
X246395Y49993D01*
X245706Y50158D01*
X245000Y50214D01*
X244993Y50213D01*
Y51187D01*
X245000Y51186D01*
X245706Y51242D01*
X246395Y51407D01*
X247049Y51678D01*
X247653Y52048D01*
X248192Y52508D01*
X248652Y53047D01*
X249022Y53651D01*
X249293Y54305D01*
X249458Y54994D01*
X249500Y55700D01*
X249458Y56406D01*
X249293Y57095D01*
X249022Y57749D01*
X248652Y58353D01*
X248192Y58892D01*
X247653Y59352D01*
X247049Y59722D01*
X246395Y59993D01*
X245706Y60158D01*
X245000Y60214D01*
X244993Y60213D01*
Y108000D01*
G37*
G36*
Y26338D02*X243410Y26994D01*
X241726Y27398D01*
X240000Y27534D01*
X238274Y27398D01*
X236998Y27092D01*
Y28500D01*
X239241D01*
X239300Y28495D01*
X239535Y28514D01*
X239535Y28514D01*
X239765Y28569D01*
X239983Y28659D01*
X240184Y28783D01*
X240364Y28936D01*
X240402Y28981D01*
X242623Y31201D01*
X244993Y31207D01*
Y26338D01*
G37*
G36*
Y2000D02*X236998D01*
Y5908D01*
X238274Y5602D01*
X240000Y5466D01*
X241726Y5602D01*
X243410Y6006D01*
X244993Y6662D01*
Y2000D01*
G37*
G36*
X238613Y108000D02*X244993D01*
Y60213D01*
X244294Y60158D01*
X243605Y59993D01*
X242951Y59722D01*
X242347Y59352D01*
X241808Y58892D01*
X241348Y58353D01*
X240978Y57749D01*
X240707Y57095D01*
X240542Y56406D01*
X240486Y55700D01*
X240542Y54994D01*
X240707Y54305D01*
X240978Y53651D01*
X241348Y53047D01*
X241808Y52508D01*
X242347Y52048D01*
X242951Y51678D01*
X243605Y51407D01*
X244294Y51242D01*
X244993Y51187D01*
Y50213D01*
X244294Y50158D01*
X243605Y49993D01*
X242951Y49722D01*
X242347Y49352D01*
X241808Y48892D01*
X241348Y48353D01*
X240978Y47749D01*
X240707Y47095D01*
X240542Y46406D01*
X240486Y45700D01*
X240542Y44994D01*
X240707Y44305D01*
X240978Y43651D01*
X241348Y43047D01*
X241808Y42508D01*
X242347Y42048D01*
X242951Y41678D01*
X243605Y41407D01*
X244294Y41242D01*
X244993Y41187D01*
Y40193D01*
X241765Y40186D01*
X241535Y40131D01*
X241317Y40041D01*
X241116Y39917D01*
X240936Y39764D01*
X240783Y39584D01*
X240659Y39383D01*
X240569Y39165D01*
X240514Y38935D01*
X240500Y38700D01*
X240512Y33333D01*
X238679Y31500D01*
X238613D01*
Y33002D01*
X238652Y33047D01*
X239022Y33651D01*
X239293Y34305D01*
X239458Y34994D01*
X239500Y35700D01*
X239458Y36406D01*
X239293Y37095D01*
X239022Y37749D01*
X238652Y38353D01*
X238613Y38398D01*
Y43002D01*
X238652Y43047D01*
X239022Y43651D01*
X239293Y44305D01*
X239458Y44994D01*
X239500Y45700D01*
X239458Y46406D01*
X239293Y47095D01*
X239022Y47749D01*
X238652Y48353D01*
X238613Y48398D01*
Y53553D01*
X238656Y53560D01*
X238768Y53597D01*
X238873Y53652D01*
X238968Y53722D01*
X239051Y53806D01*
X239119Y53902D01*
X239170Y54008D01*
X239318Y54416D01*
X239422Y54837D01*
X239484Y55267D01*
X239505Y55700D01*
X239484Y56133D01*
X239422Y56563D01*
X239318Y56984D01*
X239175Y57394D01*
X239122Y57500D01*
X239053Y57596D01*
X238970Y57681D01*
X238875Y57751D01*
X238769Y57806D01*
X238657Y57843D01*
X238613Y57851D01*
Y108000D01*
G37*
G36*
Y38398D02*X238192Y38892D01*
X237653Y39352D01*
X237049Y39722D01*
X236998Y39743D01*
Y41657D01*
X237049Y41678D01*
X237653Y42048D01*
X238192Y42508D01*
X238613Y43002D01*
Y38398D01*
G37*
G36*
Y31500D02*X236998D01*
Y31657D01*
X237049Y31678D01*
X237653Y32048D01*
X238192Y32508D01*
X238613Y33002D01*
Y31500D01*
G37*
G36*
X236998Y108000D02*X238613D01*
Y57851D01*
X238540Y57863D01*
X238421Y57864D01*
X238304Y57846D01*
X238191Y57810D01*
X238085Y57757D01*
X237988Y57688D01*
X237904Y57605D01*
X237833Y57509D01*
X237779Y57404D01*
X237741Y57292D01*
X237722Y57175D01*
X237721Y57056D01*
X237739Y56939D01*
X237777Y56826D01*
X237876Y56555D01*
X237944Y56275D01*
X237986Y55989D01*
X238000Y55700D01*
X237986Y55411D01*
X237944Y55125D01*
X237876Y54845D01*
X237780Y54572D01*
X237742Y54461D01*
X237725Y54344D01*
X237725Y54226D01*
X237745Y54109D01*
X237782Y53997D01*
X237836Y53893D01*
X237906Y53798D01*
X237991Y53715D01*
X238087Y53646D01*
X238192Y53593D01*
X238305Y53557D01*
X238421Y53540D01*
X238539Y53541D01*
X238613Y53553D01*
Y48398D01*
X238192Y48892D01*
X237653Y49352D01*
X237049Y49722D01*
X236998Y49743D01*
Y51753D01*
X237051Y51825D01*
X237106Y51931D01*
X237143Y52043D01*
X237163Y52160D01*
X237164Y52279D01*
X237146Y52396D01*
X237110Y52509D01*
X237057Y52615D01*
X236998Y52698D01*
Y58708D01*
X237054Y58787D01*
X237107Y58892D01*
X237143Y59005D01*
X237160Y59121D01*
X237159Y59239D01*
X237140Y59356D01*
X237103Y59468D01*
X237048Y59573D01*
X236998Y59641D01*
Y108000D01*
G37*
G36*
Y31500D02*X236619D01*
X236998Y31657D01*
Y31500D01*
G37*
G36*
X231387Y9647D02*X232198Y8698D01*
X233514Y7573D01*
X234991Y6669D01*
X236590Y6006D01*
X236998Y5908D01*
Y2000D01*
X231387D01*
Y9647D01*
G37*
G36*
Y28500D02*X236998D01*
Y27092D01*
X236590Y26994D01*
X234991Y26331D01*
X233514Y25427D01*
X232198Y24302D01*
X231387Y23353D01*
Y28500D01*
G37*
G36*
Y33002D02*X231808Y32508D01*
X232347Y32048D01*
X232951Y31678D01*
X233381Y31500D01*
X231387D01*
Y33002D01*
G37*
G36*
Y43002D02*X231808Y42508D01*
X232347Y42048D01*
X232951Y41678D01*
X233605Y41407D01*
X234294Y41242D01*
X235000Y41186D01*
X235706Y41242D01*
X236395Y41407D01*
X236998Y41657D01*
Y39743D01*
X236395Y39993D01*
X235706Y40158D01*
X235000Y40214D01*
X234294Y40158D01*
X233605Y39993D01*
X232951Y39722D01*
X232347Y39352D01*
X231808Y38892D01*
X231387Y38398D01*
Y43002D01*
G37*
G36*
Y108000D02*X236998D01*
Y59641D01*
X236978Y59668D01*
X236894Y59751D01*
X236798Y59819D01*
X236692Y59870D01*
X236284Y60018D01*
X235863Y60122D01*
X235433Y60184D01*
X235000Y60205D01*
X234567Y60184D01*
X234137Y60122D01*
X233716Y60018D01*
X233306Y59875D01*
X233200Y59822D01*
X233104Y59753D01*
X233019Y59670D01*
X232949Y59575D01*
X232894Y59469D01*
X232857Y59357D01*
X232837Y59240D01*
X232836Y59121D01*
X232854Y59004D01*
X232890Y58891D01*
X232943Y58785D01*
X233012Y58688D01*
X233095Y58604D01*
X233191Y58533D01*
X233296Y58479D01*
X233408Y58441D01*
X233525Y58422D01*
X233644Y58421D01*
X233761Y58439D01*
X233874Y58477D01*
X234145Y58576D01*
X234425Y58644D01*
X234711Y58686D01*
X235000Y58700D01*
X235289Y58686D01*
X235575Y58644D01*
X235855Y58576D01*
X236128Y58480D01*
X236239Y58442D01*
X236356Y58425D01*
X236474Y58425D01*
X236591Y58445D01*
X236703Y58482D01*
X236807Y58536D01*
X236902Y58606D01*
X236985Y58691D01*
X236998Y58708D01*
Y52698D01*
X236988Y52712D01*
X236905Y52796D01*
X236809Y52867D01*
X236704Y52921D01*
X236592Y52959D01*
X236475Y52978D01*
X236356Y52979D01*
X236239Y52961D01*
X236126Y52923D01*
X235855Y52824D01*
X235575Y52756D01*
X235289Y52714D01*
X235000Y52700D01*
X234711Y52714D01*
X234425Y52756D01*
X234145Y52824D01*
X233872Y52920D01*
X233761Y52958D01*
X233644Y52975D01*
X233526Y52975D01*
X233409Y52955D01*
X233297Y52918D01*
X233193Y52864D01*
X233098Y52794D01*
X233015Y52709D01*
X232946Y52613D01*
X232893Y52508D01*
X232857Y52395D01*
X232840Y52279D01*
X232841Y52161D01*
X232860Y52044D01*
X232897Y51932D01*
X232952Y51827D01*
X233022Y51732D01*
X233106Y51649D01*
X233202Y51581D01*
X233308Y51530D01*
X233716Y51382D01*
X234137Y51278D01*
X234567Y51216D01*
X235000Y51195D01*
X235433Y51216D01*
X235863Y51278D01*
X236284Y51382D01*
X236694Y51525D01*
X236800Y51578D01*
X236896Y51647D01*
X236981Y51730D01*
X236998Y51753D01*
Y49743D01*
X236395Y49993D01*
X235706Y50158D01*
X235000Y50214D01*
X234294Y50158D01*
X233605Y49993D01*
X232951Y49722D01*
X232347Y49352D01*
X231808Y48892D01*
X231387Y48398D01*
Y53549D01*
X231460Y53537D01*
X231579Y53536D01*
X231696Y53554D01*
X231809Y53590D01*
X231915Y53643D01*
X232012Y53712D01*
X232096Y53795D01*
X232167Y53891D01*
X232221Y53996D01*
X232259Y54108D01*
X232278Y54225D01*
X232279Y54344D01*
X232261Y54461D01*
X232223Y54574D01*
X232124Y54845D01*
X232056Y55125D01*
X232014Y55411D01*
X232000Y55700D01*
X232014Y55989D01*
X232056Y56275D01*
X232124Y56555D01*
X232220Y56828D01*
X232258Y56939D01*
X232275Y57056D01*
X232275Y57174D01*
X232255Y57291D01*
X232218Y57403D01*
X232164Y57507D01*
X232094Y57602D01*
X232009Y57685D01*
X231913Y57754D01*
X231808Y57807D01*
X231695Y57843D01*
X231579Y57860D01*
X231461Y57859D01*
X231387Y57847D01*
Y78212D01*
X231652Y78191D01*
X232091Y78226D01*
X232520Y78329D01*
X232927Y78497D01*
X233303Y78728D01*
X233638Y79014D01*
X233924Y79349D01*
X234154Y79725D01*
X234323Y80132D01*
X234426Y80561D01*
X234452Y81000D01*
X234426Y81439D01*
X234323Y81868D01*
X234154Y82275D01*
X233924Y82651D01*
X233638Y82986D01*
X233303Y83272D01*
X232927Y83503D01*
X232520Y83671D01*
X232091Y83774D01*
X231652Y83809D01*
X231387Y83788D01*
Y108000D01*
G37*
G36*
Y48398D02*X231348Y48353D01*
X230978Y47749D01*
X230707Y47095D01*
X230542Y46406D01*
X230486Y45700D01*
X230542Y44994D01*
X230707Y44305D01*
X230978Y43651D01*
X231348Y43047D01*
X231387Y43002D01*
Y38398D01*
X231348Y38353D01*
X230978Y37749D01*
X230707Y37095D01*
X230542Y36406D01*
X230486Y35700D01*
X230542Y34994D01*
X230707Y34305D01*
X230978Y33651D01*
X231348Y33047D01*
X231387Y33002D01*
Y31500D01*
X228621D01*
X227500Y32621D01*
Y74727D01*
X231041Y78267D01*
X231213Y78226D01*
X231387Y78212D01*
Y57847D01*
X231344Y57840D01*
X231232Y57803D01*
X231127Y57748D01*
X231032Y57678D01*
X230949Y57594D01*
X230881Y57498D01*
X230830Y57392D01*
X230682Y56984D01*
X230578Y56563D01*
X230516Y56133D01*
X230495Y55700D01*
X230516Y55267D01*
X230578Y54837D01*
X230682Y54416D01*
X230825Y54006D01*
X230878Y53900D01*
X230947Y53804D01*
X231030Y53719D01*
X231125Y53649D01*
X231231Y53594D01*
X231343Y53557D01*
X231387Y53549D01*
Y48398D01*
G37*
G36*
X222000Y108000D02*X231387D01*
Y83788D01*
X231213Y83774D01*
X230784Y83671D01*
X230377Y83503D01*
X230001Y83272D01*
X229666Y82986D01*
X229380Y82651D01*
X229149Y82275D01*
X228981Y81868D01*
X228878Y81439D01*
X228843Y81000D01*
X228878Y80561D01*
X228919Y80389D01*
X224981Y76450D01*
X224936Y76412D01*
X224783Y76232D01*
X224659Y76031D01*
X224569Y75813D01*
X224514Y75583D01*
X224514Y75583D01*
X224495Y75348D01*
X224500Y75289D01*
Y32059D01*
X224495Y32000D01*
X224514Y31765D01*
X224569Y31535D01*
X224659Y31317D01*
X224783Y31116D01*
X224936Y30936D01*
X224981Y30898D01*
X226898Y28981D01*
X226936Y28936D01*
X227115Y28783D01*
X227116Y28783D01*
X227317Y28659D01*
X227535Y28569D01*
X227765Y28514D01*
X228000Y28495D01*
X228059Y28500D01*
X231387D01*
Y23353D01*
X231073Y22986D01*
X230169Y21509D01*
X229506Y19910D01*
X229102Y18226D01*
X228966Y16500D01*
X229102Y14774D01*
X229506Y13090D01*
X230169Y11491D01*
X231073Y10014D01*
X231387Y9647D01*
Y2000D01*
X222000D01*
Y108000D01*
G37*
G36*
X412993Y28696D02*X413171Y28266D01*
X413846Y27165D01*
X414684Y26184D01*
X415665Y25346D01*
X416766Y24671D01*
X417958Y24177D01*
X419213Y23876D01*
X420500Y23775D01*
X421787Y23876D01*
X423042Y24177D01*
X424234Y24671D01*
X425335Y25346D01*
X426316Y26184D01*
X427154Y27165D01*
X427829Y28266D01*
X428000Y28679D01*
Y2000D01*
X412993D01*
Y28696D01*
G37*
G36*
Y108000D02*X428000D01*
Y35321D01*
X427829Y35734D01*
X427154Y36835D01*
X426316Y37816D01*
X425335Y38654D01*
X424234Y39329D01*
X423042Y39823D01*
X421787Y40124D01*
X420500Y40225D01*
X419213Y40124D01*
X417958Y39823D01*
X416766Y39329D01*
X415665Y38654D01*
X414684Y37816D01*
X413846Y36835D01*
X413171Y35734D01*
X412993Y35304D01*
Y52487D01*
X413000Y52486D01*
X413706Y52542D01*
X414395Y52707D01*
X415049Y52978D01*
X415653Y53348D01*
X416192Y53808D01*
X416652Y54347D01*
X417022Y54951D01*
X417293Y55605D01*
X417458Y56294D01*
X417500Y57000D01*
X417458Y57706D01*
X417293Y58395D01*
X417022Y59049D01*
X416652Y59653D01*
X416192Y60192D01*
X415653Y60652D01*
X415049Y61022D01*
X414395Y61293D01*
X413706Y61458D01*
X413000Y61514D01*
X412993Y61513D01*
Y108000D01*
G37*
G36*
X407993D02*X412993D01*
Y61513D01*
X412294Y61458D01*
X411605Y61293D01*
X410951Y61022D01*
X410347Y60652D01*
X409808Y60192D01*
X409348Y59653D01*
X408978Y59049D01*
X408707Y58395D01*
X408542Y57706D01*
X408486Y57000D01*
X408542Y56294D01*
X408707Y55605D01*
X408978Y54951D01*
X409348Y54347D01*
X409808Y53808D01*
X410347Y53348D01*
X410951Y52978D01*
X411605Y52707D01*
X412294Y52542D01*
X412993Y52487D01*
Y35304D01*
X412677Y34542D01*
X412376Y33287D01*
X412275Y32000D01*
X412376Y30713D01*
X412677Y29458D01*
X412993Y28696D01*
Y2000D01*
X407993D01*
Y62487D01*
X408000Y62486D01*
X408706Y62542D01*
X409395Y62707D01*
X410049Y62978D01*
X410653Y63348D01*
X411192Y63808D01*
X411652Y64347D01*
X412022Y64951D01*
X412293Y65605D01*
X412458Y66294D01*
X412500Y67000D01*
X412458Y67706D01*
X412293Y68395D01*
X412022Y69049D01*
X411652Y69653D01*
X411192Y70192D01*
X410653Y70652D01*
X410049Y71022D01*
X409395Y71293D01*
X408706Y71458D01*
X408000Y71514D01*
X407993Y71513D01*
Y108000D01*
G37*
G36*
X402993D02*X407993D01*
Y71513D01*
X407294Y71458D01*
X406605Y71293D01*
X405951Y71022D01*
X405347Y70652D01*
X404808Y70192D01*
X404348Y69653D01*
X403978Y69049D01*
X403707Y68395D01*
X403542Y67706D01*
X403486Y67000D01*
X403542Y66294D01*
X403707Y65605D01*
X403978Y64951D01*
X404348Y64347D01*
X404808Y63808D01*
X405347Y63348D01*
X405951Y62978D01*
X406605Y62707D01*
X407294Y62542D01*
X407993Y62487D01*
Y2000D01*
X402993D01*
Y52487D01*
X403000Y52486D01*
X403706Y52542D01*
X404395Y52707D01*
X405049Y52978D01*
X405653Y53348D01*
X406192Y53808D01*
X406652Y54347D01*
X407022Y54951D01*
X407293Y55605D01*
X407458Y56294D01*
X407500Y57000D01*
X407458Y57706D01*
X407293Y58395D01*
X407022Y59049D01*
X406652Y59653D01*
X406192Y60192D01*
X405653Y60652D01*
X405049Y61022D01*
X404395Y61293D01*
X403706Y61458D01*
X403000Y61514D01*
X402993Y61513D01*
Y108000D01*
G37*
G36*
X401720Y52679D02*X402294Y52542D01*
X402993Y52487D01*
Y2000D01*
X401720D01*
Y52679D01*
G37*
G36*
Y108000D02*X402993D01*
Y61513D01*
X402294Y61458D01*
X401720Y61321D01*
Y64544D01*
X401771Y64583D01*
X401826Y64639D01*
X401870Y64704D01*
X402064Y65056D01*
X402221Y65426D01*
X402344Y65809D01*
X402433Y66200D01*
X402487Y66599D01*
X402504Y67000D01*
X402487Y67401D01*
X402433Y67800D01*
X402344Y68191D01*
X402221Y68574D01*
X402064Y68944D01*
X401874Y69298D01*
X401829Y69363D01*
X401774Y69420D01*
X401720Y69460D01*
Y108000D01*
G37*
G36*
X398002D02*X401720D01*
Y69460D01*
X401710Y69468D01*
X401640Y69504D01*
X401565Y69530D01*
X401487Y69544D01*
X401408Y69545D01*
X401329Y69533D01*
X401254Y69510D01*
X401183Y69475D01*
X401118Y69429D01*
X401061Y69374D01*
X401013Y69311D01*
X400976Y69241D01*
X400951Y69166D01*
X400937Y69088D01*
X400936Y69008D01*
X400948Y68930D01*
X400971Y68854D01*
X401007Y68784D01*
X401157Y68510D01*
X401279Y68223D01*
X401375Y67926D01*
X401444Y67621D01*
X401486Y67312D01*
X401500Y67000D01*
X401486Y66688D01*
X401444Y66379D01*
X401375Y66074D01*
X401279Y65777D01*
X401157Y65490D01*
X401010Y65214D01*
X400974Y65145D01*
X400951Y65069D01*
X400940Y64991D01*
X400941Y64913D01*
X400954Y64835D01*
X400980Y64761D01*
X401016Y64691D01*
X401064Y64628D01*
X401120Y64573D01*
X401184Y64528D01*
X401255Y64493D01*
X401330Y64470D01*
X401408Y64459D01*
X401487Y64460D01*
X401564Y64473D01*
X401639Y64499D01*
X401708Y64535D01*
X401720Y64544D01*
Y61321D01*
X401605Y61293D01*
X400951Y61022D01*
X400347Y60652D01*
X399808Y60192D01*
X399348Y59653D01*
X398978Y59049D01*
X398707Y58395D01*
X398542Y57706D01*
X398486Y57000D01*
X398542Y56294D01*
X398707Y55605D01*
X398978Y54951D01*
X399348Y54347D01*
X399808Y53808D01*
X400347Y53348D01*
X400951Y52978D01*
X401605Y52707D01*
X401720Y52679D01*
Y2000D01*
X398002D01*
Y62496D01*
X398401Y62513D01*
X398800Y62567D01*
X399191Y62656D01*
X399574Y62779D01*
X399944Y62936D01*
X400298Y63126D01*
X400363Y63171D01*
X400420Y63226D01*
X400468Y63290D01*
X400504Y63360D01*
X400530Y63435D01*
X400544Y63513D01*
X400545Y63592D01*
X400533Y63671D01*
X400510Y63746D01*
X400475Y63817D01*
X400429Y63882D01*
X400374Y63939D01*
X400311Y63987D01*
X400241Y64024D01*
X400166Y64049D01*
X400088Y64063D01*
X400008Y64064D01*
X399930Y64052D01*
X399854Y64029D01*
X399784Y63993D01*
X399510Y63843D01*
X399223Y63721D01*
X398926Y63625D01*
X398621Y63556D01*
X398312Y63514D01*
X398002Y63500D01*
Y70500D01*
X398312Y70486D01*
X398621Y70444D01*
X398926Y70375D01*
X399223Y70279D01*
X399510Y70157D01*
X399786Y70010D01*
X399855Y69974D01*
X399931Y69951D01*
X400009Y69940D01*
X400087Y69941D01*
X400165Y69954D01*
X400239Y69980D01*
X400309Y70016D01*
X400372Y70064D01*
X400427Y70120D01*
X400472Y70184D01*
X400507Y70255D01*
X400530Y70330D01*
X400541Y70408D01*
X400540Y70487D01*
X400527Y70564D01*
X400501Y70639D01*
X400465Y70708D01*
X400417Y70771D01*
X400361Y70826D01*
X400296Y70870D01*
X399944Y71064D01*
X399574Y71221D01*
X399191Y71344D01*
X398800Y71433D01*
X398401Y71487D01*
X398002Y71504D01*
Y108000D01*
G37*
G36*
Y2000D02*X392993D01*
Y52487D01*
X393000Y52486D01*
X393706Y52542D01*
X394395Y52707D01*
X395049Y52978D01*
X395653Y53348D01*
X396192Y53808D01*
X396652Y54347D01*
X397022Y54951D01*
X397293Y55605D01*
X397458Y56294D01*
X397500Y57000D01*
X397458Y57706D01*
X397293Y58395D01*
X397022Y59049D01*
X396652Y59653D01*
X396192Y60192D01*
X395653Y60652D01*
X395049Y61022D01*
X394395Y61293D01*
X393706Y61458D01*
X393000Y61514D01*
X392993Y61513D01*
Y68289D01*
X393000Y68289D01*
X393581Y68334D01*
X393712Y68366D01*
X393656Y68191D01*
X393567Y67800D01*
X393513Y67401D01*
X393496Y67000D01*
X393513Y66599D01*
X393567Y66200D01*
X393656Y65809D01*
X393779Y65426D01*
X393936Y65056D01*
X394126Y64702D01*
X394171Y64637D01*
X394226Y64580D01*
X394290Y64532D01*
X394360Y64496D01*
X394435Y64470D01*
X394513Y64456D01*
X394592Y64455D01*
X394671Y64467D01*
X394746Y64490D01*
X394817Y64525D01*
X394882Y64571D01*
X394939Y64626D01*
X394987Y64689D01*
X395024Y64759D01*
X395049Y64834D01*
X395063Y64912D01*
X395064Y64992D01*
X395052Y65070D01*
X395029Y65146D01*
X394993Y65216D01*
X394843Y65490D01*
X394721Y65777D01*
X394625Y66074D01*
X394556Y66379D01*
X394514Y66688D01*
X394500Y67000D01*
X394514Y67312D01*
X394556Y67621D01*
X394625Y67926D01*
X394721Y68223D01*
X394843Y68510D01*
X394990Y68786D01*
X395026Y68855D01*
X395044Y68913D01*
X395182Y68997D01*
X395624Y69376D01*
X396003Y69818D01*
X396084Y69952D01*
X396146Y69971D01*
X396216Y70007D01*
X396490Y70157D01*
X396777Y70279D01*
X397074Y70375D01*
X397379Y70444D01*
X397688Y70486D01*
X398000Y70500D01*
X398002Y70500D01*
Y63500D01*
X398000Y63500D01*
X397688Y63514D01*
X397379Y63556D01*
X397074Y63625D01*
X396777Y63721D01*
X396490Y63843D01*
X396214Y63990D01*
X396145Y64026D01*
X396069Y64049D01*
X395991Y64060D01*
X395913Y64059D01*
X395835Y64046D01*
X395761Y64020D01*
X395691Y63984D01*
X395628Y63936D01*
X395573Y63880D01*
X395528Y63816D01*
X395493Y63745D01*
X395470Y63670D01*
X395459Y63592D01*
X395460Y63513D01*
X395473Y63436D01*
X395499Y63361D01*
X395535Y63292D01*
X395583Y63229D01*
X395639Y63174D01*
X395704Y63130D01*
X396056Y62936D01*
X396426Y62779D01*
X396809Y62656D01*
X397200Y62567D01*
X397599Y62513D01*
X398000Y62496D01*
X398002Y62496D01*
Y2000D01*
G37*
G36*
X392993Y108000D02*X398002D01*
Y71504D01*
X398000Y71504D01*
X397599Y71487D01*
X397200Y71433D01*
X396809Y71344D01*
X396634Y71288D01*
X396666Y71419D01*
X396700Y72000D01*
X396666Y72581D01*
X396530Y73147D01*
X396307Y73685D01*
X396003Y74182D01*
X395624Y74624D01*
X395182Y75003D01*
X394685Y75307D01*
X394147Y75530D01*
X393581Y75666D01*
X393000Y75711D01*
X392993Y75711D01*
Y108000D01*
G37*
G36*
Y2000D02*X383616D01*
Y24415D01*
X384234Y24671D01*
X385335Y25346D01*
X386316Y26184D01*
X387154Y27165D01*
X387829Y28266D01*
X388323Y29458D01*
X388624Y30713D01*
X388700Y32000D01*
X388624Y33287D01*
X388323Y34542D01*
X387829Y35734D01*
X387154Y36835D01*
X386316Y37816D01*
X385335Y38654D01*
X384234Y39329D01*
X383616Y39585D01*
Y65500D01*
X383751D01*
X383978Y64951D01*
X384348Y64347D01*
X384808Y63808D01*
X385347Y63348D01*
X385951Y62978D01*
X386605Y62707D01*
X387294Y62542D01*
X388000Y62486D01*
X388706Y62542D01*
X389395Y62707D01*
X390049Y62978D01*
X390653Y63348D01*
X391192Y63808D01*
X391652Y64347D01*
X392022Y64951D01*
X392293Y65605D01*
X392458Y66294D01*
X392500Y67000D01*
X392458Y67706D01*
X392301Y68363D01*
X392419Y68334D01*
X392993Y68289D01*
Y61513D01*
X392294Y61458D01*
X391605Y61293D01*
X390951Y61022D01*
X390347Y60652D01*
X389808Y60192D01*
X389348Y59653D01*
X388978Y59049D01*
X388707Y58395D01*
X388542Y57706D01*
X388486Y57000D01*
X388542Y56294D01*
X388707Y55605D01*
X388978Y54951D01*
X389348Y54347D01*
X389808Y53808D01*
X390347Y53348D01*
X390951Y52978D01*
X391605Y52707D01*
X392294Y52542D01*
X392993Y52487D01*
Y2000D01*
G37*
G36*
X383616Y108000D02*X392993D01*
Y75711D01*
X392419Y75666D01*
X391853Y75530D01*
X391315Y75307D01*
X390818Y75003D01*
X390376Y74624D01*
X389997Y74182D01*
X389693Y73685D01*
X389616Y73500D01*
X383616D01*
Y108000D01*
G37*
G36*
X354993D02*X383616D01*
Y73500D01*
X371865D01*
X371772Y73651D01*
X371486Y73986D01*
X371151Y74272D01*
X370775Y74503D01*
X370368Y74671D01*
X369939Y74774D01*
X369500Y74809D01*
X369061Y74774D01*
X368632Y74671D01*
X368225Y74503D01*
X367849Y74272D01*
X367514Y73986D01*
X367228Y73651D01*
X366997Y73275D01*
X366829Y72868D01*
X366726Y72439D01*
X366691Y72000D01*
X366726Y71561D01*
X366829Y71132D01*
X366997Y70725D01*
X367228Y70349D01*
X367514Y70014D01*
X367849Y69728D01*
X368225Y69497D01*
X368632Y69329D01*
X369061Y69226D01*
X369500Y69191D01*
X369939Y69226D01*
X370368Y69329D01*
X370775Y69497D01*
X371151Y69728D01*
X371486Y70014D01*
X371772Y70349D01*
X371865Y70500D01*
X373556D01*
X373142Y70246D01*
X372663Y69837D01*
X372254Y69358D01*
X371925Y68822D01*
X371684Y68240D01*
X371537Y67628D01*
X371488Y67000D01*
X371500Y66837D01*
X371509Y63843D01*
X371546Y63690D01*
X371583Y63600D01*
X371546Y63510D01*
X371509Y63357D01*
X371500Y63200D01*
X371508Y60459D01*
X371488Y60200D01*
X371537Y59572D01*
X371684Y58960D01*
X371925Y58378D01*
X372254Y57842D01*
X372663Y57363D01*
X373142Y56954D01*
X373678Y56625D01*
X374260Y56384D01*
X374872Y56237D01*
X375500Y56188D01*
X376128Y56237D01*
X376740Y56384D01*
X377322Y56625D01*
X377858Y56954D01*
X378337Y57363D01*
X378746Y57842D01*
X379075Y58378D01*
X379316Y58960D01*
X379463Y59572D01*
X379491Y60043D01*
X379491Y60043D01*
X379500Y60200D01*
X379491Y63357D01*
X379454Y63510D01*
X379417Y63600D01*
X379454Y63690D01*
X379491Y63843D01*
X379500Y64000D01*
X379496Y65500D01*
X383616D01*
Y39585D01*
X383042Y39823D01*
X381787Y40124D01*
X380500Y40225D01*
X379213Y40124D01*
X377958Y39823D01*
X376766Y39329D01*
X375665Y38654D01*
X374684Y37816D01*
X373846Y36835D01*
X373171Y35734D01*
X372677Y34542D01*
X372376Y33287D01*
X372275Y32000D01*
X372376Y30713D01*
X372677Y29458D01*
X373171Y28266D01*
X373846Y27165D01*
X374684Y26184D01*
X375665Y25346D01*
X376766Y24671D01*
X377958Y24177D01*
X379213Y23876D01*
X380500Y23775D01*
X381787Y23876D01*
X383042Y24177D01*
X383616Y24415D01*
Y2000D01*
X354993D01*
Y6662D01*
X355009Y6669D01*
X356486Y7573D01*
X357802Y8698D01*
X358927Y10014D01*
X359831Y11491D01*
X360494Y13090D01*
X360898Y14774D01*
X361000Y16500D01*
X360898Y18226D01*
X360494Y19910D01*
X359831Y21509D01*
X358927Y22986D01*
X357802Y24302D01*
X356486Y25427D01*
X355009Y26331D01*
X354993Y26338D01*
Y31207D01*
X358235Y31214D01*
X358465Y31269D01*
X358683Y31359D01*
X358884Y31483D01*
X359064Y31636D01*
X359217Y31816D01*
X359341Y32017D01*
X359431Y32235D01*
X359486Y32465D01*
X359500Y32700D01*
X359486Y38935D01*
X359431Y39165D01*
X359341Y39383D01*
X359217Y39584D01*
X359064Y39764D01*
X358884Y39917D01*
X358683Y40041D01*
X358465Y40131D01*
X358235Y40186D01*
X358000Y40200D01*
X354993Y40193D01*
Y41187D01*
X355000Y41186D01*
X355706Y41242D01*
X356395Y41407D01*
X357049Y41678D01*
X357653Y42048D01*
X358192Y42508D01*
X358652Y43047D01*
X359022Y43651D01*
X359293Y44305D01*
X359458Y44994D01*
X359500Y45700D01*
X359458Y46406D01*
X359293Y47095D01*
X359022Y47749D01*
X358652Y48353D01*
X358192Y48892D01*
X357653Y49352D01*
X357049Y49722D01*
X356395Y49993D01*
X355706Y50158D01*
X355000Y50214D01*
X354993Y50213D01*
Y51187D01*
X355000Y51186D01*
X355706Y51242D01*
X356395Y51407D01*
X357049Y51678D01*
X357653Y52048D01*
X358192Y52508D01*
X358652Y53047D01*
X359022Y53651D01*
X359293Y54305D01*
X359458Y54994D01*
X359500Y55700D01*
X359458Y56406D01*
X359293Y57095D01*
X359022Y57749D01*
X358652Y58353D01*
X358192Y58892D01*
X357653Y59352D01*
X357049Y59722D01*
X356395Y59993D01*
X355706Y60158D01*
X355000Y60214D01*
X354993Y60213D01*
Y108000D01*
G37*
G36*
Y26338D02*X353410Y26994D01*
X351726Y27398D01*
X350000Y27534D01*
X348613Y27425D01*
Y28500D01*
X349241D01*
X349300Y28495D01*
X349535Y28514D01*
X349535Y28514D01*
X349765Y28569D01*
X349983Y28659D01*
X350184Y28783D01*
X350364Y28936D01*
X350402Y28981D01*
X352623Y31201D01*
X354993Y31207D01*
Y26338D01*
G37*
G36*
Y2000D02*X348613D01*
Y5575D01*
X350000Y5466D01*
X351726Y5602D01*
X353410Y6006D01*
X354993Y6662D01*
Y2000D01*
G37*
G36*
X348613Y108000D02*X354993D01*
Y60213D01*
X354294Y60158D01*
X353605Y59993D01*
X352951Y59722D01*
X352347Y59352D01*
X351808Y58892D01*
X351348Y58353D01*
X350978Y57749D01*
X350707Y57095D01*
X350542Y56406D01*
X350486Y55700D01*
X350542Y54994D01*
X350707Y54305D01*
X350978Y53651D01*
X351348Y53047D01*
X351808Y52508D01*
X352347Y52048D01*
X352951Y51678D01*
X353605Y51407D01*
X354294Y51242D01*
X354993Y51187D01*
Y50213D01*
X354294Y50158D01*
X353605Y49993D01*
X352951Y49722D01*
X352347Y49352D01*
X351808Y48892D01*
X351348Y48353D01*
X350978Y47749D01*
X350707Y47095D01*
X350542Y46406D01*
X350486Y45700D01*
X350542Y44994D01*
X350707Y44305D01*
X350978Y43651D01*
X351348Y43047D01*
X351808Y42508D01*
X352347Y42048D01*
X352951Y41678D01*
X353605Y41407D01*
X354294Y41242D01*
X354993Y41187D01*
Y40193D01*
X351765Y40186D01*
X351535Y40131D01*
X351317Y40041D01*
X351116Y39917D01*
X350936Y39764D01*
X350783Y39584D01*
X350659Y39383D01*
X350569Y39165D01*
X350514Y38935D01*
X350500Y38700D01*
X350512Y33333D01*
X348679Y31500D01*
X348613D01*
Y33002D01*
X348652Y33047D01*
X349022Y33651D01*
X349293Y34305D01*
X349458Y34994D01*
X349500Y35700D01*
X349458Y36406D01*
X349293Y37095D01*
X349022Y37749D01*
X348652Y38353D01*
X348613Y38398D01*
Y43002D01*
X348652Y43047D01*
X349022Y43651D01*
X349293Y44305D01*
X349458Y44994D01*
X349500Y45700D01*
X349458Y46406D01*
X349293Y47095D01*
X349022Y47749D01*
X348652Y48353D01*
X348613Y48398D01*
Y53553D01*
X348656Y53560D01*
X348768Y53597D01*
X348873Y53652D01*
X348968Y53722D01*
X349051Y53806D01*
X349119Y53902D01*
X349170Y54008D01*
X349318Y54416D01*
X349422Y54837D01*
X349484Y55267D01*
X349505Y55700D01*
X349484Y56133D01*
X349422Y56563D01*
X349318Y56984D01*
X349175Y57394D01*
X349122Y57500D01*
X349053Y57596D01*
X348970Y57681D01*
X348875Y57751D01*
X348769Y57806D01*
X348657Y57843D01*
X348613Y57851D01*
Y108000D01*
G37*
G36*
Y38398D02*X348192Y38892D01*
X347653Y39352D01*
X347049Y39722D01*
X346998Y39743D01*
Y41657D01*
X347049Y41678D01*
X347653Y42048D01*
X348192Y42508D01*
X348613Y43002D01*
Y38398D01*
G37*
G36*
Y31500D02*X346998D01*
Y31657D01*
X347049Y31678D01*
X347653Y32048D01*
X348192Y32508D01*
X348613Y33002D01*
Y31500D01*
G37*
G36*
Y27425D02*X348274Y27398D01*
X346998Y27092D01*
Y28500D01*
X348613D01*
Y27425D01*
G37*
G36*
Y2000D02*X346998D01*
Y5908D01*
X348274Y5602D01*
X348613Y5575D01*
Y2000D01*
G37*
G36*
X346998Y108000D02*X348613D01*
Y57851D01*
X348540Y57863D01*
X348421Y57864D01*
X348304Y57846D01*
X348191Y57810D01*
X348085Y57757D01*
X347988Y57688D01*
X347904Y57605D01*
X347833Y57509D01*
X347779Y57404D01*
X347741Y57292D01*
X347722Y57175D01*
X347721Y57056D01*
X347739Y56939D01*
X347777Y56826D01*
X347876Y56555D01*
X347944Y56275D01*
X347986Y55989D01*
X348000Y55700D01*
X347986Y55411D01*
X347944Y55125D01*
X347876Y54845D01*
X347780Y54572D01*
X347742Y54461D01*
X347725Y54344D01*
X347725Y54226D01*
X347745Y54109D01*
X347782Y53997D01*
X347836Y53893D01*
X347906Y53798D01*
X347991Y53715D01*
X348087Y53646D01*
X348192Y53593D01*
X348305Y53557D01*
X348421Y53540D01*
X348539Y53541D01*
X348613Y53553D01*
Y48398D01*
X348192Y48892D01*
X347653Y49352D01*
X347049Y49722D01*
X346998Y49743D01*
Y51753D01*
X347051Y51825D01*
X347106Y51931D01*
X347143Y52043D01*
X347163Y52160D01*
X347164Y52279D01*
X347146Y52396D01*
X347110Y52509D01*
X347057Y52615D01*
X346998Y52698D01*
Y58708D01*
X347054Y58787D01*
X347107Y58892D01*
X347143Y59005D01*
X347160Y59121D01*
X347159Y59239D01*
X347140Y59356D01*
X347103Y59468D01*
X347048Y59573D01*
X346998Y59641D01*
Y108000D01*
G37*
G36*
Y31500D02*X346619D01*
X346998Y31657D01*
Y31500D01*
G37*
G36*
X341387Y9647D02*X342198Y8698D01*
X343514Y7573D01*
X344991Y6669D01*
X346590Y6006D01*
X346998Y5908D01*
Y2000D01*
X341387D01*
Y9647D01*
G37*
G36*
Y28500D02*X346998D01*
Y27092D01*
X346590Y26994D01*
X344991Y26331D01*
X343514Y25427D01*
X342198Y24302D01*
X341387Y23353D01*
Y28500D01*
G37*
G36*
Y33002D02*X341808Y32508D01*
X342347Y32048D01*
X342951Y31678D01*
X343381Y31500D01*
X341387D01*
Y33002D01*
G37*
G36*
Y43002D02*X341808Y42508D01*
X342347Y42048D01*
X342951Y41678D01*
X343605Y41407D01*
X344294Y41242D01*
X345000Y41186D01*
X345706Y41242D01*
X346395Y41407D01*
X346998Y41657D01*
Y39743D01*
X346395Y39993D01*
X345706Y40158D01*
X345000Y40214D01*
X344294Y40158D01*
X343605Y39993D01*
X342951Y39722D01*
X342347Y39352D01*
X341808Y38892D01*
X341387Y38398D01*
Y43002D01*
G37*
G36*
Y108000D02*X346998D01*
Y59641D01*
X346978Y59668D01*
X346894Y59751D01*
X346798Y59819D01*
X346692Y59870D01*
X346284Y60018D01*
X345863Y60122D01*
X345433Y60184D01*
X345000Y60205D01*
X344567Y60184D01*
X344137Y60122D01*
X343716Y60018D01*
X343306Y59875D01*
X343200Y59822D01*
X343104Y59753D01*
X343019Y59670D01*
X342949Y59575D01*
X342894Y59469D01*
X342857Y59357D01*
X342837Y59240D01*
X342836Y59121D01*
X342854Y59004D01*
X342890Y58891D01*
X342943Y58785D01*
X343012Y58688D01*
X343095Y58604D01*
X343191Y58533D01*
X343296Y58479D01*
X343408Y58441D01*
X343525Y58422D01*
X343644Y58421D01*
X343761Y58439D01*
X343874Y58477D01*
X344145Y58576D01*
X344425Y58644D01*
X344711Y58686D01*
X345000Y58700D01*
X345289Y58686D01*
X345575Y58644D01*
X345855Y58576D01*
X346128Y58480D01*
X346239Y58442D01*
X346356Y58425D01*
X346474Y58425D01*
X346591Y58445D01*
X346703Y58482D01*
X346807Y58536D01*
X346902Y58606D01*
X346985Y58691D01*
X346998Y58708D01*
Y52698D01*
X346988Y52712D01*
X346905Y52796D01*
X346809Y52867D01*
X346704Y52921D01*
X346592Y52959D01*
X346475Y52978D01*
X346356Y52979D01*
X346239Y52961D01*
X346126Y52923D01*
X345855Y52824D01*
X345575Y52756D01*
X345289Y52714D01*
X345000Y52700D01*
X344711Y52714D01*
X344425Y52756D01*
X344145Y52824D01*
X343872Y52920D01*
X343761Y52958D01*
X343644Y52975D01*
X343526Y52975D01*
X343409Y52955D01*
X343297Y52918D01*
X343193Y52864D01*
X343098Y52794D01*
X343015Y52709D01*
X342946Y52613D01*
X342893Y52508D01*
X342857Y52395D01*
X342840Y52279D01*
X342841Y52161D01*
X342860Y52044D01*
X342897Y51932D01*
X342952Y51827D01*
X343022Y51732D01*
X343106Y51649D01*
X343202Y51581D01*
X343308Y51530D01*
X343716Y51382D01*
X344137Y51278D01*
X344567Y51216D01*
X345000Y51195D01*
X345433Y51216D01*
X345863Y51278D01*
X346284Y51382D01*
X346694Y51525D01*
X346800Y51578D01*
X346896Y51647D01*
X346981Y51730D01*
X346998Y51753D01*
Y49743D01*
X346395Y49993D01*
X345706Y50158D01*
X345000Y50214D01*
X344294Y50158D01*
X343605Y49993D01*
X342951Y49722D01*
X342347Y49352D01*
X341808Y48892D01*
X341387Y48398D01*
Y53549D01*
X341460Y53537D01*
X341579Y53536D01*
X341696Y53554D01*
X341809Y53590D01*
X341915Y53643D01*
X342012Y53712D01*
X342096Y53795D01*
X342167Y53891D01*
X342221Y53996D01*
X342259Y54108D01*
X342278Y54225D01*
X342279Y54344D01*
X342261Y54461D01*
X342223Y54574D01*
X342124Y54845D01*
X342056Y55125D01*
X342014Y55411D01*
X342000Y55700D01*
X342014Y55989D01*
X342056Y56275D01*
X342124Y56555D01*
X342220Y56828D01*
X342258Y56939D01*
X342275Y57056D01*
X342275Y57174D01*
X342255Y57291D01*
X342218Y57403D01*
X342164Y57507D01*
X342094Y57602D01*
X342009Y57685D01*
X341913Y57754D01*
X341808Y57807D01*
X341695Y57843D01*
X341579Y57860D01*
X341461Y57859D01*
X341387Y57847D01*
Y78212D01*
X341652Y78191D01*
X342091Y78226D01*
X342520Y78329D01*
X342927Y78497D01*
X343303Y78728D01*
X343638Y79014D01*
X343924Y79349D01*
X344154Y79725D01*
X344323Y80132D01*
X344426Y80561D01*
X344452Y81000D01*
X344426Y81439D01*
X344323Y81868D01*
X344154Y82275D01*
X343924Y82651D01*
X343638Y82986D01*
X343303Y83272D01*
X342927Y83503D01*
X342520Y83671D01*
X342091Y83774D01*
X341652Y83809D01*
X341387Y83788D01*
Y108000D01*
G37*
G36*
Y48398D02*X341348Y48353D01*
X340978Y47749D01*
X340707Y47095D01*
X340542Y46406D01*
X340486Y45700D01*
X340542Y44994D01*
X340707Y44305D01*
X340978Y43651D01*
X341348Y43047D01*
X341387Y43002D01*
Y38398D01*
X341348Y38353D01*
X340978Y37749D01*
X340707Y37095D01*
X340542Y36406D01*
X340486Y35700D01*
X340542Y34994D01*
X340707Y34305D01*
X340978Y33651D01*
X341348Y33047D01*
X341387Y33002D01*
Y31500D01*
X338621D01*
X337500Y32621D01*
Y74727D01*
X341041Y78267D01*
X341213Y78226D01*
X341387Y78212D01*
Y57847D01*
X341344Y57840D01*
X341232Y57803D01*
X341127Y57748D01*
X341032Y57678D01*
X340949Y57594D01*
X340881Y57498D01*
X340830Y57392D01*
X340682Y56984D01*
X340578Y56563D01*
X340516Y56133D01*
X340495Y55700D01*
X340516Y55267D01*
X340578Y54837D01*
X340682Y54416D01*
X340825Y54006D01*
X340878Y53900D01*
X340947Y53804D01*
X341030Y53719D01*
X341125Y53649D01*
X341231Y53594D01*
X341343Y53557D01*
X341387Y53549D01*
Y48398D01*
G37*
G36*
X332000Y108000D02*X341387D01*
Y83788D01*
X341213Y83774D01*
X340784Y83671D01*
X340377Y83503D01*
X340001Y83272D01*
X339666Y82986D01*
X339380Y82651D01*
X339149Y82275D01*
X338981Y81868D01*
X338878Y81439D01*
X338843Y81000D01*
X338878Y80561D01*
X338919Y80389D01*
X334981Y76450D01*
X334936Y76412D01*
X334783Y76232D01*
X334659Y76031D01*
X334569Y75813D01*
X334514Y75583D01*
X334514Y75583D01*
X334495Y75348D01*
X334500Y75289D01*
Y32059D01*
X334495Y32000D01*
X334514Y31765D01*
X334569Y31535D01*
X334659Y31317D01*
X334783Y31116D01*
X334936Y30936D01*
X334981Y30898D01*
X336898Y28981D01*
X336936Y28936D01*
X337115Y28783D01*
X337116Y28783D01*
X337317Y28659D01*
X337535Y28569D01*
X337765Y28514D01*
X338000Y28495D01*
X338059Y28500D01*
X341387D01*
Y23353D01*
X341073Y22986D01*
X340169Y21509D01*
X339506Y19910D01*
X339102Y18226D01*
X338966Y16500D01*
X339102Y14774D01*
X339506Y13090D01*
X340169Y11491D01*
X341073Y10014D01*
X341387Y9647D01*
Y2000D01*
X332000D01*
Y108000D01*
G37*
G36*
X522993Y28696D02*X523171Y28266D01*
X523846Y27165D01*
X524684Y26184D01*
X525665Y25346D01*
X526766Y24671D01*
X527958Y24177D01*
X529213Y23876D01*
X530500Y23775D01*
X531787Y23876D01*
X533042Y24177D01*
X534234Y24671D01*
X535335Y25346D01*
X536316Y26184D01*
X537154Y27165D01*
X537829Y28266D01*
X538000Y28679D01*
Y2000D01*
X522993D01*
Y28696D01*
G37*
G36*
Y108000D02*X538000D01*
Y35321D01*
X537829Y35734D01*
X537154Y36835D01*
X536316Y37816D01*
X535335Y38654D01*
X534234Y39329D01*
X533042Y39823D01*
X531787Y40124D01*
X530500Y40225D01*
X529213Y40124D01*
X527958Y39823D01*
X526766Y39329D01*
X525665Y38654D01*
X524684Y37816D01*
X523846Y36835D01*
X523171Y35734D01*
X522993Y35304D01*
Y52487D01*
X523000Y52486D01*
X523706Y52542D01*
X524395Y52707D01*
X525049Y52978D01*
X525653Y53348D01*
X526192Y53808D01*
X526652Y54347D01*
X527022Y54951D01*
X527293Y55605D01*
X527458Y56294D01*
X527500Y57000D01*
X527458Y57706D01*
X527293Y58395D01*
X527022Y59049D01*
X526652Y59653D01*
X526192Y60192D01*
X525653Y60652D01*
X525049Y61022D01*
X524395Y61293D01*
X523706Y61458D01*
X523000Y61514D01*
X522993Y61513D01*
Y108000D01*
G37*
G36*
X517993D02*X522993D01*
Y61513D01*
X522294Y61458D01*
X521605Y61293D01*
X520951Y61022D01*
X520347Y60652D01*
X519808Y60192D01*
X519348Y59653D01*
X518978Y59049D01*
X518707Y58395D01*
X518542Y57706D01*
X518486Y57000D01*
X518542Y56294D01*
X518707Y55605D01*
X518978Y54951D01*
X519348Y54347D01*
X519808Y53808D01*
X520347Y53348D01*
X520951Y52978D01*
X521605Y52707D01*
X522294Y52542D01*
X522993Y52487D01*
Y35304D01*
X522677Y34542D01*
X522376Y33287D01*
X522275Y32000D01*
X522376Y30713D01*
X522677Y29458D01*
X522993Y28696D01*
Y2000D01*
X517993D01*
Y62487D01*
X518000Y62486D01*
X518706Y62542D01*
X519395Y62707D01*
X520049Y62978D01*
X520653Y63348D01*
X521192Y63808D01*
X521652Y64347D01*
X522022Y64951D01*
X522293Y65605D01*
X522458Y66294D01*
X522500Y67000D01*
X522458Y67706D01*
X522293Y68395D01*
X522022Y69049D01*
X521652Y69653D01*
X521192Y70192D01*
X520653Y70652D01*
X520049Y71022D01*
X519395Y71293D01*
X518706Y71458D01*
X518000Y71514D01*
X517993Y71513D01*
Y108000D01*
G37*
G36*
X511720D02*X517993D01*
Y71513D01*
X517294Y71458D01*
X516605Y71293D01*
X515951Y71022D01*
X515347Y70652D01*
X514808Y70192D01*
X514348Y69653D01*
X513978Y69049D01*
X513707Y68395D01*
X513542Y67706D01*
X513486Y67000D01*
X513542Y66294D01*
X513707Y65605D01*
X513978Y64951D01*
X514348Y64347D01*
X514808Y63808D01*
X515347Y63348D01*
X515951Y62978D01*
X516605Y62707D01*
X517294Y62542D01*
X517993Y62487D01*
Y2000D01*
X511720D01*
Y52679D01*
X512294Y52542D01*
X513000Y52486D01*
X513706Y52542D01*
X514395Y52707D01*
X515049Y52978D01*
X515653Y53348D01*
X516192Y53808D01*
X516652Y54347D01*
X517022Y54951D01*
X517293Y55605D01*
X517458Y56294D01*
X517500Y57000D01*
X517458Y57706D01*
X517293Y58395D01*
X517022Y59049D01*
X516652Y59653D01*
X516192Y60192D01*
X515653Y60652D01*
X515049Y61022D01*
X514395Y61293D01*
X513706Y61458D01*
X513000Y61514D01*
X512294Y61458D01*
X511720Y61321D01*
Y64544D01*
X511771Y64583D01*
X511826Y64639D01*
X511870Y64704D01*
X512064Y65056D01*
X512221Y65426D01*
X512344Y65809D01*
X512433Y66200D01*
X512487Y66599D01*
X512504Y67000D01*
X512487Y67401D01*
X512433Y67800D01*
X512344Y68191D01*
X512221Y68574D01*
X512064Y68944D01*
X511874Y69298D01*
X511829Y69363D01*
X511774Y69420D01*
X511720Y69460D01*
Y108000D01*
G37*
G36*
X508002D02*X511720D01*
Y69460D01*
X511710Y69468D01*
X511640Y69504D01*
X511565Y69530D01*
X511487Y69544D01*
X511408Y69545D01*
X511329Y69533D01*
X511254Y69510D01*
X511183Y69475D01*
X511118Y69429D01*
X511061Y69374D01*
X511013Y69311D01*
X510976Y69241D01*
X510951Y69166D01*
X510937Y69088D01*
X510936Y69008D01*
X510948Y68930D01*
X510971Y68854D01*
X511007Y68784D01*
X511157Y68510D01*
X511279Y68223D01*
X511375Y67926D01*
X511444Y67621D01*
X511486Y67312D01*
X511500Y67000D01*
X511486Y66688D01*
X511444Y66379D01*
X511375Y66074D01*
X511279Y65777D01*
X511157Y65490D01*
X511010Y65214D01*
X510974Y65145D01*
X510951Y65069D01*
X510940Y64991D01*
X510941Y64913D01*
X510954Y64835D01*
X510980Y64761D01*
X511016Y64691D01*
X511064Y64628D01*
X511120Y64573D01*
X511184Y64528D01*
X511255Y64493D01*
X511330Y64470D01*
X511408Y64459D01*
X511487Y64460D01*
X511564Y64473D01*
X511639Y64499D01*
X511708Y64535D01*
X511720Y64544D01*
Y61321D01*
X511605Y61293D01*
X510951Y61022D01*
X510347Y60652D01*
X509808Y60192D01*
X509348Y59653D01*
X508978Y59049D01*
X508707Y58395D01*
X508542Y57706D01*
X508486Y57000D01*
X508542Y56294D01*
X508707Y55605D01*
X508978Y54951D01*
X509348Y54347D01*
X509808Y53808D01*
X510347Y53348D01*
X510951Y52978D01*
X511605Y52707D01*
X511720Y52679D01*
Y2000D01*
X508002D01*
Y62496D01*
X508401Y62513D01*
X508800Y62567D01*
X509191Y62656D01*
X509574Y62779D01*
X509944Y62936D01*
X510298Y63126D01*
X510363Y63171D01*
X510420Y63226D01*
X510468Y63290D01*
X510504Y63360D01*
X510530Y63435D01*
X510544Y63513D01*
X510545Y63592D01*
X510533Y63671D01*
X510510Y63746D01*
X510475Y63817D01*
X510429Y63882D01*
X510374Y63939D01*
X510311Y63987D01*
X510241Y64024D01*
X510166Y64049D01*
X510088Y64063D01*
X510008Y64064D01*
X509930Y64052D01*
X509854Y64029D01*
X509784Y63993D01*
X509510Y63843D01*
X509223Y63721D01*
X508926Y63625D01*
X508621Y63556D01*
X508312Y63514D01*
X508002Y63500D01*
Y70500D01*
X508312Y70486D01*
X508621Y70444D01*
X508926Y70375D01*
X509223Y70279D01*
X509510Y70157D01*
X509786Y70010D01*
X509855Y69974D01*
X509931Y69951D01*
X510009Y69940D01*
X510087Y69941D01*
X510165Y69954D01*
X510239Y69980D01*
X510309Y70016D01*
X510372Y70064D01*
X510427Y70120D01*
X510472Y70184D01*
X510507Y70255D01*
X510530Y70330D01*
X510541Y70408D01*
X510540Y70487D01*
X510527Y70564D01*
X510501Y70639D01*
X510465Y70708D01*
X510417Y70771D01*
X510361Y70826D01*
X510296Y70870D01*
X509944Y71064D01*
X509574Y71221D01*
X509191Y71344D01*
X508800Y71433D01*
X508401Y71487D01*
X508002Y71504D01*
Y108000D01*
G37*
G36*
Y2000D02*X502993D01*
Y52487D01*
X503000Y52486D01*
X503706Y52542D01*
X504395Y52707D01*
X505049Y52978D01*
X505653Y53348D01*
X506192Y53808D01*
X506652Y54347D01*
X507022Y54951D01*
X507293Y55605D01*
X507458Y56294D01*
X507500Y57000D01*
X507458Y57706D01*
X507293Y58395D01*
X507022Y59049D01*
X506652Y59653D01*
X506192Y60192D01*
X505653Y60652D01*
X505049Y61022D01*
X504395Y61293D01*
X503706Y61458D01*
X503000Y61514D01*
X502993Y61513D01*
Y68289D01*
X503000Y68289D01*
X503581Y68334D01*
X503712Y68366D01*
X503656Y68191D01*
X503567Y67800D01*
X503513Y67401D01*
X503496Y67000D01*
X503513Y66599D01*
X503567Y66200D01*
X503656Y65809D01*
X503779Y65426D01*
X503936Y65056D01*
X504126Y64702D01*
X504171Y64637D01*
X504226Y64580D01*
X504290Y64532D01*
X504360Y64496D01*
X504435Y64470D01*
X504513Y64456D01*
X504592Y64455D01*
X504671Y64467D01*
X504746Y64490D01*
X504817Y64525D01*
X504882Y64571D01*
X504939Y64626D01*
X504987Y64689D01*
X505023Y64759D01*
X505049Y64834D01*
X505063Y64912D01*
X505064Y64992D01*
X505052Y65070D01*
X505029Y65146D01*
X504993Y65216D01*
X504843Y65490D01*
X504721Y65777D01*
X504625Y66074D01*
X504556Y66379D01*
X504514Y66688D01*
X504500Y67000D01*
X504514Y67312D01*
X504556Y67621D01*
X504625Y67926D01*
X504721Y68223D01*
X504843Y68510D01*
X504990Y68786D01*
X505026Y68855D01*
X505044Y68913D01*
X505182Y68997D01*
X505624Y69376D01*
X506003Y69818D01*
X506084Y69952D01*
X506146Y69971D01*
X506216Y70007D01*
X506490Y70157D01*
X506777Y70279D01*
X507074Y70375D01*
X507379Y70444D01*
X507688Y70486D01*
X508000Y70500D01*
X508002Y70500D01*
Y63500D01*
X508000Y63500D01*
X507688Y63514D01*
X507379Y63556D01*
X507074Y63625D01*
X506777Y63721D01*
X506490Y63843D01*
X506214Y63990D01*
X506145Y64026D01*
X506069Y64049D01*
X505991Y64060D01*
X505913Y64059D01*
X505835Y64046D01*
X505761Y64020D01*
X505691Y63984D01*
X505628Y63936D01*
X505573Y63880D01*
X505528Y63816D01*
X505493Y63745D01*
X505470Y63670D01*
X505459Y63592D01*
X505460Y63513D01*
X505473Y63436D01*
X505499Y63361D01*
X505535Y63292D01*
X505583Y63229D01*
X505639Y63174D01*
X505704Y63130D01*
X506056Y62936D01*
X506426Y62779D01*
X506809Y62656D01*
X507200Y62567D01*
X507599Y62513D01*
X508000Y62496D01*
X508002Y62496D01*
Y2000D01*
G37*
G36*
X502993D02*X493616D01*
Y24415D01*
X494234Y24671D01*
X495335Y25346D01*
X496316Y26184D01*
X497154Y27165D01*
X497829Y28266D01*
X498323Y29458D01*
X498624Y30713D01*
X498700Y32000D01*
X498624Y33287D01*
X498323Y34542D01*
X497829Y35734D01*
X497154Y36835D01*
X496316Y37816D01*
X495335Y38654D01*
X494234Y39329D01*
X493616Y39585D01*
Y65500D01*
X493751D01*
X493978Y64951D01*
X494348Y64347D01*
X494808Y63808D01*
X495347Y63348D01*
X495951Y62978D01*
X496605Y62707D01*
X497294Y62542D01*
X498000Y62486D01*
X498706Y62542D01*
X499395Y62707D01*
X500049Y62978D01*
X500653Y63348D01*
X501192Y63808D01*
X501652Y64347D01*
X502022Y64951D01*
X502293Y65605D01*
X502458Y66294D01*
X502500Y67000D01*
X502458Y67706D01*
X502301Y68363D01*
X502419Y68334D01*
X502993Y68289D01*
Y61513D01*
X502294Y61458D01*
X501605Y61293D01*
X500951Y61022D01*
X500347Y60652D01*
X499808Y60192D01*
X499348Y59653D01*
X498978Y59049D01*
X498707Y58395D01*
X498542Y57706D01*
X498486Y57000D01*
X498542Y56294D01*
X498707Y55605D01*
X498978Y54951D01*
X499348Y54347D01*
X499808Y53808D01*
X500347Y53348D01*
X500951Y52978D01*
X501605Y52707D01*
X502294Y52542D01*
X502993Y52487D01*
Y2000D01*
G37*
G36*
X493616Y108000D02*X508002D01*
Y71504D01*
X508000Y71504D01*
X507599Y71487D01*
X507200Y71433D01*
X506809Y71344D01*
X506634Y71288D01*
X506666Y71419D01*
X506700Y72000D01*
X506666Y72581D01*
X506530Y73147D01*
X506307Y73685D01*
X506003Y74182D01*
X505624Y74624D01*
X505182Y75003D01*
X504685Y75307D01*
X504147Y75530D01*
X503581Y75666D01*
X503000Y75711D01*
X502419Y75666D01*
X501853Y75530D01*
X501315Y75307D01*
X500818Y75003D01*
X500376Y74624D01*
X499997Y74182D01*
X499693Y73685D01*
X499616Y73500D01*
X493616D01*
Y108000D01*
G37*
G36*
X464993D02*X493616D01*
Y73500D01*
X481865D01*
X481772Y73651D01*
X481486Y73986D01*
X481151Y74272D01*
X480775Y74503D01*
X480368Y74671D01*
X479939Y74774D01*
X479500Y74809D01*
X479061Y74774D01*
X478632Y74671D01*
X478225Y74503D01*
X477849Y74272D01*
X477514Y73986D01*
X477228Y73651D01*
X476997Y73275D01*
X476829Y72868D01*
X476726Y72439D01*
X476691Y72000D01*
X476726Y71561D01*
X476829Y71132D01*
X476997Y70725D01*
X477228Y70349D01*
X477514Y70014D01*
X477849Y69728D01*
X478225Y69497D01*
X478632Y69329D01*
X479061Y69226D01*
X479500Y69191D01*
X479939Y69226D01*
X480368Y69329D01*
X480775Y69497D01*
X481151Y69728D01*
X481486Y70014D01*
X481772Y70349D01*
X481865Y70500D01*
X483556D01*
X483142Y70246D01*
X482663Y69837D01*
X482254Y69358D01*
X481925Y68822D01*
X481684Y68240D01*
X481537Y67628D01*
X481488Y67000D01*
X481500Y66837D01*
X481509Y63843D01*
X481546Y63690D01*
X481583Y63600D01*
X481546Y63510D01*
X481509Y63357D01*
X481500Y63200D01*
X481508Y60459D01*
X481488Y60200D01*
X481537Y59572D01*
X481684Y58960D01*
X481925Y58378D01*
X482254Y57842D01*
X482663Y57363D01*
X483142Y56954D01*
X483678Y56625D01*
X484260Y56384D01*
X484872Y56237D01*
X485500Y56188D01*
X486128Y56237D01*
X486740Y56384D01*
X487322Y56625D01*
X487858Y56954D01*
X488337Y57363D01*
X488746Y57842D01*
X489075Y58378D01*
X489316Y58960D01*
X489463Y59572D01*
X489491Y60043D01*
X489491Y60043D01*
X489500Y60200D01*
X489491Y63357D01*
X489454Y63510D01*
X489417Y63600D01*
X489454Y63690D01*
X489491Y63843D01*
X489500Y64000D01*
X489496Y65500D01*
X493616D01*
Y39585D01*
X493042Y39823D01*
X491787Y40124D01*
X490500Y40225D01*
X489213Y40124D01*
X487958Y39823D01*
X486766Y39329D01*
X485665Y38654D01*
X484684Y37816D01*
X483846Y36835D01*
X483171Y35734D01*
X482677Y34542D01*
X482376Y33287D01*
X482275Y32000D01*
X482376Y30713D01*
X482677Y29458D01*
X483171Y28266D01*
X483846Y27165D01*
X484684Y26184D01*
X485665Y25346D01*
X486766Y24671D01*
X487958Y24177D01*
X489213Y23876D01*
X490500Y23775D01*
X491787Y23876D01*
X493042Y24177D01*
X493616Y24415D01*
Y2000D01*
X464993D01*
Y6662D01*
X465009Y6669D01*
X466486Y7573D01*
X467802Y8698D01*
X468927Y10014D01*
X469831Y11491D01*
X470494Y13090D01*
X470898Y14774D01*
X471000Y16500D01*
X470898Y18226D01*
X470494Y19910D01*
X469831Y21509D01*
X468927Y22986D01*
X467802Y24302D01*
X466486Y25427D01*
X465009Y26331D01*
X464993Y26338D01*
Y31207D01*
X468235Y31214D01*
X468465Y31269D01*
X468683Y31359D01*
X468884Y31483D01*
X469064Y31636D01*
X469217Y31816D01*
X469341Y32017D01*
X469431Y32235D01*
X469486Y32465D01*
X469500Y32700D01*
X469486Y38935D01*
X469431Y39165D01*
X469341Y39383D01*
X469217Y39584D01*
X469064Y39764D01*
X468884Y39917D01*
X468683Y40041D01*
X468465Y40131D01*
X468235Y40186D01*
X468000Y40200D01*
X464993Y40193D01*
Y41187D01*
X465000Y41186D01*
X465706Y41242D01*
X466395Y41407D01*
X467049Y41678D01*
X467653Y42048D01*
X468192Y42508D01*
X468652Y43047D01*
X469022Y43651D01*
X469293Y44305D01*
X469458Y44994D01*
X469500Y45700D01*
X469458Y46406D01*
X469293Y47095D01*
X469022Y47749D01*
X468652Y48353D01*
X468192Y48892D01*
X467653Y49352D01*
X467049Y49722D01*
X466395Y49993D01*
X465706Y50158D01*
X465000Y50214D01*
X464993Y50213D01*
Y51187D01*
X465000Y51186D01*
X465706Y51242D01*
X466395Y51407D01*
X467049Y51678D01*
X467653Y52048D01*
X468192Y52508D01*
X468652Y53047D01*
X469022Y53651D01*
X469293Y54305D01*
X469458Y54994D01*
X469500Y55700D01*
X469458Y56406D01*
X469293Y57095D01*
X469022Y57749D01*
X468652Y58353D01*
X468192Y58892D01*
X467653Y59352D01*
X467049Y59722D01*
X466395Y59993D01*
X465706Y60158D01*
X465000Y60214D01*
X464993Y60213D01*
Y108000D01*
G37*
G36*
Y26338D02*X463410Y26994D01*
X461726Y27398D01*
X460000Y27534D01*
X458613Y27425D01*
Y28500D01*
X459241D01*
X459300Y28495D01*
X459535Y28514D01*
X459535Y28514D01*
X459765Y28569D01*
X459983Y28659D01*
X460184Y28783D01*
X460364Y28936D01*
X460402Y28981D01*
X462623Y31201D01*
X464993Y31207D01*
Y26338D01*
G37*
G36*
Y2000D02*X458613D01*
Y5575D01*
X460000Y5466D01*
X461726Y5602D01*
X463410Y6006D01*
X464993Y6662D01*
Y2000D01*
G37*
G36*
X458613Y108000D02*X464993D01*
Y60213D01*
X464294Y60158D01*
X463605Y59993D01*
X462951Y59722D01*
X462347Y59352D01*
X461808Y58892D01*
X461348Y58353D01*
X460978Y57749D01*
X460707Y57095D01*
X460542Y56406D01*
X460486Y55700D01*
X460542Y54994D01*
X460707Y54305D01*
X460978Y53651D01*
X461348Y53047D01*
X461808Y52508D01*
X462347Y52048D01*
X462951Y51678D01*
X463605Y51407D01*
X464294Y51242D01*
X464993Y51187D01*
Y50213D01*
X464294Y50158D01*
X463605Y49993D01*
X462951Y49722D01*
X462347Y49352D01*
X461808Y48892D01*
X461348Y48353D01*
X460978Y47749D01*
X460707Y47095D01*
X460542Y46406D01*
X460486Y45700D01*
X460542Y44994D01*
X460707Y44305D01*
X460978Y43651D01*
X461348Y43047D01*
X461808Y42508D01*
X462347Y42048D01*
X462951Y41678D01*
X463605Y41407D01*
X464294Y41242D01*
X464993Y41187D01*
Y40193D01*
X461765Y40186D01*
X461535Y40131D01*
X461317Y40041D01*
X461116Y39917D01*
X460936Y39764D01*
X460783Y39584D01*
X460659Y39383D01*
X460569Y39165D01*
X460514Y38935D01*
X460500Y38700D01*
X460512Y33333D01*
X458679Y31500D01*
X458613D01*
Y33002D01*
X458652Y33047D01*
X459022Y33651D01*
X459293Y34305D01*
X459458Y34994D01*
X459500Y35700D01*
X459458Y36406D01*
X459293Y37095D01*
X459022Y37749D01*
X458652Y38353D01*
X458613Y38398D01*
Y43002D01*
X458652Y43047D01*
X459022Y43651D01*
X459293Y44305D01*
X459458Y44994D01*
X459500Y45700D01*
X459458Y46406D01*
X459293Y47095D01*
X459022Y47749D01*
X458652Y48353D01*
X458613Y48398D01*
Y53553D01*
X458656Y53560D01*
X458768Y53597D01*
X458873Y53652D01*
X458968Y53722D01*
X459051Y53806D01*
X459119Y53902D01*
X459170Y54008D01*
X459318Y54416D01*
X459422Y54837D01*
X459484Y55267D01*
X459505Y55700D01*
X459484Y56133D01*
X459422Y56563D01*
X459318Y56984D01*
X459175Y57394D01*
X459122Y57500D01*
X459053Y57596D01*
X458970Y57681D01*
X458875Y57751D01*
X458769Y57806D01*
X458657Y57843D01*
X458613Y57851D01*
Y108000D01*
G37*
G36*
Y38398D02*X458192Y38892D01*
X457653Y39352D01*
X457049Y39722D01*
X456998Y39743D01*
Y41657D01*
X457049Y41678D01*
X457653Y42048D01*
X458192Y42508D01*
X458613Y43002D01*
Y38398D01*
G37*
G36*
Y31500D02*X456998D01*
Y31657D01*
X457049Y31678D01*
X457653Y32048D01*
X458192Y32508D01*
X458613Y33002D01*
Y31500D01*
G37*
G36*
Y27425D02*X458274Y27398D01*
X456998Y27092D01*
Y28500D01*
X458613D01*
Y27425D01*
G37*
G36*
Y2000D02*X456998D01*
Y5908D01*
X458274Y5602D01*
X458613Y5575D01*
Y2000D01*
G37*
G36*
X456998Y108000D02*X458613D01*
Y57851D01*
X458540Y57863D01*
X458421Y57864D01*
X458304Y57846D01*
X458191Y57810D01*
X458085Y57757D01*
X457988Y57688D01*
X457904Y57605D01*
X457833Y57509D01*
X457779Y57404D01*
X457741Y57292D01*
X457722Y57175D01*
X457721Y57056D01*
X457739Y56939D01*
X457777Y56826D01*
X457876Y56555D01*
X457944Y56275D01*
X457986Y55989D01*
X458000Y55700D01*
X457986Y55411D01*
X457944Y55125D01*
X457876Y54845D01*
X457780Y54572D01*
X457742Y54461D01*
X457725Y54344D01*
X457725Y54226D01*
X457745Y54109D01*
X457782Y53997D01*
X457836Y53893D01*
X457906Y53798D01*
X457991Y53715D01*
X458087Y53646D01*
X458192Y53593D01*
X458305Y53557D01*
X458421Y53540D01*
X458539Y53541D01*
X458613Y53553D01*
Y48398D01*
X458192Y48892D01*
X457653Y49352D01*
X457049Y49722D01*
X456998Y49743D01*
Y51753D01*
X457051Y51825D01*
X457106Y51931D01*
X457143Y52043D01*
X457163Y52160D01*
X457164Y52279D01*
X457146Y52396D01*
X457110Y52509D01*
X457057Y52615D01*
X456998Y52698D01*
Y58708D01*
X457054Y58787D01*
X457107Y58892D01*
X457143Y59005D01*
X457160Y59121D01*
X457159Y59239D01*
X457140Y59356D01*
X457103Y59468D01*
X457048Y59573D01*
X456998Y59641D01*
Y108000D01*
G37*
G36*
Y31500D02*X456619D01*
X456998Y31657D01*
Y31500D01*
G37*
G36*
X451387Y9647D02*X452198Y8698D01*
X453514Y7573D01*
X454991Y6669D01*
X456590Y6006D01*
X456998Y5908D01*
Y2000D01*
X451387D01*
Y9647D01*
G37*
G36*
Y28500D02*X456998D01*
Y27092D01*
X456590Y26994D01*
X454991Y26331D01*
X453514Y25427D01*
X452198Y24302D01*
X451387Y23353D01*
Y28500D01*
G37*
G36*
Y33002D02*X451808Y32508D01*
X452347Y32048D01*
X452951Y31678D01*
X453381Y31500D01*
X451387D01*
Y33002D01*
G37*
G36*
Y43002D02*X451808Y42508D01*
X452347Y42048D01*
X452951Y41678D01*
X453605Y41407D01*
X454294Y41242D01*
X455000Y41186D01*
X455706Y41242D01*
X456395Y41407D01*
X456998Y41657D01*
Y39743D01*
X456395Y39993D01*
X455706Y40158D01*
X455000Y40214D01*
X454294Y40158D01*
X453605Y39993D01*
X452951Y39722D01*
X452347Y39352D01*
X451808Y38892D01*
X451387Y38398D01*
Y43002D01*
G37*
G36*
Y108000D02*X456998D01*
Y59641D01*
X456978Y59668D01*
X456894Y59751D01*
X456798Y59819D01*
X456692Y59870D01*
X456284Y60018D01*
X455863Y60122D01*
X455433Y60184D01*
X455000Y60205D01*
X454567Y60184D01*
X454137Y60122D01*
X453716Y60018D01*
X453306Y59875D01*
X453200Y59822D01*
X453104Y59753D01*
X453019Y59670D01*
X452949Y59575D01*
X452894Y59469D01*
X452857Y59357D01*
X452837Y59240D01*
X452836Y59121D01*
X452854Y59004D01*
X452890Y58891D01*
X452943Y58785D01*
X453012Y58688D01*
X453095Y58604D01*
X453191Y58533D01*
X453296Y58479D01*
X453408Y58441D01*
X453525Y58422D01*
X453644Y58421D01*
X453761Y58439D01*
X453874Y58477D01*
X454145Y58576D01*
X454425Y58644D01*
X454711Y58686D01*
X455000Y58700D01*
X455289Y58686D01*
X455575Y58644D01*
X455855Y58576D01*
X456128Y58480D01*
X456239Y58442D01*
X456356Y58425D01*
X456474Y58425D01*
X456591Y58445D01*
X456703Y58482D01*
X456807Y58536D01*
X456902Y58606D01*
X456985Y58691D01*
X456998Y58708D01*
Y52698D01*
X456988Y52712D01*
X456905Y52796D01*
X456809Y52867D01*
X456704Y52921D01*
X456592Y52959D01*
X456475Y52978D01*
X456356Y52979D01*
X456239Y52961D01*
X456126Y52923D01*
X455855Y52824D01*
X455575Y52756D01*
X455289Y52714D01*
X455000Y52700D01*
X454711Y52714D01*
X454425Y52756D01*
X454145Y52824D01*
X453872Y52920D01*
X453761Y52958D01*
X453644Y52975D01*
X453526Y52975D01*
X453409Y52955D01*
X453297Y52918D01*
X453193Y52864D01*
X453098Y52794D01*
X453015Y52709D01*
X452946Y52613D01*
X452893Y52508D01*
X452857Y52395D01*
X452840Y52279D01*
X452841Y52161D01*
X452860Y52044D01*
X452897Y51932D01*
X452952Y51827D01*
X453022Y51732D01*
X453106Y51649D01*
X453202Y51581D01*
X453308Y51530D01*
X453716Y51382D01*
X454137Y51278D01*
X454567Y51216D01*
X455000Y51195D01*
X455433Y51216D01*
X455863Y51278D01*
X456284Y51382D01*
X456694Y51525D01*
X456800Y51578D01*
X456896Y51647D01*
X456981Y51730D01*
X456998Y51753D01*
Y49743D01*
X456395Y49993D01*
X455706Y50158D01*
X455000Y50214D01*
X454294Y50158D01*
X453605Y49993D01*
X452951Y49722D01*
X452347Y49352D01*
X451808Y48892D01*
X451387Y48398D01*
Y53549D01*
X451460Y53537D01*
X451579Y53536D01*
X451696Y53554D01*
X451809Y53590D01*
X451915Y53643D01*
X452012Y53712D01*
X452096Y53795D01*
X452167Y53891D01*
X452221Y53996D01*
X452259Y54108D01*
X452278Y54225D01*
X452279Y54344D01*
X452261Y54461D01*
X452223Y54574D01*
X452124Y54845D01*
X452056Y55125D01*
X452014Y55411D01*
X452000Y55700D01*
X452014Y55989D01*
X452056Y56275D01*
X452124Y56555D01*
X452220Y56828D01*
X452258Y56939D01*
X452275Y57056D01*
X452275Y57174D01*
X452255Y57291D01*
X452218Y57403D01*
X452164Y57507D01*
X452094Y57602D01*
X452009Y57685D01*
X451913Y57754D01*
X451808Y57807D01*
X451695Y57843D01*
X451579Y57860D01*
X451461Y57859D01*
X451387Y57847D01*
Y78212D01*
X451652Y78191D01*
X452091Y78226D01*
X452520Y78329D01*
X452927Y78497D01*
X453303Y78728D01*
X453638Y79014D01*
X453924Y79349D01*
X454154Y79725D01*
X454323Y80132D01*
X454426Y80561D01*
X454452Y81000D01*
X454426Y81439D01*
X454323Y81868D01*
X454154Y82275D01*
X453924Y82651D01*
X453638Y82986D01*
X453303Y83272D01*
X452927Y83503D01*
X452520Y83671D01*
X452091Y83774D01*
X451652Y83809D01*
X451387Y83788D01*
Y108000D01*
G37*
G36*
Y48398D02*X451348Y48353D01*
X450978Y47749D01*
X450707Y47095D01*
X450542Y46406D01*
X450486Y45700D01*
X450542Y44994D01*
X450707Y44305D01*
X450978Y43651D01*
X451348Y43047D01*
X451387Y43002D01*
Y38398D01*
X451348Y38353D01*
X450978Y37749D01*
X450707Y37095D01*
X450542Y36406D01*
X450486Y35700D01*
X450542Y34994D01*
X450707Y34305D01*
X450978Y33651D01*
X451348Y33047D01*
X451387Y33002D01*
Y31500D01*
X448621D01*
X447500Y32621D01*
Y74727D01*
X451041Y78267D01*
X451213Y78226D01*
X451387Y78212D01*
Y57847D01*
X451344Y57840D01*
X451232Y57803D01*
X451127Y57748D01*
X451032Y57678D01*
X450949Y57594D01*
X450881Y57498D01*
X450830Y57392D01*
X450682Y56984D01*
X450578Y56563D01*
X450516Y56133D01*
X450495Y55700D01*
X450516Y55267D01*
X450578Y54837D01*
X450682Y54416D01*
X450825Y54006D01*
X450878Y53900D01*
X450947Y53804D01*
X451030Y53719D01*
X451125Y53649D01*
X451231Y53594D01*
X451343Y53557D01*
X451387Y53549D01*
Y48398D01*
G37*
G36*
X442000Y108000D02*X451387D01*
Y83788D01*
X451213Y83774D01*
X450784Y83671D01*
X450377Y83503D01*
X450001Y83272D01*
X449666Y82986D01*
X449380Y82651D01*
X449149Y82275D01*
X448981Y81868D01*
X448878Y81439D01*
X448843Y81000D01*
X448878Y80561D01*
X448919Y80389D01*
X444981Y76450D01*
X444936Y76412D01*
X444783Y76232D01*
X444659Y76031D01*
X444569Y75813D01*
X444514Y75583D01*
X444514Y75583D01*
X444495Y75348D01*
X444500Y75289D01*
Y32059D01*
X444495Y32000D01*
X444514Y31765D01*
X444569Y31535D01*
X444659Y31317D01*
X444783Y31116D01*
X444936Y30936D01*
X444981Y30898D01*
X446898Y28981D01*
X446936Y28936D01*
X447115Y28783D01*
X447116Y28783D01*
X447317Y28659D01*
X447535Y28569D01*
X447765Y28514D01*
X448000Y28495D01*
X448059Y28500D01*
X451387D01*
Y23353D01*
X451073Y22986D01*
X450169Y21509D01*
X449506Y19910D01*
X449102Y18226D01*
X448966Y16500D01*
X449102Y14774D01*
X449506Y13090D01*
X450169Y11491D01*
X451073Y10014D01*
X451387Y9647D01*
Y2000D01*
X442000D01*
Y108000D01*
G37*
G54D28*X39500Y72000D02*X63000D01*
X168000Y67000D02*X155500D01*
X149500Y72000D02*X173000D01*
X231652Y81000D02*X226000Y75348D01*
X278000Y67000D02*X265500D01*
X259500Y72000D02*X283000D01*
X135000Y35700D02*X129300Y30000D01*
G54D29*X155500Y60200D02*Y51500D01*
G54D28*X226000Y32000D02*Y75348D01*
G54D29*X265500Y60200D02*Y51500D01*
G54D28*X129300Y30000D02*X118000D01*
X228000D02*X226000Y32000D01*
X245000Y35700D02*X239300Y30000D01*
X228000D01*
X11652Y81000D02*X6000Y75348D01*
X58000Y67000D02*X45500D01*
G54D29*Y60200D02*Y51500D01*
G54D28*X25000Y35700D02*X19300Y30000D01*
X8000D01*
X6000Y32000D01*
Y75348D01*
X118000Y30000D02*X116000Y32000D01*
X121652Y81000D02*X116000Y75348D01*
Y32000D02*Y75348D01*
X341652Y81000D02*X336000Y75348D01*
X388000Y67000D02*X375500D01*
G54D29*Y60200D02*Y51500D01*
G54D28*X369500Y72000D02*X393000D01*
X336000Y32000D02*Y75348D01*
X355000Y35700D02*X349300Y30000D01*
X338000D01*
X336000Y32000D01*
X465000Y35700D02*X459300Y30000D01*
X448000D01*
X446000Y32000D01*
X451652Y81000D02*X446000Y75348D01*
Y32000D02*Y75348D01*
X498000Y67000D02*X485500D01*
G54D29*Y60200D02*Y51500D01*
G54D28*X479500Y72000D02*X503000D01*
G54D30*X73000Y57000D03*
X83000D03*
X78000Y67000D03*
G54D27*G36*
X132000Y38700D02*Y32700D01*
X138000D01*
Y38700D01*
X132000D01*
G37*
G54D31*X135000Y45700D03*
Y55700D03*
X125000Y35700D03*
Y45700D03*
Y55700D03*
G54D30*X58000Y67000D03*
G54D27*G36*
X22000Y38700D02*Y32700D01*
X28000D01*
Y38700D01*
X22000D01*
G37*
G54D31*X25000Y45700D03*
Y55700D03*
X15000Y35700D03*
Y45700D03*
Y55700D03*
G54D30*X63000Y57000D03*
G54D32*X50500Y32000D03*
G54D30*X68000Y67000D03*
G54D32*X90500Y32000D03*
X160500D03*
G54D30*X168000Y67000D03*
X178000D03*
X188000D03*
X173000Y57000D03*
X183000D03*
X193000D03*
G54D31*X245000Y45700D03*
Y55700D03*
X235000Y45700D03*
Y55700D03*
G54D30*X283000Y57000D03*
X293000D03*
X303000D03*
G54D32*X200500Y32000D03*
G54D27*G36*
X242000Y38700D02*Y32700D01*
X248000D01*
Y38700D01*
X242000D01*
G37*
G54D31*X235000Y35700D03*
G54D32*X270500Y32000D03*
G54D30*X278000Y67000D03*
X288000D03*
X298000D03*
G54D27*G36*
X352000Y38700D02*Y32700D01*
X358000D01*
Y38700D01*
X352000D01*
G37*
G54D31*X345000Y35700D03*
Y45700D03*
Y55700D03*
X355000Y45700D03*
Y55700D03*
G54D30*X393000Y57000D03*
X403000D03*
X413000D03*
G54D32*X310500Y32000D03*
X380500D03*
X420500D03*
X490500D03*
X530500D03*
G54D27*G36*
X462000Y38700D02*Y32700D01*
X468000D01*
Y38700D01*
X462000D01*
G37*
G54D31*X455000Y35700D03*
Y45700D03*
Y55700D03*
X465000Y45700D03*
Y55700D03*
G54D30*X388000Y67000D03*
X398000D03*
X408000D03*
X498000D03*
X508000D03*
X518000D03*
X503000Y57000D03*
X513000D03*
X523000D03*
G54D31*X155500Y67000D03*
G54D33*X154000Y65500D02*X157000D01*
G54D31*X265500Y67000D03*
G54D33*X264000Y65500D02*X267000D01*
G54D31*X265500Y60200D03*
G54D33*X264000Y61700D02*X267000D01*
G54D31*X375500Y67000D03*
G54D33*X374000Y65500D02*X377000D01*
G54D31*X375500Y60200D03*
G54D33*X374000Y61700D02*X377000D01*
G54D31*X485500Y67000D03*
G54D33*X484000Y65500D02*X487000D01*
G54D31*X485500Y60200D03*
G54D33*X484000Y61700D02*X487000D01*
G54D31*X45500Y67000D03*
G54D33*X44000Y65500D02*X47000D01*
G54D31*X45500Y60200D03*
G54D33*X44000Y61700D02*X47000D01*
G54D31*X155500Y60200D03*
G54D33*X154000Y61700D02*X157000D01*
G54D34*X130000Y16500D03*
X240000D03*
X460000D03*
G54D35*X143000Y91500D03*
X121652Y81000D03*
X147500Y91500D03*
X154000D03*
X173000Y72000D03*
X149500D03*
X253000Y91500D03*
X257500D03*
X264000D03*
X231652Y81000D03*
X283000Y72000D03*
X259500D03*
X451652Y81000D03*
X33000Y91500D03*
X37500D03*
X44000D03*
X11652Y81000D03*
X63000Y72000D03*
X39500D03*
G54D34*X20000Y16500D03*
X350000D03*
G54D35*X341652Y81000D03*
X393000Y72000D03*
X369500D03*
X363000Y91500D03*
X367500D03*
X374000D03*
X473000D03*
X477500D03*
X484000D03*
X503000Y72000D03*
X479500D03*
G54D36*G54D37*G54D36*G54D37*G54D38*G54D39*G54D38*G54D39*G54D38*G54D40*G54D38*G54D40*G54D38*G54D39*G54D38*G54D40*G54D39*G54D40*G54D38*G54D39*G54D38*G54D40*G54D39*G54D38*M02*
