G04 start of page 7 for group -4062 idx -4062 *
G04 Title: (unknown), soldermask *
G04 Creator: pcb 20140316 *
G04 CreationDate: Thu 25 Oct 2018 04:49:50 PM GMT UTC *
G04 For: railfan *
G04 Format: Gerber/RS-274X *
G04 PCB-Dimensions (mil): 5400.00 1100.00 *
G04 PCB-Coordinate-Origin: lower left *
%MOIN*%
%FSLAX25Y25*%
%LNBOTTOMMASK*%
%ADD59R,0.0300X0.0300*%
%ADD58C,0.0600*%
%ADD57C,0.1500*%
%ADD56C,0.0660*%
%ADD55C,0.0001*%
%ADD54C,0.0760*%
G54D54*X73000Y57000D03*
X83000D03*
X78000Y67000D03*
G54D55*G36*
X131700Y39000D02*Y32400D01*
X138300D01*
Y39000D01*
X131700D01*
G37*
G54D56*X135000Y45700D03*
Y55700D03*
X125000Y35700D03*
Y45700D03*
Y55700D03*
G54D54*X58000Y67000D03*
G54D55*G36*
X21700Y39000D02*Y32400D01*
X28300D01*
Y39000D01*
X21700D01*
G37*
G54D56*X25000Y45700D03*
Y55700D03*
X15000Y35700D03*
Y45700D03*
Y55700D03*
G54D54*X63000Y57000D03*
G54D57*X50500Y32000D03*
G54D54*X68000Y67000D03*
G54D57*X90500Y32000D03*
X160500D03*
G54D54*X168000Y67000D03*
X178000D03*
X188000D03*
X173000Y57000D03*
X183000D03*
X193000D03*
G54D56*X245000Y45700D03*
Y55700D03*
X235000Y45700D03*
Y55700D03*
G54D54*X283000Y57000D03*
X293000D03*
X303000D03*
G54D57*X200500Y32000D03*
G54D55*G36*
X241700Y39000D02*Y32400D01*
X248300D01*
Y39000D01*
X241700D01*
G37*
G54D56*X235000Y35700D03*
G54D57*X270500Y32000D03*
G54D54*X278000Y67000D03*
X288000D03*
X298000D03*
G54D55*G36*
X351700Y39000D02*Y32400D01*
X358300D01*
Y39000D01*
X351700D01*
G37*
G54D56*X345000Y35700D03*
Y45700D03*
Y55700D03*
X355000Y45700D03*
Y55700D03*
G54D54*X393000Y57000D03*
X403000D03*
X413000D03*
G54D57*X310500Y32000D03*
X380500D03*
X420500D03*
X490500D03*
X530500D03*
G54D55*G36*
X461700Y39000D02*Y32400D01*
X468300D01*
Y39000D01*
X461700D01*
G37*
G54D56*X455000Y35700D03*
Y45700D03*
Y55700D03*
X465000Y45700D03*
Y55700D03*
G54D54*X388000Y67000D03*
X398000D03*
X408000D03*
X498000D03*
X508000D03*
X518000D03*
X503000Y57000D03*
X513000D03*
X523000D03*
G54D58*X155500Y67000D03*
G54D59*X154000Y65500D02*X157000D01*
G54D58*X265500Y67000D03*
G54D59*X264000Y65500D02*X267000D01*
G54D58*X265500Y60200D03*
G54D59*X264000Y61700D02*X267000D01*
G54D58*X375500Y67000D03*
G54D59*X374000Y65500D02*X377000D01*
G54D58*X375500Y60200D03*
G54D59*X374000Y61700D02*X377000D01*
G54D58*X485500Y67000D03*
G54D59*X484000Y65500D02*X487000D01*
G54D58*X485500Y60200D03*
G54D59*X484000Y61700D02*X487000D01*
G54D58*X45500Y67000D03*
G54D59*X44000Y65500D02*X47000D01*
G54D58*X45500Y60200D03*
G54D59*X44000Y61700D02*X47000D01*
G54D58*X155500Y60200D03*
G54D59*X154000Y61700D02*X157000D01*
M02*
