G04 start of page 12 for group -3984 idx -3984 *
G04 Title: (unknown), fab *
G04 Creator: pcb 20140316 *
G04 CreationDate: Thu 25 Oct 2018 04:49:50 PM GMT UTC *
G04 For: railfan *
G04 Format: Gerber/RS-274X *
G04 PCB-Dimensions (mil): 5400.00 1100.00 *
G04 PCB-Coordinate-Origin: lower left *
%MOIN*%
%FSLAX25Y25*%
%LNFAB*%
%ADD72C,0.0100*%
%ADD71C,0.0075*%
%ADD70C,0.0060*%
%ADD69R,0.0080X0.0080*%
G54D69*X48900Y33600D02*X52100D01*
X48900D02*Y30400D01*
X52100D01*
Y33600D02*Y30400D01*
X88900Y33600D02*X92100D01*
X88900D02*Y30400D01*
X92100D01*
Y33600D02*Y30400D01*
X158900Y33600D02*X162100D01*
X158900D02*Y30400D01*
X162100D01*
Y33600D02*Y30400D01*
X198900Y33600D02*X202100D01*
X198900D02*Y30400D01*
X202100D01*
Y33600D02*Y30400D01*
X268900Y33600D02*X272100D01*
X268900D02*Y30400D01*
X272100D01*
Y33600D02*Y30400D01*
X308900Y33600D02*X312100D01*
X308900D02*Y30400D01*
X312100D01*
Y33600D02*Y30400D01*
X378900Y33600D02*X382100D01*
X378900D02*Y30400D01*
X382100D01*
Y33600D02*Y30400D01*
X418900Y33600D02*X422100D01*
X418900D02*Y30400D01*
X422100D01*
Y33600D02*Y30400D01*
X488900Y33600D02*X492100D01*
X488900D02*Y30400D01*
X492100D01*
Y33600D02*Y30400D01*
X528900Y33600D02*X532100D01*
X528900D02*Y30400D01*
X532100D01*
Y33600D02*Y30400D01*
X13400Y122850D02*X16600D01*
X13400D02*Y119650D01*
X16600D01*
Y122850D02*Y119650D01*
G54D70*X135000Y123500D02*X136500Y120500D01*
X138000Y123500D01*
X136500Y120500D02*Y117500D01*
X139800Y120800D02*X142050D01*
X139800Y117500D02*X142800D01*
X139800Y123500D02*Y117500D01*
Y123500D02*X142800D01*
X147600D02*X148350Y122750D01*
X145350Y123500D02*X147600D01*
X144600Y122750D02*X145350Y123500D01*
X144600Y122750D02*Y121250D01*
X145350Y120500D01*
X147600D01*
X148350Y119750D01*
Y118250D01*
X147600Y117500D02*X148350Y118250D01*
X145350Y117500D02*X147600D01*
X144600Y118250D02*X145350Y117500D01*
X98000Y122300D02*X99200Y123500D01*
Y117500D01*
X98000D02*X100250D01*
X102050Y118250D02*X102800Y117500D01*
X102050Y122750D02*Y118250D01*
Y122750D02*X102800Y123500D01*
X104300D01*
X105050Y122750D01*
Y118250D01*
X104300Y117500D02*X105050Y118250D01*
X102800Y117500D02*X104300D01*
X102050Y119000D02*X105050Y122000D01*
X45000Y118250D02*X45750Y117500D01*
X45000Y122750D02*Y118250D01*
Y122750D02*X45750Y123500D01*
X47250D01*
X48000Y122750D01*
Y118250D01*
X47250Y117500D02*X48000Y118250D01*
X45750Y117500D02*X47250D01*
X45000Y119000D02*X48000Y122000D01*
X49800Y117500D02*X50550D01*
X52350Y122300D02*X53550Y123500D01*
Y117500D01*
X52350D02*X54600D01*
X56400Y122750D02*X57150Y123500D01*
X59400D01*
X60150Y122750D01*
Y121250D01*
X56400Y117500D02*X60150Y121250D01*
X56400Y117500D02*X60150D01*
X61950Y118250D02*X62700Y117500D01*
X61950Y119450D02*Y118250D01*
Y119450D02*X63000Y120500D01*
X63900D01*
X64950Y119450D01*
Y118250D01*
X64200Y117500D02*X64950Y118250D01*
X62700Y117500D02*X64200D01*
X61950Y121550D02*X63000Y120500D01*
X61950Y122750D02*Y121550D01*
Y122750D02*X62700Y123500D01*
X64200D01*
X64950Y122750D01*
Y121550D01*
X63900Y120500D02*X64950Y121550D01*
X19200Y16500D02*G75*G03X20800Y16500I800J0D01*G01*
G75*G03X19200Y16500I-800J0D01*G01*
X129200D02*G75*G03X130800Y16500I800J0D01*G01*
G75*G03X129200Y16500I-800J0D01*G01*
X239200D02*G75*G03X240800Y16500I800J0D01*G01*
G75*G03X239200Y16500I-800J0D01*G01*
X349200D02*G75*G03X350800Y16500I800J0D01*G01*
G75*G03X349200Y16500I-800J0D01*G01*
X459200D02*G75*G03X460800Y16500I800J0D01*G01*
G75*G03X459200Y16500I-800J0D01*G01*
X14200Y136250D02*G75*G03X15800Y136250I800J0D01*G01*
G75*G03X14200Y136250I-800J0D01*G01*
X135000Y138500D02*X136500Y135500D01*
X138000Y138500D01*
X136500Y135500D02*Y132500D01*
X139800Y135800D02*X142050D01*
X139800Y132500D02*X142800D01*
X139800Y138500D02*Y132500D01*
Y138500D02*X142800D01*
X147600D02*X148350Y137750D01*
X145350Y138500D02*X147600D01*
X144600Y137750D02*X145350Y138500D01*
X144600Y137750D02*Y136250D01*
X145350Y135500D01*
X147600D01*
X148350Y134750D01*
Y133250D01*
X147600Y132500D02*X148350Y133250D01*
X145350Y132500D02*X147600D01*
X144600Y133250D02*X145350Y132500D01*
X98000Y138500D02*X101000D01*
X98000D02*Y135500D01*
X98750Y136250D01*
X100250D01*
X101000Y135500D01*
Y133250D01*
X100250Y132500D02*X101000Y133250D01*
X98750Y132500D02*X100250D01*
X98000Y133250D02*X98750Y132500D01*
X45000Y133250D02*X45750Y132500D01*
X45000Y137750D02*Y133250D01*
Y137750D02*X45750Y138500D01*
X47250D01*
X48000Y137750D01*
Y133250D01*
X47250Y132500D02*X48000Y133250D01*
X45750Y132500D02*X47250D01*
X45000Y134000D02*X48000Y137000D01*
X49800Y132500D02*X50550D01*
X52350Y137300D02*X53550Y138500D01*
Y132500D01*
X52350D02*X54600D01*
X56400Y133250D02*X57150Y132500D01*
X56400Y137750D02*Y133250D01*
Y137750D02*X57150Y138500D01*
X58650D01*
X59400Y137750D01*
Y133250D01*
X58650Y132500D02*X59400Y133250D01*
X57150Y132500D02*X58650D01*
X56400Y134000D02*X59400Y137000D01*
X61200Y133250D02*X61950Y132500D01*
X61200Y134450D02*Y133250D01*
Y134450D02*X62250Y135500D01*
X63150D01*
X64200Y134450D01*
Y133250D01*
X63450Y132500D02*X64200Y133250D01*
X61950Y132500D02*X63450D01*
X61200Y136550D02*X62250Y135500D01*
X61200Y137750D02*Y136550D01*
Y137750D02*X61950Y138500D01*
X63450D01*
X64200Y137750D01*
Y136550D01*
X63150Y135500D02*X64200Y136550D01*
X23800Y36900D02*X26200Y34500D01*
X23800D02*X26200Y36900D01*
X23800Y46900D02*X26200Y44500D01*
X23800D02*X26200Y46900D01*
X23800Y56900D02*X26200Y54500D01*
X23800D02*X26200Y56900D01*
X13800Y36900D02*X16200Y34500D01*
X13800D02*X16200Y36900D01*
X13800Y46900D02*X16200Y44500D01*
X13800D02*X16200Y46900D01*
X13800Y56900D02*X16200Y54500D01*
X13800D02*X16200Y56900D01*
X133800Y36900D02*X136200Y34500D01*
X133800D02*X136200Y36900D01*
X133800Y46900D02*X136200Y44500D01*
X133800D02*X136200Y46900D01*
X133800Y56900D02*X136200Y54500D01*
X133800D02*X136200Y56900D01*
X123800Y36900D02*X126200Y34500D01*
X123800D02*X126200Y36900D01*
X123800Y46900D02*X126200Y44500D01*
X123800D02*X126200Y46900D01*
X123800Y56900D02*X126200Y54500D01*
X123800D02*X126200Y56900D01*
X243800Y36900D02*X246200Y34500D01*
X243800D02*X246200Y36900D01*
X243800Y46900D02*X246200Y44500D01*
X243800D02*X246200Y46900D01*
X243800Y56900D02*X246200Y54500D01*
X243800D02*X246200Y56900D01*
X233800Y36900D02*X236200Y34500D01*
X233800D02*X236200Y36900D01*
X233800Y46900D02*X236200Y44500D01*
X233800D02*X236200Y46900D01*
X233800Y56900D02*X236200Y54500D01*
X233800D02*X236200Y56900D01*
X353800Y36900D02*X356200Y34500D01*
X353800D02*X356200Y36900D01*
X353800Y46900D02*X356200Y44500D01*
X353800D02*X356200Y46900D01*
X353800Y56900D02*X356200Y54500D01*
X353800D02*X356200Y56900D01*
X343800Y36900D02*X346200Y34500D01*
X343800D02*X346200Y36900D01*
X343800Y46900D02*X346200Y44500D01*
X343800D02*X346200Y46900D01*
X343800Y56900D02*X346200Y54500D01*
X343800D02*X346200Y56900D01*
X463800Y36900D02*X466200Y34500D01*
X463800D02*X466200Y36900D01*
X463800Y46900D02*X466200Y44500D01*
X463800D02*X466200Y46900D01*
X463800Y56900D02*X466200Y54500D01*
X463800D02*X466200Y56900D01*
X453800Y36900D02*X456200Y34500D01*
X453800D02*X456200Y36900D01*
X453800Y46900D02*X456200Y44500D01*
X453800D02*X456200Y46900D01*
X453800Y56900D02*X456200Y54500D01*
X453800D02*X456200Y56900D01*
X13800Y152450D02*X16200Y150050D01*
X13800D02*X16200Y152450D01*
X135000Y153500D02*X136500Y150500D01*
X138000Y153500D01*
X136500Y150500D02*Y147500D01*
X139800Y150800D02*X142050D01*
X139800Y147500D02*X142800D01*
X139800Y153500D02*Y147500D01*
Y153500D02*X142800D01*
X147600D02*X148350Y152750D01*
X145350Y153500D02*X147600D01*
X144600Y152750D02*X145350Y153500D01*
X144600Y152750D02*Y151250D01*
X145350Y150500D01*
X147600D01*
X148350Y149750D01*
Y148250D01*
X147600Y147500D02*X148350Y148250D01*
X145350Y147500D02*X147600D01*
X144600Y148250D02*X145350Y147500D01*
X98000Y152750D02*X98750Y153500D01*
X100250D01*
X101000Y152750D01*
X100250Y147500D02*X101000Y148250D01*
X98750Y147500D02*X100250D01*
X98000Y148250D02*X98750Y147500D01*
Y150800D02*X100250D01*
X101000Y152750D02*Y151550D01*
Y150050D02*Y148250D01*
Y150050D02*X100250Y150800D01*
X101000Y151550D02*X100250Y150800D01*
X102800Y148250D02*X103550Y147500D01*
X102800Y152750D02*Y148250D01*
Y152750D02*X103550Y153500D01*
X105050D01*
X105800Y152750D01*
Y148250D01*
X105050Y147500D02*X105800Y148250D01*
X103550Y147500D02*X105050D01*
X102800Y149000D02*X105800Y152000D01*
X45000Y148250D02*X45750Y147500D01*
X45000Y152750D02*Y148250D01*
Y152750D02*X45750Y153500D01*
X47250D01*
X48000Y152750D01*
Y148250D01*
X47250Y147500D02*X48000Y148250D01*
X45750Y147500D02*X47250D01*
X45000Y149000D02*X48000Y152000D01*
X49800Y147500D02*X50550D01*
X52350Y148250D02*X53100Y147500D01*
X52350Y152750D02*Y148250D01*
Y152750D02*X53100Y153500D01*
X54600D01*
X55350Y152750D01*
Y148250D01*
X54600Y147500D02*X55350Y148250D01*
X53100Y147500D02*X54600D01*
X52350Y149000D02*X55350Y152000D01*
X57150Y152750D02*X57900Y153500D01*
X59400D01*
X60150Y152750D01*
X59400Y147500D02*X60150Y148250D01*
X57900Y147500D02*X59400D01*
X57150Y148250D02*X57900Y147500D01*
Y150800D02*X59400D01*
X60150Y152750D02*Y151550D01*
Y150050D02*Y148250D01*
Y150050D02*X59400Y150800D01*
X60150Y151550D02*X59400Y150800D01*
X61950Y148250D02*X62700Y147500D01*
X61950Y149450D02*Y148250D01*
Y149450D02*X63000Y150500D01*
X63900D01*
X64950Y149450D01*
Y148250D01*
X64200Y147500D02*X64950Y148250D01*
X62700Y147500D02*X64200D01*
X61950Y151550D02*X63000Y150500D01*
X61950Y152750D02*Y151550D01*
Y152750D02*X62700Y153500D01*
X64200D01*
X64950Y152750D01*
Y151550D01*
X63900Y150500D02*X64950Y151550D01*
X58000Y68600D02*Y65400D01*
X56400Y67000D02*X59600D01*
X63000Y58600D02*Y55400D01*
X61400Y57000D02*X64600D01*
X68000Y68600D02*Y65400D01*
X66400Y67000D02*X69600D01*
X73000Y58600D02*Y55400D01*
X71400Y57000D02*X74600D01*
X78000Y68600D02*Y65400D01*
X76400Y67000D02*X79600D01*
X83000Y58600D02*Y55400D01*
X81400Y57000D02*X84600D01*
X168000Y68600D02*Y65400D01*
X166400Y67000D02*X169600D01*
X173000Y58600D02*Y55400D01*
X171400Y57000D02*X174600D01*
X178000Y68600D02*Y65400D01*
X176400Y67000D02*X179600D01*
X183000Y58600D02*Y55400D01*
X181400Y57000D02*X184600D01*
X188000Y68600D02*Y65400D01*
X186400Y67000D02*X189600D01*
X193000Y58600D02*Y55400D01*
X191400Y57000D02*X194600D01*
X278000Y68600D02*Y65400D01*
X276400Y67000D02*X279600D01*
X283000Y58600D02*Y55400D01*
X281400Y57000D02*X284600D01*
X288000Y68600D02*Y65400D01*
X286400Y67000D02*X289600D01*
X293000Y58600D02*Y55400D01*
X291400Y57000D02*X294600D01*
X298000Y68600D02*Y65400D01*
X296400Y67000D02*X299600D01*
X303000Y58600D02*Y55400D01*
X301400Y57000D02*X304600D01*
X388000Y68600D02*Y65400D01*
X386400Y67000D02*X389600D01*
X393000Y58600D02*Y55400D01*
X391400Y57000D02*X394600D01*
X398000Y68600D02*Y65400D01*
X396400Y67000D02*X399600D01*
X403000Y58600D02*Y55400D01*
X401400Y57000D02*X404600D01*
X408000Y68600D02*Y65400D01*
X406400Y67000D02*X409600D01*
X413000Y58600D02*Y55400D01*
X411400Y57000D02*X414600D01*
X498000Y68600D02*Y65400D01*
X496400Y67000D02*X499600D01*
X503000Y58600D02*Y55400D01*
X501400Y57000D02*X504600D01*
X508000Y68600D02*Y65400D01*
X506400Y67000D02*X509600D01*
X513000Y58600D02*Y55400D01*
X511400Y57000D02*X514600D01*
X518000Y68600D02*Y65400D01*
X516400Y67000D02*X519600D01*
X523000Y58600D02*Y55400D01*
X521400Y57000D02*X524600D01*
X15000Y167850D02*Y164650D01*
X13400Y166250D02*X16600D01*
X135000Y168500D02*X136500Y165500D01*
X138000Y168500D01*
X136500Y165500D02*Y162500D01*
X139800Y165800D02*X142050D01*
X139800Y162500D02*X142800D01*
X139800Y168500D02*Y162500D01*
Y168500D02*X142800D01*
X147600D02*X148350Y167750D01*
X145350Y168500D02*X147600D01*
X144600Y167750D02*X145350Y168500D01*
X144600Y167750D02*Y166250D01*
X145350Y165500D01*
X147600D01*
X148350Y164750D01*
Y163250D01*
X147600Y162500D02*X148350Y163250D01*
X145350Y162500D02*X147600D01*
X144600Y163250D02*X145350Y162500D01*
X98000Y167750D02*X98750Y168500D01*
X100250D01*
X101000Y167750D01*
X100250Y162500D02*X101000Y163250D01*
X98750Y162500D02*X100250D01*
X98000Y163250D02*X98750Y162500D01*
Y165800D02*X100250D01*
X101000Y167750D02*Y166550D01*
Y165050D02*Y163250D01*
Y165050D02*X100250Y165800D01*
X101000Y166550D02*X100250Y165800D01*
X102800Y163250D02*X103550Y162500D01*
X102800Y167750D02*Y163250D01*
Y167750D02*X103550Y168500D01*
X105050D01*
X105800Y167750D01*
Y163250D01*
X105050Y162500D02*X105800Y163250D01*
X103550Y162500D02*X105050D01*
X102800Y164000D02*X105800Y167000D01*
X45000Y163250D02*X45750Y162500D01*
X45000Y167750D02*Y163250D01*
Y167750D02*X45750Y168500D01*
X47250D01*
X48000Y167750D01*
Y163250D01*
X47250Y162500D02*X48000Y163250D01*
X45750Y162500D02*X47250D01*
X45000Y164000D02*X48000Y167000D01*
X49800Y162500D02*X50550D01*
X52350Y163250D02*X53100Y162500D01*
X52350Y167750D02*Y163250D01*
Y167750D02*X53100Y168500D01*
X54600D01*
X55350Y167750D01*
Y163250D01*
X54600Y162500D02*X55350Y163250D01*
X53100Y162500D02*X54600D01*
X52350Y164000D02*X55350Y167000D01*
X57150Y167750D02*X57900Y168500D01*
X59400D01*
X60150Y167750D01*
X59400Y162500D02*X60150Y163250D01*
X57900Y162500D02*X59400D01*
X57150Y163250D02*X57900Y162500D01*
Y165800D02*X59400D01*
X60150Y167750D02*Y166550D01*
Y165050D02*Y163250D01*
Y165050D02*X59400Y165800D01*
X60150Y166550D02*X59400Y165800D01*
X61950Y163250D02*X62700Y162500D01*
X61950Y167750D02*Y163250D01*
Y167750D02*X62700Y168500D01*
X64200D01*
X64950Y167750D01*
Y163250D01*
X64200Y162500D02*X64950Y163250D01*
X62700Y162500D02*X64200D01*
X61950Y164000D02*X64950Y167000D01*
X33000Y91500D02*Y89900D01*
Y91500D02*X34387Y92300D01*
X33000Y91500D02*X31613Y92300D01*
X37500Y91500D02*Y89900D01*
Y91500D02*X38887Y92300D01*
X37500Y91500D02*X36113Y92300D01*
X44000Y91500D02*Y89900D01*
Y91500D02*X45387Y92300D01*
X44000Y91500D02*X42613Y92300D01*
X11652Y81000D02*Y79400D01*
Y81000D02*X13039Y81800D01*
X11652Y81000D02*X10265Y81800D01*
X63000Y72000D02*Y70400D01*
Y72000D02*X64387Y72800D01*
X63000Y72000D02*X61613Y72800D01*
X39500Y72000D02*Y70400D01*
Y72000D02*X40887Y72800D01*
X39500Y72000D02*X38113Y72800D01*
X143000Y91500D02*Y89900D01*
Y91500D02*X144387Y92300D01*
X143000Y91500D02*X141613Y92300D01*
X147500Y91500D02*Y89900D01*
Y91500D02*X148887Y92300D01*
X147500Y91500D02*X146113Y92300D01*
X154000Y91500D02*Y89900D01*
Y91500D02*X155387Y92300D01*
X154000Y91500D02*X152613Y92300D01*
X121652Y81000D02*Y79400D01*
Y81000D02*X123039Y81800D01*
X121652Y81000D02*X120265Y81800D01*
X173000Y72000D02*Y70400D01*
Y72000D02*X174387Y72800D01*
X173000Y72000D02*X171613Y72800D01*
X149500Y72000D02*Y70400D01*
Y72000D02*X150887Y72800D01*
X149500Y72000D02*X148113Y72800D01*
X253000Y91500D02*Y89900D01*
Y91500D02*X254387Y92300D01*
X253000Y91500D02*X251613Y92300D01*
X257500Y91500D02*Y89900D01*
Y91500D02*X258887Y92300D01*
X257500Y91500D02*X256113Y92300D01*
X264000Y91500D02*Y89900D01*
Y91500D02*X265387Y92300D01*
X264000Y91500D02*X262613Y92300D01*
X231652Y81000D02*Y79400D01*
Y81000D02*X233039Y81800D01*
X231652Y81000D02*X230265Y81800D01*
X283000Y72000D02*Y70400D01*
Y72000D02*X284387Y72800D01*
X283000Y72000D02*X281613Y72800D01*
X259500Y72000D02*Y70400D01*
Y72000D02*X260887Y72800D01*
X259500Y72000D02*X258113Y72800D01*
X363000Y91500D02*Y89900D01*
Y91500D02*X364387Y92300D01*
X363000Y91500D02*X361613Y92300D01*
X367500Y91500D02*Y89900D01*
Y91500D02*X368887Y92300D01*
X367500Y91500D02*X366113Y92300D01*
X374000Y91500D02*Y89900D01*
Y91500D02*X375387Y92300D01*
X374000Y91500D02*X372613Y92300D01*
X341652Y81000D02*Y79400D01*
Y81000D02*X343039Y81800D01*
X341652Y81000D02*X340265Y81800D01*
X393000Y72000D02*Y70400D01*
Y72000D02*X394387Y72800D01*
X393000Y72000D02*X391613Y72800D01*
X369500Y72000D02*Y70400D01*
Y72000D02*X370887Y72800D01*
X369500Y72000D02*X368113Y72800D01*
X473000Y91500D02*Y89900D01*
Y91500D02*X474387Y92300D01*
X473000Y91500D02*X471613Y92300D01*
X477500Y91500D02*Y89900D01*
Y91500D02*X478887Y92300D01*
X477500Y91500D02*X476113Y92300D01*
X484000Y91500D02*Y89900D01*
Y91500D02*X485387Y92300D01*
X484000Y91500D02*X482613Y92300D01*
X451652Y81000D02*Y79400D01*
Y81000D02*X453039Y81800D01*
X451652Y81000D02*X450265Y81800D01*
X503000Y72000D02*Y70400D01*
Y72000D02*X504387Y72800D01*
X503000Y72000D02*X501613Y72800D01*
X479500Y72000D02*Y70400D01*
Y72000D02*X480887Y72800D01*
X479500Y72000D02*X478113Y72800D01*
X15000Y181250D02*Y179650D01*
Y181250D02*X16387Y182050D01*
X15000Y181250D02*X13613Y182050D01*
X135000Y183500D02*X136500Y180500D01*
X138000Y183500D01*
X136500Y180500D02*Y177500D01*
X139800Y180800D02*X142050D01*
X139800Y177500D02*X142800D01*
X139800Y183500D02*Y177500D01*
Y183500D02*X142800D01*
X147600D02*X148350Y182750D01*
X145350Y183500D02*X147600D01*
X144600Y182750D02*X145350Y183500D01*
X144600Y182750D02*Y181250D01*
X145350Y180500D01*
X147600D01*
X148350Y179750D01*
Y178250D01*
X147600Y177500D02*X148350Y178250D01*
X145350Y177500D02*X147600D01*
X144600Y178250D02*X145350Y177500D01*
X98000Y182750D02*X98750Y183500D01*
X100250D01*
X101000Y182750D01*
X100250Y177500D02*X101000Y178250D01*
X98750Y177500D02*X100250D01*
X98000Y178250D02*X98750Y177500D01*
Y180800D02*X100250D01*
X101000Y182750D02*Y181550D01*
Y180050D02*Y178250D01*
Y180050D02*X100250Y180800D01*
X101000Y181550D02*X100250Y180800D01*
X102800Y178250D02*X103550Y177500D01*
X102800Y182750D02*Y178250D01*
Y182750D02*X103550Y183500D01*
X105050D01*
X105800Y182750D01*
Y178250D01*
X105050Y177500D02*X105800Y178250D01*
X103550Y177500D02*X105050D01*
X102800Y179000D02*X105800Y182000D01*
X45000Y178250D02*X45750Y177500D01*
X45000Y182750D02*Y178250D01*
Y182750D02*X45750Y183500D01*
X47250D01*
X48000Y182750D01*
Y178250D01*
X47250Y177500D02*X48000Y178250D01*
X45750Y177500D02*X47250D01*
X45000Y179000D02*X48000Y182000D01*
X49800Y177500D02*X50550D01*
X52350Y178250D02*X53100Y177500D01*
X52350Y182750D02*Y178250D01*
Y182750D02*X53100Y183500D01*
X54600D01*
X55350Y182750D01*
Y178250D01*
X54600Y177500D02*X55350Y178250D01*
X53100Y177500D02*X54600D01*
X52350Y179000D02*X55350Y182000D01*
X57150Y182750D02*X57900Y183500D01*
X60150D01*
X60900Y182750D01*
Y181250D01*
X57150Y177500D02*X60900Y181250D01*
X57150Y177500D02*X60900D01*
X62700Y178250D02*X63450Y177500D01*
X62700Y182750D02*Y178250D01*
Y182750D02*X63450Y183500D01*
X64950D01*
X65700Y182750D01*
Y178250D01*
X64950Y177500D02*X65700Y178250D01*
X63450Y177500D02*X64950D01*
X62700Y179000D02*X65700Y182000D01*
X3000Y198500D02*X3750Y197750D01*
X750Y198500D02*X3000D01*
X0Y197750D02*X750Y198500D01*
X0Y197750D02*Y196250D01*
X750Y195500D01*
X3000D01*
X3750Y194750D01*
Y193250D01*
X3000Y192500D02*X3750Y193250D01*
X750Y192500D02*X3000D01*
X0Y193250D02*X750Y192500D01*
X5550Y195500D02*Y193250D01*
X6300Y192500D01*
X8550Y195500D02*Y191000D01*
X7800Y190250D02*X8550Y191000D01*
X6300Y190250D02*X7800D01*
X5550Y191000D02*X6300Y190250D01*
Y192500D02*X7800D01*
X8550Y193250D01*
X11100Y194750D02*Y192500D01*
Y194750D02*X11850Y195500D01*
X12600D01*
X13350Y194750D01*
Y192500D01*
Y194750D02*X14100Y195500D01*
X14850D01*
X15600Y194750D01*
Y192500D01*
X10350Y195500D02*X11100Y194750D01*
X17400Y198500D02*Y192500D01*
Y193250D02*X18150Y192500D01*
X19650D01*
X20400Y193250D01*
Y194750D02*Y193250D01*
X19650Y195500D02*X20400Y194750D01*
X18150Y195500D02*X19650D01*
X17400Y194750D02*X18150Y195500D01*
X22200Y194750D02*Y193250D01*
Y194750D02*X22950Y195500D01*
X24450D01*
X25200Y194750D01*
Y193250D01*
X24450Y192500D02*X25200Y193250D01*
X22950Y192500D02*X24450D01*
X22200Y193250D02*X22950Y192500D01*
X27000Y198500D02*Y193250D01*
X27750Y192500D01*
X0Y189250D02*X29250D01*
X41750Y198500D02*Y192500D01*
X43700Y198500D02*X44750Y197450D01*
Y193550D01*
X43700Y192500D02*X44750Y193550D01*
X41000Y192500D02*X43700D01*
X41000Y198500D02*X43700D01*
G54D71*X46550Y197000D02*Y196850D01*
G54D70*Y194750D02*Y192500D01*
X50300Y195500D02*X51050Y194750D01*
X48800Y195500D02*X50300D01*
X48050Y194750D02*X48800Y195500D01*
X48050Y194750D02*Y193250D01*
X48800Y192500D01*
X51050Y195500D02*Y193250D01*
X51800Y192500D01*
X48800D02*X50300D01*
X51050Y193250D01*
X54350Y194750D02*Y192500D01*
Y194750D02*X55100Y195500D01*
X55850D01*
X56600Y194750D01*
Y192500D01*
Y194750D02*X57350Y195500D01*
X58100D01*
X58850Y194750D01*
Y192500D01*
X53600Y195500D02*X54350Y194750D01*
X60650Y192500D02*X61400D01*
X65900Y193250D02*X66650Y192500D01*
X65900Y197750D02*X66650Y198500D01*
X65900Y197750D02*Y193250D01*
X68450Y198500D02*X69950D01*
X69200D02*Y192500D01*
X68450D02*X69950D01*
X72500Y194750D02*Y192500D01*
Y194750D02*X73250Y195500D01*
X74000D01*
X74750Y194750D01*
Y192500D01*
X71750Y195500D02*X72500Y194750D01*
X77300Y195500D02*X79550D01*
X76550Y194750D02*X77300Y195500D01*
X76550Y194750D02*Y193250D01*
X77300Y192500D01*
X79550D01*
X81350Y198500D02*Y192500D01*
Y194750D02*X82100Y195500D01*
X83600D01*
X84350Y194750D01*
Y192500D01*
X86150Y198500D02*X86900Y197750D01*
Y193250D01*
X86150Y192500D02*X86900Y193250D01*
X41000Y189250D02*X88700D01*
X96050Y192500D02*X98000D01*
X95000Y193550D02*X96050Y192500D01*
X95000Y197450D02*Y193550D01*
Y197450D02*X96050Y198500D01*
X98000D01*
X99800Y194750D02*Y193250D01*
Y194750D02*X100550Y195500D01*
X102050D01*
X102800Y194750D01*
Y193250D01*
X102050Y192500D02*X102800Y193250D01*
X100550Y192500D02*X102050D01*
X99800Y193250D02*X100550Y192500D01*
X104600Y195500D02*Y193250D01*
X105350Y192500D01*
X106850D01*
X107600Y193250D01*
Y195500D02*Y193250D01*
X110150Y194750D02*Y192500D01*
Y194750D02*X110900Y195500D01*
X111650D01*
X112400Y194750D01*
Y192500D01*
X109400Y195500D02*X110150Y194750D01*
X114950Y198500D02*Y193250D01*
X115700Y192500D01*
X114200Y196250D02*X115700D01*
X95000Y189250D02*X117200D01*
X130750Y198500D02*Y192500D01*
X130000Y198500D02*X133000D01*
X133750Y197750D01*
Y196250D01*
X133000Y195500D02*X133750Y196250D01*
X130750Y195500D02*X133000D01*
X135550Y198500D02*Y193250D01*
X136300Y192500D01*
X140050Y195500D02*X140800Y194750D01*
X138550Y195500D02*X140050D01*
X137800Y194750D02*X138550Y195500D01*
X137800Y194750D02*Y193250D01*
X138550Y192500D01*
X140800Y195500D02*Y193250D01*
X141550Y192500D01*
X138550D02*X140050D01*
X140800Y193250D01*
X144100Y198500D02*Y193250D01*
X144850Y192500D01*
X143350Y196250D02*X144850D01*
X147100Y192500D02*X149350D01*
X146350Y193250D02*X147100Y192500D01*
X146350Y194750D02*Y193250D01*
Y194750D02*X147100Y195500D01*
X148600D01*
X149350Y194750D01*
X146350Y194000D02*X149350D01*
Y194750D02*Y194000D01*
X154150Y198500D02*Y192500D01*
X153400D02*X154150Y193250D01*
X151900Y192500D02*X153400D01*
X151150Y193250D02*X151900Y192500D01*
X151150Y194750D02*Y193250D01*
Y194750D02*X151900Y195500D01*
X153400D01*
X154150Y194750D01*
X157450Y195500D02*Y194750D01*
Y193250D02*Y192500D01*
X155950Y197750D02*Y197000D01*
Y197750D02*X156700Y198500D01*
X158200D01*
X158950Y197750D01*
Y197000D01*
X157450Y195500D02*X158950Y197000D01*
X130000Y189250D02*X160750D01*
X0Y213500D02*X3000D01*
X1500D02*Y207500D01*
X4800Y213500D02*Y207500D01*
Y209750D02*X5550Y210500D01*
X7050D01*
X7800Y209750D01*
Y207500D01*
X10350D02*X12600D01*
X9600Y208250D02*X10350Y207500D01*
X9600Y209750D02*Y208250D01*
Y209750D02*X10350Y210500D01*
X11850D01*
X12600Y209750D01*
X9600Y209000D02*X12600D01*
Y209750D02*Y209000D01*
X15150Y209750D02*Y207500D01*
Y209750D02*X15900Y210500D01*
X17400D01*
X14400D02*X15150Y209750D01*
X19950Y207500D02*X22200D01*
X19200Y208250D02*X19950Y207500D01*
X19200Y209750D02*Y208250D01*
Y209750D02*X19950Y210500D01*
X21450D01*
X22200Y209750D01*
X19200Y209000D02*X22200D01*
Y209750D02*Y209000D01*
X28950Y210500D02*X29700Y209750D01*
X27450Y210500D02*X28950D01*
X26700Y209750D02*X27450Y210500D01*
X26700Y209750D02*Y208250D01*
X27450Y207500D01*
X29700Y210500D02*Y208250D01*
X30450Y207500D01*
X27450D02*X28950D01*
X29700Y208250D01*
X33000Y209750D02*Y207500D01*
Y209750D02*X33750Y210500D01*
X35250D01*
X32250D02*X33000Y209750D01*
X37800Y207500D02*X40050D01*
X37050Y208250D02*X37800Y207500D01*
X37050Y209750D02*Y208250D01*
Y209750D02*X37800Y210500D01*
X39300D01*
X40050Y209750D01*
X37050Y209000D02*X40050D01*
Y209750D02*Y209000D01*
X44550Y213500D02*X47550D01*
X44550D02*Y210500D01*
X45300Y211250D01*
X46800D01*
X47550Y210500D01*
Y208250D01*
X46800Y207500D02*X47550Y208250D01*
X45300Y207500D02*X46800D01*
X44550Y208250D02*X45300Y207500D01*
X55050Y213500D02*Y207500D01*
X54300D02*X55050Y208250D01*
X52800Y207500D02*X54300D01*
X52050Y208250D02*X52800Y207500D01*
X52050Y209750D02*Y208250D01*
Y209750D02*X52800Y210500D01*
X54300D01*
X55050Y209750D01*
G54D71*X56850Y212000D02*Y211850D01*
G54D70*Y209750D02*Y207500D01*
X59100Y212750D02*Y207500D01*
Y212750D02*X59850Y213500D01*
X60600D01*
X58350Y210500D02*X59850D01*
X62850Y212750D02*Y207500D01*
Y212750D02*X63600Y213500D01*
X64350D01*
X62100Y210500D02*X63600D01*
X66600Y207500D02*X68850D01*
X65850Y208250D02*X66600Y207500D01*
X65850Y209750D02*Y208250D01*
Y209750D02*X66600Y210500D01*
X68100D01*
X68850Y209750D01*
X65850Y209000D02*X68850D01*
Y209750D02*Y209000D01*
X71400Y209750D02*Y207500D01*
Y209750D02*X72150Y210500D01*
X73650D01*
X70650D02*X71400Y209750D01*
X76200Y207500D02*X78450D01*
X75450Y208250D02*X76200Y207500D01*
X75450Y209750D02*Y208250D01*
Y209750D02*X76200Y210500D01*
X77700D01*
X78450Y209750D01*
X75450Y209000D02*X78450D01*
Y209750D02*Y209000D01*
X81000Y209750D02*Y207500D01*
Y209750D02*X81750Y210500D01*
X82500D01*
X83250Y209750D01*
Y207500D01*
X80250Y210500D02*X81000Y209750D01*
X85800Y213500D02*Y208250D01*
X86550Y207500D01*
X85050Y211250D02*X86550D01*
X93750Y213500D02*Y207500D01*
X93000D02*X93750Y208250D01*
X91500Y207500D02*X93000D01*
X90750Y208250D02*X91500Y207500D01*
X90750Y209750D02*Y208250D01*
Y209750D02*X91500Y210500D01*
X93000D01*
X93750Y209750D01*
X96300D02*Y207500D01*
Y209750D02*X97050Y210500D01*
X98550D01*
X95550D02*X96300Y209750D01*
G54D71*X100350Y212000D02*Y211850D01*
G54D70*Y209750D02*Y207500D01*
X101850Y213500D02*Y208250D01*
X102600Y207500D01*
X104100Y213500D02*Y208250D01*
X104850Y207500D01*
X109800D02*X112050D01*
X112800Y208250D01*
X112050Y209000D02*X112800Y208250D01*
X109800Y209000D02*X112050D01*
X109050Y209750D02*X109800Y209000D01*
X109050Y209750D02*X109800Y210500D01*
X112050D01*
X112800Y209750D01*
X109050Y208250D02*X109800Y207500D01*
G54D71*X114600Y212000D02*Y211850D01*
G54D70*Y209750D02*Y207500D01*
X116100Y210500D02*X119100D01*
X116100Y207500D02*X119100Y210500D01*
X116100Y207500D02*X119100D01*
X121650D02*X123900D01*
X120900Y208250D02*X121650Y207500D01*
X120900Y209750D02*Y208250D01*
Y209750D02*X121650Y210500D01*
X123150D01*
X123900Y209750D01*
X120900Y209000D02*X123900D01*
Y209750D02*Y209000D01*
X126450Y207500D02*X128700D01*
X129450Y208250D01*
X128700Y209000D02*X129450Y208250D01*
X126450Y209000D02*X128700D01*
X125700Y209750D02*X126450Y209000D01*
X125700Y209750D02*X126450Y210500D01*
X128700D01*
X129450Y209750D01*
X125700Y208250D02*X126450Y207500D01*
X133950Y210500D02*Y208250D01*
X134700Y207500D01*
X136200D01*
X136950Y208250D01*
Y210500D02*Y208250D01*
X139500Y207500D02*X141750D01*
X142500Y208250D01*
X141750Y209000D02*X142500Y208250D01*
X139500Y209000D02*X141750D01*
X138750Y209750D02*X139500Y209000D01*
X138750Y209750D02*X139500Y210500D01*
X141750D01*
X142500Y209750D01*
X138750Y208250D02*X139500Y207500D01*
X145050D02*X147300D01*
X144300Y208250D02*X145050Y207500D01*
X144300Y209750D02*Y208250D01*
Y209750D02*X145050Y210500D01*
X146550D01*
X147300Y209750D01*
X144300Y209000D02*X147300D01*
Y209750D02*Y209000D01*
X152100Y213500D02*Y207500D01*
X151350D02*X152100Y208250D01*
X149850Y207500D02*X151350D01*
X149100Y208250D02*X149850Y207500D01*
X149100Y209750D02*Y208250D01*
Y209750D02*X149850Y210500D01*
X151350D01*
X152100Y209750D01*
G54D71*X156600Y212000D02*Y211850D01*
G54D70*Y209750D02*Y207500D01*
X158850Y209750D02*Y207500D01*
Y209750D02*X159600Y210500D01*
X160350D01*
X161100Y209750D01*
Y207500D01*
X158100Y210500D02*X158850Y209750D01*
X166350Y213500D02*Y208250D01*
X167100Y207500D01*
X165600Y211250D02*X167100D01*
X168600Y213500D02*Y207500D01*
Y209750D02*X169350Y210500D01*
X170850D01*
X171600Y209750D01*
Y207500D01*
G54D71*X173400Y212000D02*Y211850D01*
G54D70*Y209750D02*Y207500D01*
X175650D02*X177900D01*
X178650Y208250D01*
X177900Y209000D02*X178650Y208250D01*
X175650Y209000D02*X177900D01*
X174900Y209750D02*X175650Y209000D01*
X174900Y209750D02*X175650Y210500D01*
X177900D01*
X178650Y209750D01*
X174900Y208250D02*X175650Y207500D01*
X183150Y213500D02*Y208250D01*
X183900Y207500D01*
X187650Y210500D02*X188400Y209750D01*
X186150Y210500D02*X187650D01*
X185400Y209750D02*X186150Y210500D01*
X185400Y209750D02*Y208250D01*
X186150Y207500D01*
X188400Y210500D02*Y208250D01*
X189150Y207500D01*
X186150D02*X187650D01*
X188400Y208250D01*
X190950Y210500D02*Y208250D01*
X191700Y207500D01*
X193950Y210500D02*Y206000D01*
X193200Y205250D02*X193950Y206000D01*
X191700Y205250D02*X193200D01*
X190950Y206000D02*X191700Y205250D01*
Y207500D02*X193200D01*
X193950Y208250D01*
X195750Y209750D02*Y208250D01*
Y209750D02*X196500Y210500D01*
X198000D01*
X198750Y209750D01*
Y208250D01*
X198000Y207500D02*X198750Y208250D01*
X196500Y207500D02*X198000D01*
X195750Y208250D02*X196500Y207500D01*
X200550Y210500D02*Y208250D01*
X201300Y207500D01*
X202800D01*
X203550Y208250D01*
Y210500D02*Y208250D01*
X206100Y213500D02*Y208250D01*
X206850Y207500D01*
X205350Y211250D02*X206850D01*
X208350Y206000D02*X209850Y207500D01*
X214350Y212300D02*X215550Y213500D01*
Y207500D01*
X214350D02*X216600D01*
X218400Y208250D02*X219150Y207500D01*
X218400Y212750D02*Y208250D01*
Y212750D02*X219150Y213500D01*
X220650D01*
X221400Y212750D01*
Y208250D01*
X220650Y207500D02*X221400Y208250D01*
X219150Y207500D02*X220650D01*
X218400Y209000D02*X221400Y212000D01*
X223200Y213500D02*X226200D01*
X223200D02*Y210500D01*
X223950Y211250D01*
X225450D01*
X226200Y210500D01*
Y208250D01*
X225450Y207500D02*X226200Y208250D01*
X223950Y207500D02*X225450D01*
X223200Y208250D02*X223950Y207500D01*
X230700Y213500D02*Y207500D01*
Y209750D02*X231450Y210500D01*
X232950D01*
X233700Y209750D01*
Y207500D01*
X235500Y209750D02*Y208250D01*
Y209750D02*X236250Y210500D01*
X237750D01*
X238500Y209750D01*
Y208250D01*
X237750Y207500D02*X238500Y208250D01*
X236250Y207500D02*X237750D01*
X235500Y208250D02*X236250Y207500D01*
X240300Y213500D02*Y208250D01*
X241050Y207500D01*
X243300D02*X245550D01*
X242550Y208250D02*X243300Y207500D01*
X242550Y209750D02*Y208250D01*
Y209750D02*X243300Y210500D01*
X244800D01*
X245550Y209750D01*
X242550Y209000D02*X245550D01*
Y209750D02*Y209000D01*
X248100Y207500D02*X250350D01*
X251100Y208250D01*
X250350Y209000D02*X251100Y208250D01*
X248100Y209000D02*X250350D01*
X247350Y209750D02*X248100Y209000D01*
X247350Y209750D02*X248100Y210500D01*
X250350D01*
X251100Y209750D01*
X247350Y208250D02*X248100Y207500D01*
X256350Y213500D02*Y208250D01*
X257100Y207500D01*
X255600Y211250D02*X257100D01*
X258600Y209750D02*Y208250D01*
Y209750D02*X259350Y210500D01*
X260850D01*
X261600Y209750D01*
Y208250D01*
X260850Y207500D02*X261600Y208250D01*
X259350Y207500D02*X260850D01*
X258600Y208250D02*X259350Y207500D01*
X264150Y213500D02*Y208250D01*
X264900Y207500D01*
X263400Y211250D02*X264900D01*
X268650Y210500D02*X269400Y209750D01*
X267150Y210500D02*X268650D01*
X266400Y209750D02*X267150Y210500D01*
X266400Y209750D02*Y208250D01*
X267150Y207500D01*
X269400Y210500D02*Y208250D01*
X270150Y207500D01*
X267150D02*X268650D01*
X269400Y208250D01*
X271950Y213500D02*Y208250D01*
X272700Y207500D01*
G54D72*X100000Y0D02*X0D01*
X100000Y110000D02*X0D01*
Y0D01*
X210000D02*X110000D01*
X210000Y110000D02*X110000D01*
X320000Y0D02*X220000D01*
X320000Y110000D02*X220000D01*
X430000Y0D02*X330000D01*
X430000Y110000D02*X330000D01*
X540000Y0D02*X440000D01*
X540000Y110000D02*X440000D01*
X540000Y0D02*Y110000D01*
X100000D02*Y60000D01*
X110000D01*
Y110000D01*
X100000Y0D02*Y50000D01*
X110000D01*
Y0D01*
X210000Y110000D02*Y60000D01*
X220000D01*
Y110000D01*
X210000Y0D02*Y50000D01*
X220000D01*
Y0D01*
X320000Y110000D02*Y60000D01*
X330000D01*
Y110000D01*
X320000Y0D02*Y50000D01*
X330000D01*
Y0D01*
X430000Y110000D02*Y60000D01*
X440000D01*
Y110000D01*
X430000Y0D02*Y50000D01*
X440000D01*
Y0D01*
G54D70*X183675Y-9500D02*X186675D01*
X187425Y-8750D01*
Y-6950D02*Y-8750D01*
X186675Y-6200D02*X187425Y-6950D01*
X184425Y-6200D02*X186675D01*
X184425Y-3500D02*Y-9500D01*
X183675Y-3500D02*X186675D01*
X187425Y-4250D01*
Y-5450D01*
X186675Y-6200D02*X187425Y-5450D01*
X189225Y-7250D02*Y-8750D01*
Y-7250D02*X189975Y-6500D01*
X191475D01*
X192225Y-7250D01*
Y-8750D01*
X191475Y-9500D02*X192225Y-8750D01*
X189975Y-9500D02*X191475D01*
X189225Y-8750D02*X189975Y-9500D01*
X196275Y-6500D02*X197025Y-7250D01*
X194775Y-6500D02*X196275D01*
X194025Y-7250D02*X194775Y-6500D01*
X194025Y-7250D02*Y-8750D01*
X194775Y-9500D01*
X197025Y-6500D02*Y-8750D01*
X197775Y-9500D01*
X194775D02*X196275D01*
X197025Y-8750D01*
X200325Y-7250D02*Y-9500D01*
Y-7250D02*X201075Y-6500D01*
X202575D01*
X199575D02*X200325Y-7250D01*
X207375Y-3500D02*Y-9500D01*
X206625D02*X207375Y-8750D01*
X205125Y-9500D02*X206625D01*
X204375Y-8750D02*X205125Y-9500D01*
X204375Y-7250D02*Y-8750D01*
Y-7250D02*X205125Y-6500D01*
X206625D01*
X207375Y-7250D01*
X211875D02*Y-8750D01*
Y-7250D02*X212625Y-6500D01*
X214125D01*
X214875Y-7250D01*
Y-8750D01*
X214125Y-9500D02*X214875Y-8750D01*
X212625Y-9500D02*X214125D01*
X211875Y-8750D02*X212625Y-9500D01*
X216675Y-6500D02*Y-8750D01*
X217425Y-9500D01*
X218925D01*
X219675Y-8750D01*
Y-6500D02*Y-8750D01*
X222225Y-3500D02*Y-8750D01*
X222975Y-9500D01*
X221475Y-5750D02*X222975D01*
X224475Y-3500D02*Y-8750D01*
X225225Y-9500D01*
G54D71*X226725Y-5000D02*Y-5150D01*
G54D70*Y-7250D02*Y-9500D01*
X228975Y-7250D02*Y-9500D01*
Y-7250D02*X229725Y-6500D01*
X230475D01*
X231225Y-7250D01*
Y-9500D01*
X228225Y-6500D02*X228975Y-7250D01*
X233775Y-9500D02*X236025D01*
X233025Y-8750D02*X233775Y-9500D01*
X233025Y-7250D02*Y-8750D01*
Y-7250D02*X233775Y-6500D01*
X235275D01*
X236025Y-7250D01*
X233025Y-8000D02*X236025D01*
Y-7250D02*Y-8000D01*
G54D71*X240525Y-5000D02*Y-5150D01*
G54D70*Y-7250D02*Y-9500D01*
X242775D02*X245025D01*
X245775Y-8750D01*
X245025Y-8000D02*X245775Y-8750D01*
X242775Y-8000D02*X245025D01*
X242025Y-7250D02*X242775Y-8000D01*
X242025Y-7250D02*X242775Y-6500D01*
X245025D01*
X245775Y-7250D01*
X242025Y-8750D02*X242775Y-9500D01*
X251025Y-3500D02*Y-8750D01*
X251775Y-9500D01*
X250275Y-5750D02*X251775D01*
X253275Y-3500D02*Y-9500D01*
Y-7250D02*X254025Y-6500D01*
X255525D01*
X256275Y-7250D01*
Y-9500D01*
X258825D02*X261075D01*
X258075Y-8750D02*X258825Y-9500D01*
X258075Y-7250D02*Y-8750D01*
Y-7250D02*X258825Y-6500D01*
X260325D01*
X261075Y-7250D01*
X258075Y-8000D02*X261075D01*
Y-7250D02*Y-8000D01*
X266325Y-6500D02*X268575D01*
X265575Y-7250D02*X266325Y-6500D01*
X265575Y-7250D02*Y-8750D01*
X266325Y-9500D01*
X268575D01*
X271125D02*X273375D01*
X270375Y-8750D02*X271125Y-9500D01*
X270375Y-7250D02*Y-8750D01*
Y-7250D02*X271125Y-6500D01*
X272625D01*
X273375Y-7250D01*
X270375Y-8000D02*X273375D01*
Y-7250D02*Y-8000D01*
X275925Y-7250D02*Y-9500D01*
Y-7250D02*X276675Y-6500D01*
X277425D01*
X278175Y-7250D01*
Y-9500D01*
X275175Y-6500D02*X275925Y-7250D01*
X280725Y-3500D02*Y-8750D01*
X281475Y-9500D01*
X279975Y-5750D02*X281475D01*
X283725Y-9500D02*X285975D01*
X282975Y-8750D02*X283725Y-9500D01*
X282975Y-7250D02*Y-8750D01*
Y-7250D02*X283725Y-6500D01*
X285225D01*
X285975Y-7250D01*
X282975Y-8000D02*X285975D01*
Y-7250D02*Y-8000D01*
X288525Y-7250D02*Y-9500D01*
Y-7250D02*X289275Y-6500D01*
X290775D01*
X287775D02*X288525Y-7250D01*
X292575Y-3500D02*Y-8750D01*
X293325Y-9500D01*
G54D71*X294825Y-5000D02*Y-5150D01*
G54D70*Y-7250D02*Y-9500D01*
X297075Y-7250D02*Y-9500D01*
Y-7250D02*X297825Y-6500D01*
X298575D01*
X299325Y-7250D01*
Y-9500D01*
X296325Y-6500D02*X297075Y-7250D01*
X301875Y-9500D02*X304125D01*
X301125Y-8750D02*X301875Y-9500D01*
X301125Y-7250D02*Y-8750D01*
Y-7250D02*X301875Y-6500D01*
X303375D01*
X304125Y-7250D01*
X301125Y-8000D02*X304125D01*
Y-7250D02*Y-8000D01*
X308625Y-7250D02*Y-8750D01*
Y-7250D02*X309375Y-6500D01*
X310875D01*
X311625Y-7250D01*
Y-8750D01*
X310875Y-9500D02*X311625Y-8750D01*
X309375Y-9500D02*X310875D01*
X308625Y-8750D02*X309375Y-9500D01*
X314175Y-4250D02*Y-9500D01*
Y-4250D02*X314925Y-3500D01*
X315675D01*
X313425Y-6500D02*X314925D01*
X320625Y-3500D02*Y-8750D01*
X321375Y-9500D01*
X319875Y-5750D02*X321375D01*
X322875Y-3500D02*Y-9500D01*
Y-7250D02*X323625Y-6500D01*
X325125D01*
X325875Y-7250D01*
Y-9500D01*
G54D71*X327675Y-5000D02*Y-5150D01*
G54D70*Y-7250D02*Y-9500D01*
X329925D02*X332175D01*
X332925Y-8750D01*
X332175Y-8000D02*X332925Y-8750D01*
X329925Y-8000D02*X332175D01*
X329175Y-7250D02*X329925Y-8000D01*
X329175Y-7250D02*X329925Y-6500D01*
X332175D01*
X332925Y-7250D01*
X329175Y-8750D02*X329925Y-9500D01*
X338175Y-7250D02*Y-11750D01*
X337425Y-6500D02*X338175Y-7250D01*
X338925Y-6500D01*
X340425D01*
X341175Y-7250D01*
Y-8750D01*
X340425Y-9500D02*X341175Y-8750D01*
X338925Y-9500D02*X340425D01*
X338175Y-8750D02*X338925Y-9500D01*
X345225Y-6500D02*X345975Y-7250D01*
X343725Y-6500D02*X345225D01*
X342975Y-7250D02*X343725Y-6500D01*
X342975Y-7250D02*Y-8750D01*
X343725Y-9500D01*
X345975Y-6500D02*Y-8750D01*
X346725Y-9500D01*
X343725D02*X345225D01*
X345975Y-8750D01*
X349275Y-3500D02*Y-8750D01*
X350025Y-9500D01*
X348525Y-5750D02*X350025D01*
X351525Y-3500D02*Y-9500D01*
Y-7250D02*X352275Y-6500D01*
X353775D01*
X354525Y-7250D01*
Y-9500D01*
X200750Y138500D02*Y132500D01*
X202700Y138500D02*X203750Y137450D01*
Y133550D01*
X202700Y132500D02*X203750Y133550D01*
X200000Y132500D02*X202700D01*
X200000Y138500D02*X202700D01*
X207800Y135500D02*X208550Y134750D01*
X206300Y135500D02*X207800D01*
X205550Y134750D02*X206300Y135500D01*
X205550Y134750D02*Y133250D01*
X206300Y132500D01*
X208550Y135500D02*Y133250D01*
X209300Y132500D01*
X206300D02*X207800D01*
X208550Y133250D01*
X211850Y138500D02*Y133250D01*
X212600Y132500D01*
X211100Y136250D02*X212600D01*
X214850Y132500D02*X217100D01*
X214100Y133250D02*X214850Y132500D01*
X214100Y134750D02*Y133250D01*
Y134750D02*X214850Y135500D01*
X216350D01*
X217100Y134750D01*
X214100Y134000D02*X217100D01*
Y134750D02*Y134000D01*
X218900Y136250D02*X219650D01*
X218900Y134750D02*X219650D01*
X224150Y138500D02*X227150D01*
X225650D02*Y132500D01*
X228950Y138500D02*Y132500D01*
Y134750D02*X229700Y135500D01*
X231200D01*
X231950Y134750D01*
Y132500D01*
X233750Y135500D02*Y133250D01*
X234500Y132500D01*
X236000D01*
X236750Y133250D01*
Y135500D02*Y133250D01*
X241250Y137750D02*X242000Y138500D01*
X244250D01*
X245000Y137750D01*
Y136250D01*
X241250Y132500D02*X245000Y136250D01*
X241250Y132500D02*X245000D01*
X246800Y138500D02*X249800D01*
X246800D02*Y135500D01*
X247550Y136250D01*
X249050D01*
X249800Y135500D01*
Y133250D01*
X249050Y132500D02*X249800Y133250D01*
X247550Y132500D02*X249050D01*
X246800Y133250D02*X247550Y132500D01*
X254300Y137750D02*Y133250D01*
Y137750D02*X255050Y138500D01*
X256550D01*
X257300Y137750D01*
Y133250D01*
X256550Y132500D02*X257300Y133250D01*
X255050Y132500D02*X256550D01*
X254300Y133250D02*X255050Y132500D01*
X259850Y135500D02*X262100D01*
X259100Y134750D02*X259850Y135500D01*
X259100Y134750D02*Y133250D01*
X259850Y132500D01*
X262100D01*
X264650Y138500D02*Y133250D01*
X265400Y132500D01*
X263900Y136250D02*X265400D01*
X269600Y137750D02*X270350Y138500D01*
X272600D01*
X273350Y137750D01*
Y136250D01*
X269600Y132500D02*X273350Y136250D01*
X269600Y132500D02*X273350D01*
X275150Y133250D02*X275900Y132500D01*
X275150Y137750D02*Y133250D01*
Y137750D02*X275900Y138500D01*
X277400D01*
X278150Y137750D01*
Y133250D01*
X277400Y132500D02*X278150Y133250D01*
X275900Y132500D02*X277400D01*
X275150Y134000D02*X278150Y137000D01*
X279950Y137300D02*X281150Y138500D01*
Y132500D01*
X279950D02*X282200D01*
X284000Y133250D02*X284750Y132500D01*
X284000Y134450D02*Y133250D01*
Y134450D02*X285050Y135500D01*
X285950D01*
X287000Y134450D01*
Y133250D01*
X286250Y132500D02*X287000Y133250D01*
X284750Y132500D02*X286250D01*
X284000Y136550D02*X285050Y135500D01*
X284000Y137750D02*Y136550D01*
Y137750D02*X284750Y138500D01*
X286250D01*
X287000Y137750D01*
Y136550D01*
X285950Y135500D02*X287000Y136550D01*
X291500Y133250D02*X292250Y132500D01*
X291500Y137750D02*Y133250D01*
Y137750D02*X292250Y138500D01*
X293750D01*
X294500Y137750D01*
Y133250D01*
X293750Y132500D02*X294500Y133250D01*
X292250Y132500D02*X293750D01*
X291500Y134000D02*X294500Y137000D01*
X296300Y134750D02*X299300Y138500D01*
X296300Y134750D02*X300050D01*
X299300Y138500D02*Y132500D01*
X301850Y136250D02*X302600D01*
X301850Y134750D02*X302600D01*
X304400D02*X307400Y138500D01*
X304400Y134750D02*X308150D01*
X307400Y138500D02*Y132500D01*
X310700D02*X312950Y135500D01*
Y137750D02*Y135500D01*
X312200Y138500D02*X312950Y137750D01*
X310700Y138500D02*X312200D01*
X309950Y137750D02*X310700Y138500D01*
X309950Y137750D02*Y136250D01*
X310700Y135500D01*
X312950D01*
X314750Y136250D02*X315500D01*
X314750Y134750D02*X315500D01*
X317300Y138500D02*X320300D01*
X317300D02*Y135500D01*
X318050Y136250D01*
X319550D01*
X320300Y135500D01*
Y133250D01*
X319550Y132500D02*X320300Y133250D01*
X318050Y132500D02*X319550D01*
X317300Y133250D02*X318050Y132500D01*
X322100Y137300D02*X323300Y138500D01*
Y132500D01*
X322100D02*X324350D01*
X329600Y138500D02*Y132500D01*
X328850Y138500D02*X331850D01*
X332600Y137750D01*
Y136250D01*
X331850Y135500D02*X332600Y136250D01*
X329600Y135500D02*X331850D01*
X334400Y138500D02*Y132500D01*
Y138500D02*X336650Y135500D01*
X338900Y138500D01*
Y132500D01*
X346400Y138500D02*X347150Y137750D01*
X344150Y138500D02*X346400D01*
X343400Y137750D02*X344150Y138500D01*
X343400Y137750D02*Y133250D01*
X344150Y132500D01*
X346400D01*
X347150Y133250D01*
Y134750D02*Y133250D01*
X346400Y135500D02*X347150Y134750D01*
X344900Y135500D02*X346400D01*
X348950Y138500D02*Y132500D01*
Y138500D02*X351200Y135500D01*
X353450Y138500D01*
Y132500D01*
X355250Y138500D02*X358250D01*
X356750D02*Y132500D01*
X362750Y138500D02*Y133250D01*
X363500Y132500D01*
X365000D01*
X365750Y133250D01*
Y138500D02*Y133250D01*
X367550Y138500D02*X370550D01*
X369050D02*Y132500D01*
X373400D02*X375350D01*
X372350Y133550D02*X373400Y132500D01*
X372350Y137450D02*Y133550D01*
Y137450D02*X373400Y138500D01*
X375350D01*
X200000Y152000D02*Y147500D01*
Y152000D02*X201050Y153500D01*
X202700D01*
X203750Y152000D01*
Y147500D01*
X200000Y150500D02*X203750D01*
X205550D02*Y148250D01*
X206300Y147500D01*
X207800D01*
X208550Y148250D01*
Y150500D02*Y148250D01*
X211100Y153500D02*Y148250D01*
X211850Y147500D01*
X210350Y151250D02*X211850D01*
X213350Y153500D02*Y147500D01*
Y149750D02*X214100Y150500D01*
X215600D01*
X216350Y149750D01*
Y147500D01*
X218150Y149750D02*Y148250D01*
Y149750D02*X218900Y150500D01*
X220400D01*
X221150Y149750D01*
Y148250D01*
X220400Y147500D02*X221150Y148250D01*
X218900Y147500D02*X220400D01*
X218150Y148250D02*X218900Y147500D01*
X223700Y149750D02*Y147500D01*
Y149750D02*X224450Y150500D01*
X225950D01*
X222950D02*X223700Y149750D01*
X227750Y151250D02*X228500D01*
X227750Y149750D02*X228500D01*
X233000Y153500D02*Y147500D01*
Y153500D02*X235250Y150500D01*
X237500Y153500D01*
Y147500D01*
G54D71*X239300Y152000D02*Y151850D01*
G54D70*Y149750D02*Y147500D01*
X241550Y150500D02*X243800D01*
X240800Y149750D02*X241550Y150500D01*
X240800Y149750D02*Y148250D01*
X241550Y147500D01*
X243800D01*
X245600Y153500D02*Y147500D01*
Y149750D02*X246350Y150500D01*
X247850D01*
X248600Y149750D01*
Y147500D01*
X252650Y150500D02*X253400Y149750D01*
X251150Y150500D02*X252650D01*
X250400Y149750D02*X251150Y150500D01*
X250400Y149750D02*Y148250D01*
X251150Y147500D01*
X253400Y150500D02*Y148250D01*
X254150Y147500D01*
X251150D02*X252650D01*
X253400Y148250D01*
X256700Y147500D02*X258950D01*
X255950Y148250D02*X256700Y147500D01*
X255950Y149750D02*Y148250D01*
Y149750D02*X256700Y150500D01*
X258200D01*
X258950Y149750D01*
X255950Y149000D02*X258950D01*
Y149750D02*Y149000D01*
X260750Y153500D02*Y148250D01*
X261500Y147500D01*
X266450Y153500D02*Y147500D01*
X265700Y153500D02*X268700D01*
X269450Y152750D01*
Y151250D01*
X268700Y150500D02*X269450Y151250D01*
X266450Y150500D02*X268700D01*
X272000Y147500D02*X274250D01*
X271250Y148250D02*X272000Y147500D01*
X271250Y149750D02*Y148250D01*
Y149750D02*X272000Y150500D01*
X273500D01*
X274250Y149750D01*
X271250Y149000D02*X274250D01*
Y149750D02*Y149000D01*
X276800Y153500D02*Y148250D01*
X277550Y147500D01*
X276050Y151250D02*X277550D01*
X279800Y147500D02*X282050D01*
X279050Y148250D02*X279800Y147500D01*
X279050Y149750D02*Y148250D01*
Y149750D02*X279800Y150500D01*
X281300D01*
X282050Y149750D01*
X279050Y149000D02*X282050D01*
Y149750D02*Y149000D01*
X284600Y149750D02*Y147500D01*
Y149750D02*X285350Y150500D01*
X286850D01*
X283850D02*X284600Y149750D01*
X289400Y147500D02*X291650D01*
X292400Y148250D01*
X291650Y149000D02*X292400Y148250D01*
X289400Y149000D02*X291650D01*
X288650Y149750D02*X289400Y149000D01*
X288650Y149750D02*X289400Y150500D01*
X291650D01*
X292400Y149750D01*
X288650Y148250D02*X289400Y147500D01*
X294950D02*X297200D01*
X294200Y148250D02*X294950Y147500D01*
X294200Y149750D02*Y148250D01*
Y149750D02*X294950Y150500D01*
X296450D01*
X297200Y149750D01*
X294200Y149000D02*X297200D01*
Y149750D02*Y149000D01*
X299750Y149750D02*Y147500D01*
Y149750D02*X300500Y150500D01*
X301250D01*
X302000Y149750D01*
Y147500D01*
X299000Y150500D02*X299750Y149750D01*
X200000Y168500D02*X203000D01*
X201500D02*Y162500D01*
G54D71*X204800Y167000D02*Y166850D01*
G54D70*Y164750D02*Y162500D01*
X207050Y168500D02*Y163250D01*
X207800Y162500D01*
X206300Y166250D02*X207800D01*
X209300Y168500D02*Y163250D01*
X210050Y162500D01*
X212300D02*X214550D01*
X211550Y163250D02*X212300Y162500D01*
X211550Y164750D02*Y163250D01*
Y164750D02*X212300Y165500D01*
X213800D01*
X214550Y164750D01*
X211550Y164000D02*X214550D01*
Y164750D02*Y164000D01*
X216350Y166250D02*X217100D01*
X216350Y164750D02*X217100D01*
X221600Y163250D02*X222350Y162500D01*
X221600Y167750D02*X222350Y168500D01*
X221600Y167750D02*Y163250D01*
X224150Y165500D02*Y163250D01*
X224900Y162500D01*
X226400D01*
X227150Y163250D01*
Y165500D02*Y163250D01*
X229700Y164750D02*Y162500D01*
Y164750D02*X230450Y165500D01*
X231200D01*
X231950Y164750D01*
Y162500D01*
X228950Y165500D02*X229700Y164750D01*
X233750Y168500D02*Y162500D01*
Y164750D02*X236000Y162500D01*
X233750Y164750D02*X235250Y166250D01*
X238550Y164750D02*Y162500D01*
Y164750D02*X239300Y165500D01*
X240050D01*
X240800Y164750D01*
Y162500D01*
X237800Y165500D02*X238550Y164750D01*
X242600D02*Y163250D01*
Y164750D02*X243350Y165500D01*
X244850D01*
X245600Y164750D01*
Y163250D01*
X244850Y162500D02*X245600Y163250D01*
X243350Y162500D02*X244850D01*
X242600Y163250D02*X243350Y162500D01*
X247400Y165500D02*Y163250D01*
X248150Y162500D01*
X248900D01*
X249650Y163250D01*
Y165500D02*Y163250D01*
X250400Y162500D01*
X251150D01*
X251900Y163250D01*
Y165500D02*Y163250D01*
X254450Y164750D02*Y162500D01*
Y164750D02*X255200Y165500D01*
X255950D01*
X256700Y164750D01*
Y162500D01*
X253700Y165500D02*X254450Y164750D01*
X258500Y168500D02*X259250Y167750D01*
Y163250D01*
X258500Y162500D02*X259250Y163250D01*
X263750Y165500D02*X266750D01*
X271250Y168500D02*Y162500D01*
Y168500D02*X274250D01*
X271250Y165800D02*X273500D01*
X278300Y165500D02*X279050Y164750D01*
X276800Y165500D02*X278300D01*
X276050Y164750D02*X276800Y165500D01*
X276050Y164750D02*Y163250D01*
X276800Y162500D01*
X279050Y165500D02*Y163250D01*
X279800Y162500D01*
X276800D02*X278300D01*
X279050Y163250D01*
X281600Y168500D02*Y162500D01*
Y163250D02*X282350Y162500D01*
X283850D01*
X284600Y163250D01*
Y164750D02*Y163250D01*
X283850Y165500D02*X284600Y164750D01*
X282350Y165500D02*X283850D01*
X281600Y164750D02*X282350Y165500D01*
X287150Y164750D02*Y162500D01*
Y164750D02*X287900Y165500D01*
X289400D01*
X286400D02*X287150Y164750D01*
G54D71*X291200Y167000D02*Y166850D01*
G54D70*Y164750D02*Y162500D01*
X293450Y165500D02*X295700D01*
X292700Y164750D02*X293450Y165500D01*
X292700Y164750D02*Y163250D01*
X293450Y162500D01*
X295700D01*
X299750Y165500D02*X300500Y164750D01*
X298250Y165500D02*X299750D01*
X297500Y164750D02*X298250Y165500D01*
X297500Y164750D02*Y163250D01*
X298250Y162500D01*
X300500Y165500D02*Y163250D01*
X301250Y162500D01*
X298250D02*X299750D01*
X300500Y163250D01*
X303800Y168500D02*Y163250D01*
X304550Y162500D01*
X303050Y166250D02*X304550D01*
G54D71*X306050Y167000D02*Y166850D01*
G54D70*Y164750D02*Y162500D01*
X307550Y164750D02*Y163250D01*
Y164750D02*X308300Y165500D01*
X309800D01*
X310550Y164750D01*
Y163250D01*
X309800Y162500D02*X310550Y163250D01*
X308300Y162500D02*X309800D01*
X307550Y163250D02*X308300Y162500D01*
X313100Y164750D02*Y162500D01*
Y164750D02*X313850Y165500D01*
X314600D01*
X315350Y164750D01*
Y162500D01*
X312350Y165500D02*X313100Y164750D01*
X320600Y168500D02*Y162500D01*
X322550Y168500D02*X323600Y167450D01*
Y163550D01*
X322550Y162500D02*X323600Y163550D01*
X319850Y162500D02*X322550D01*
X319850Y168500D02*X322550D01*
X326150Y164750D02*Y162500D01*
Y164750D02*X326900Y165500D01*
X328400D01*
X325400D02*X326150Y164750D01*
X332450Y165500D02*X333200Y164750D01*
X330950Y165500D02*X332450D01*
X330200Y164750D02*X330950Y165500D01*
X330200Y164750D02*Y163250D01*
X330950Y162500D01*
X333200Y165500D02*Y163250D01*
X333950Y162500D01*
X330950D02*X332450D01*
X333200Y163250D01*
X335750Y165500D02*Y163250D01*
X336500Y162500D01*
X337250D01*
X338000Y163250D01*
Y165500D02*Y163250D01*
X338750Y162500D01*
X339500D01*
X340250Y163250D01*
Y165500D02*Y163250D01*
G54D71*X342050Y167000D02*Y166850D01*
G54D70*Y164750D02*Y162500D01*
X344300Y164750D02*Y162500D01*
Y164750D02*X345050Y165500D01*
X345800D01*
X346550Y164750D01*
Y162500D01*
X343550Y165500D02*X344300Y164750D01*
X350600Y165500D02*X351350Y164750D01*
X349100Y165500D02*X350600D01*
X348350Y164750D02*X349100Y165500D01*
X348350Y164750D02*Y163250D01*
X349100Y162500D01*
X350600D01*
X351350Y163250D01*
X348350Y161000D02*X349100Y160250D01*
X350600D01*
X351350Y161000D01*
Y165500D02*Y161000D01*
M02*
