M48
INCH
T46C0.020
T45C0.108
T44C0.128
T43C0.038
T42C0.030
%
T46
X001165Y008100
X003300Y009150
X003750Y009150
X003950Y007200
X004400Y009150
X006300Y007200
X012165Y008100
X014300Y009150
X014750Y009150
X014950Y007200
X015400Y009150
X017300Y007200
X023165Y008100
X025300Y009150
X025750Y009150
X025950Y007200
X026400Y009150
X028300Y007200
X034165Y008100
X036300Y009150
X036750Y009150
X036950Y007200
X037400Y009150
X039300Y007200
X045165Y008100
X047300Y009150
X047750Y009150
X047950Y007200
X048400Y009150
X050300Y007200
T42
X005800Y006700
X006300Y005700
X006800Y006700
X007300Y005700
X007800Y006700
X008300Y005700
X016800Y006700
X017300Y005700
X017800Y006700
X018300Y005700
X018800Y006700
X019300Y005700
X027800Y006700
X028300Y005700
X028800Y006700
X029300Y005700
X029800Y006700
X030300Y005700
X038800Y006700
X039300Y005700
X039800Y006700
X040300Y005700
X040800Y006700
X041300Y005700
X049800Y006700
X050300Y005700
X050800Y006700
X051300Y005700
X051800Y006700
X052300Y005700
T43
X001500Y005570
X001500Y004570
X001500Y003570
X002500Y005570
X002500Y004570
X002500Y003570
X012500Y005570
X012500Y004570
X012500Y003570
X013500Y005570
X013500Y004570
X013500Y003570
X023500Y005570
X023500Y004570
X023500Y003570
X024500Y005570
X024500Y004570
X024500Y003570
X034500Y005570
X034500Y004570
X034500Y003570
X035500Y005570
X035500Y004570
X035500Y003570
X045500Y005570
X045500Y004570
X045500Y003570
X046500Y005570
X046500Y004570
X046500Y003570
T45
X002000Y001650
X013000Y001650
X024000Y001650
X035000Y001650
X046000Y001650
T44
X005050Y003200
X009050Y003200
X016050Y003200
X020050Y003200
X027050Y003200
X031050Y003200
X038050Y003200
X042050Y003200
X049050Y003200
X053050Y003200
M30
