G04 start of page 8 for group -4079 idx -4079 *
G04 Title: (unknown), topsilk *
G04 Creator: pcb 20140316 *
G04 CreationDate: Thu 25 Oct 2018 04:49:50 PM GMT UTC *
G04 For: railfan *
G04 Format: Gerber/RS-274X *
G04 PCB-Dimensions (mil): 5400.00 1100.00 *
G04 PCB-Coordinate-Origin: lower left *
%MOIN*%
%FSLAX25Y25*%
%LNTOPSILK*%
%ADD62C,0.0100*%
%ADD61C,0.0200*%
%ADD60C,0.0080*%
G54D60*X166500Y106500D02*X168500D01*
X169000Y106000D01*
Y105000D01*
X168500Y104500D02*X169000Y105000D01*
X167000Y104500D02*X168500D01*
X167000Y106500D02*Y102500D01*
X167800Y104500D02*X169000Y102500D01*
X170700Y106500D02*Y102500D01*
X170200Y106500D02*X172200D01*
X172700Y106000D01*
Y105000D01*
X172200Y104500D02*X172700Y105000D01*
X170700Y104500D02*X172200D01*
X173900Y106500D02*X174900D01*
X174400D02*Y102500D01*
X173900D02*X174900D01*
X176100Y104500D02*X178100D01*
X179300Y106500D02*X181300D01*
X179300D02*Y104500D01*
X179800Y105000D01*
X180800D01*
X181300Y104500D01*
Y103000D01*
X180800Y102500D02*X181300Y103000D01*
X179800Y102500D02*X180800D01*
X179300Y103000D02*X179800Y102500D01*
X182500Y106500D02*X183500Y102500D01*
X184500Y106500D01*
X185700D02*X186700D01*
X186200D02*Y102500D01*
X185700D02*X186700D01*
X187900Y106000D02*X188400Y106500D01*
X189900D01*
X190400Y106000D01*
Y105000D01*
X187900Y102500D02*X190400Y105000D01*
X187900Y102500D02*X190400D01*
X192300D02*X193600D01*
X191600Y103200D02*X192300Y102500D01*
X191600Y105800D02*Y103200D01*
Y105800D02*X192300Y106500D01*
X193600D01*
X196600Y104500D02*X197600Y102500D01*
X198600Y104500D02*X197600Y102500D01*
X199800Y105700D02*X200600Y106500D01*
Y102500D01*
X199800D02*X201300D01*
X202500D02*X203000D01*
X204200Y103000D02*X204700Y102500D01*
X204200Y106000D02*Y103000D01*
Y106000D02*X204700Y106500D01*
X205700D01*
X206200Y106000D01*
Y103000D01*
X205700Y102500D02*X206200Y103000D01*
X204700Y102500D02*X205700D01*
X204200Y103500D02*X206200Y105500D01*
X161500Y79500D02*X162500D01*
X162000D02*Y75500D01*
X161500D02*X162500D01*
X163700Y77000D02*Y76000D01*
Y77000D02*X164200Y77500D01*
X165200D01*
X165700Y77000D01*
Y76000D01*
X165200Y75500D02*X165700Y76000D01*
X164200Y75500D02*X165200D01*
X163700Y76000D02*X164200Y75500D01*
X166900Y77500D02*Y76000D01*
X167400Y75500D01*
X167900D01*
X168400Y76000D01*
Y77500D02*Y76000D01*
X168900Y75500D01*
X169400D01*
X169900Y76000D01*
Y77500D02*Y76000D01*
X172600Y77500D02*X173100Y77000D01*
X171600Y77500D02*X172600D01*
X171100Y77000D02*X171600Y77500D01*
X171100Y77000D02*Y76000D01*
X171600Y75500D01*
X173100Y77500D02*Y76000D01*
X173600Y75500D01*
X171600D02*X172600D01*
X173100Y76000D01*
X178600Y79500D02*X179100Y79000D01*
X177100Y79500D02*X178600D01*
X176600Y79000D02*X177100Y79500D01*
X176600Y79000D02*Y78000D01*
X177100Y77500D01*
X178600D01*
X179100Y77000D01*
Y76000D01*
X178600Y75500D02*X179100Y76000D01*
X177100Y75500D02*X178600D01*
X176600Y76000D02*X177100Y75500D01*
X180800Y77500D02*X182300D01*
X180300Y77000D02*X180800Y77500D01*
X180300Y77000D02*Y76000D01*
X180800Y75500D01*
X182300D01*
X185000Y77500D02*X185500Y77000D01*
X184000Y77500D02*X185000D01*
X183500Y77000D02*X184000Y77500D01*
X183500Y77000D02*Y76000D01*
X184000Y75500D01*
X185500Y77500D02*Y76000D01*
X186000Y75500D01*
X184000D02*X185000D01*
X185500Y76000D01*
X187200Y79500D02*Y76000D01*
X187700Y75500D01*
X189200D02*X190700D01*
X188700Y76000D02*X189200Y75500D01*
X188700Y77000D02*Y76000D01*
Y77000D02*X189200Y77500D01*
X190200D01*
X190700Y77000D01*
X188700Y76500D02*X190700D01*
Y77000D02*Y76500D01*
X193900Y79500D02*Y75500D01*
X193400D02*X193900Y76000D01*
X192400Y75500D02*X193400D01*
X191900Y76000D02*X192400Y75500D01*
X191900Y77000D02*Y76000D01*
Y77000D02*X192400Y77500D01*
X193400D01*
X193900Y77000D01*
X196900Y77700D02*X198400D01*
X196900Y75500D02*X198900D01*
X196900Y79500D02*Y75500D01*
Y79500D02*X198900D01*
X200600Y77000D02*Y75500D01*
Y77000D02*X201100Y77500D01*
X201600D01*
X202100Y77000D01*
Y75500D01*
X200100Y77500D02*X200600Y77000D01*
X204800Y77500D02*X205300Y77000D01*
X203800Y77500D02*X204800D01*
X203300Y77000D02*X203800Y77500D01*
X203300Y77000D02*Y76000D01*
X203800Y75500D01*
X204800D01*
X205300Y76000D01*
X203300Y74500D02*X203800Y74000D01*
X204800D01*
X205300Y74500D01*
Y77500D02*Y74500D01*
X276500Y106500D02*X278500D01*
X279000Y106000D01*
Y105000D01*
X278500Y104500D02*X279000Y105000D01*
X277000Y104500D02*X278500D01*
X277000Y106500D02*Y102500D01*
X277800Y104500D02*X279000Y102500D01*
X280700Y106500D02*Y102500D01*
X280200Y106500D02*X282200D01*
X282700Y106000D01*
Y105000D01*
X282200Y104500D02*X282700Y105000D01*
X280700Y104500D02*X282200D01*
X283900Y106500D02*X284900D01*
X284400D02*Y102500D01*
X283900D02*X284900D01*
X286100Y104500D02*X288100D01*
X289300Y106500D02*X291300D01*
X289300D02*Y104500D01*
X289800Y105000D01*
X290800D01*
X291300Y104500D01*
Y103000D01*
X290800Y102500D02*X291300Y103000D01*
X289800Y102500D02*X290800D01*
X289300Y103000D02*X289800Y102500D01*
X292500Y106500D02*X293500Y102500D01*
X294500Y106500D01*
X295700D02*X296700D01*
X296200D02*Y102500D01*
X295700D02*X296700D01*
X297900Y106000D02*X298400Y106500D01*
X299900D01*
X300400Y106000D01*
Y105000D01*
X297900Y102500D02*X300400Y105000D01*
X297900Y102500D02*X300400D01*
X302300D02*X303600D01*
X301600Y103200D02*X302300Y102500D01*
X301600Y105800D02*Y103200D01*
Y105800D02*X302300Y106500D01*
X303600D01*
X306600Y104500D02*X307600Y102500D01*
X308600Y104500D02*X307600Y102500D01*
X309800Y105700D02*X310600Y106500D01*
Y102500D01*
X309800D02*X311300D01*
X312500D02*X313000D01*
X314200Y103000D02*X314700Y102500D01*
X314200Y106000D02*Y103000D01*
Y106000D02*X314700Y106500D01*
X315700D01*
X316200Y106000D01*
Y103000D01*
X315700Y102500D02*X316200Y103000D01*
X314700Y102500D02*X315700D01*
X314200Y103500D02*X316200Y105500D01*
X271500Y79500D02*X272500D01*
X272000D02*Y75500D01*
X271500D02*X272500D01*
X273700Y77000D02*Y76000D01*
Y77000D02*X274200Y77500D01*
X275200D01*
X275700Y77000D01*
Y76000D01*
X275200Y75500D02*X275700Y76000D01*
X274200Y75500D02*X275200D01*
X273700Y76000D02*X274200Y75500D01*
X276900Y77500D02*Y76000D01*
X277400Y75500D01*
X277900D01*
X278400Y76000D01*
Y77500D02*Y76000D01*
X278900Y75500D01*
X279400D01*
X279900Y76000D01*
Y77500D02*Y76000D01*
X282600Y77500D02*X283100Y77000D01*
X281600Y77500D02*X282600D01*
X281100Y77000D02*X281600Y77500D01*
X281100Y77000D02*Y76000D01*
X281600Y75500D01*
X283100Y77500D02*Y76000D01*
X283600Y75500D01*
X281600D02*X282600D01*
X283100Y76000D01*
X288600Y79500D02*X289100Y79000D01*
X287100Y79500D02*X288600D01*
X286600Y79000D02*X287100Y79500D01*
X286600Y79000D02*Y78000D01*
X287100Y77500D01*
X288600D01*
X289100Y77000D01*
Y76000D01*
X288600Y75500D02*X289100Y76000D01*
X287100Y75500D02*X288600D01*
X286600Y76000D02*X287100Y75500D01*
X290800Y77500D02*X292300D01*
X290300Y77000D02*X290800Y77500D01*
X290300Y77000D02*Y76000D01*
X290800Y75500D01*
X292300D01*
X295000Y77500D02*X295500Y77000D01*
X294000Y77500D02*X295000D01*
X293500Y77000D02*X294000Y77500D01*
X293500Y77000D02*Y76000D01*
X294000Y75500D01*
X295500Y77500D02*Y76000D01*
X296000Y75500D01*
X294000D02*X295000D01*
X295500Y76000D01*
X297200Y79500D02*Y76000D01*
X297700Y75500D01*
X299200D02*X300700D01*
X298700Y76000D02*X299200Y75500D01*
X298700Y77000D02*Y76000D01*
Y77000D02*X299200Y77500D01*
X300200D01*
X300700Y77000D01*
X298700Y76500D02*X300700D01*
Y77000D02*Y76500D01*
X303900Y79500D02*Y75500D01*
X303400D02*X303900Y76000D01*
X302400Y75500D02*X303400D01*
X301900Y76000D02*X302400Y75500D01*
X301900Y77000D02*Y76000D01*
Y77000D02*X302400Y77500D01*
X303400D01*
X303900Y77000D01*
X306900Y77700D02*X308400D01*
X306900Y75500D02*X308900D01*
X306900Y79500D02*Y75500D01*
Y79500D02*X308900D01*
X310600Y77000D02*Y75500D01*
Y77000D02*X311100Y77500D01*
X311600D01*
X312100Y77000D01*
Y75500D01*
X310100Y77500D02*X310600Y77000D01*
X314800Y77500D02*X315300Y77000D01*
X313800Y77500D02*X314800D01*
X313300Y77000D02*X313800Y77500D01*
X313300Y77000D02*Y76000D01*
X313800Y75500D01*
X314800D01*
X315300Y76000D01*
X313300Y74500D02*X313800Y74000D01*
X314800D01*
X315300Y74500D01*
Y77500D02*Y74500D01*
X56500Y106500D02*X58500D01*
X59000Y106000D01*
Y105000D01*
X58500Y104500D02*X59000Y105000D01*
X57000Y104500D02*X58500D01*
X57000Y106500D02*Y102500D01*
X57800Y104500D02*X59000Y102500D01*
X60700Y106500D02*Y102500D01*
X60200Y106500D02*X62200D01*
X62700Y106000D01*
Y105000D01*
X62200Y104500D02*X62700Y105000D01*
X60700Y104500D02*X62200D01*
X63900Y106500D02*X64900D01*
X64400D02*Y102500D01*
X63900D02*X64900D01*
X66100Y104500D02*X68100D01*
X69300Y106500D02*X71300D01*
X69300D02*Y104500D01*
X69800Y105000D01*
X70800D01*
X71300Y104500D01*
Y103000D01*
X70800Y102500D02*X71300Y103000D01*
X69800Y102500D02*X70800D01*
X69300Y103000D02*X69800Y102500D01*
X72500Y106500D02*X73500Y102500D01*
X74500Y106500D01*
X75700D02*X76700D01*
X76200D02*Y102500D01*
X75700D02*X76700D01*
X77900Y106000D02*X78400Y106500D01*
X79900D01*
X80400Y106000D01*
Y105000D01*
X77900Y102500D02*X80400Y105000D01*
X77900Y102500D02*X80400D01*
X82300D02*X83600D01*
X81600Y103200D02*X82300Y102500D01*
X81600Y105800D02*Y103200D01*
Y105800D02*X82300Y106500D01*
X83600D01*
X86600Y104500D02*X87600Y102500D01*
X88600Y104500D02*X87600Y102500D01*
X89800Y105700D02*X90600Y106500D01*
Y102500D01*
X89800D02*X91300D01*
X92500D02*X93000D01*
X94200Y103000D02*X94700Y102500D01*
X94200Y106000D02*Y103000D01*
Y106000D02*X94700Y106500D01*
X95700D01*
X96200Y106000D01*
Y103000D01*
X95700Y102500D02*X96200Y103000D01*
X94700Y102500D02*X95700D01*
X94200Y103500D02*X96200Y105500D01*
X51500Y79500D02*X52500D01*
X52000D02*Y75500D01*
X51500D02*X52500D01*
X53700Y77000D02*Y76000D01*
Y77000D02*X54200Y77500D01*
X55200D01*
X55700Y77000D01*
Y76000D01*
X55200Y75500D02*X55700Y76000D01*
X54200Y75500D02*X55200D01*
X53700Y76000D02*X54200Y75500D01*
X56900Y77500D02*Y76000D01*
X57400Y75500D01*
X57900D01*
X58400Y76000D01*
Y77500D02*Y76000D01*
X58900Y75500D01*
X59400D01*
X59900Y76000D01*
Y77500D02*Y76000D01*
X62600Y77500D02*X63100Y77000D01*
X61600Y77500D02*X62600D01*
X61100Y77000D02*X61600Y77500D01*
X61100Y77000D02*Y76000D01*
X61600Y75500D01*
X63100Y77500D02*Y76000D01*
X63600Y75500D01*
X61600D02*X62600D01*
X63100Y76000D01*
X68600Y79500D02*X69100Y79000D01*
X67100Y79500D02*X68600D01*
X66600Y79000D02*X67100Y79500D01*
X66600Y79000D02*Y78000D01*
X67100Y77500D01*
X68600D01*
X69100Y77000D01*
Y76000D01*
X68600Y75500D02*X69100Y76000D01*
X67100Y75500D02*X68600D01*
X66600Y76000D02*X67100Y75500D01*
X70800Y77500D02*X72300D01*
X70300Y77000D02*X70800Y77500D01*
X70300Y77000D02*Y76000D01*
X70800Y75500D01*
X72300D01*
X75000Y77500D02*X75500Y77000D01*
X74000Y77500D02*X75000D01*
X73500Y77000D02*X74000Y77500D01*
X73500Y77000D02*Y76000D01*
X74000Y75500D01*
X75500Y77500D02*Y76000D01*
X76000Y75500D01*
X74000D02*X75000D01*
X75500Y76000D01*
X77200Y79500D02*Y76000D01*
X77700Y75500D01*
X79200D02*X80700D01*
X78700Y76000D02*X79200Y75500D01*
X78700Y77000D02*Y76000D01*
Y77000D02*X79200Y77500D01*
X80200D01*
X80700Y77000D01*
X78700Y76500D02*X80700D01*
Y77000D02*Y76500D01*
X83900Y79500D02*Y75500D01*
X83400D02*X83900Y76000D01*
X82400Y75500D02*X83400D01*
X81900Y76000D02*X82400Y75500D01*
X81900Y77000D02*Y76000D01*
Y77000D02*X82400Y77500D01*
X83400D01*
X83900Y77000D01*
X86900Y77700D02*X88400D01*
X86900Y75500D02*X88900D01*
X86900Y79500D02*Y75500D01*
Y79500D02*X88900D01*
X90600Y77000D02*Y75500D01*
Y77000D02*X91100Y77500D01*
X91600D01*
X92100Y77000D01*
Y75500D01*
X90100Y77500D02*X90600Y77000D01*
X94800Y77500D02*X95300Y77000D01*
X93800Y77500D02*X94800D01*
X93300Y77000D02*X93800Y77500D01*
X93300Y77000D02*Y76000D01*
X93800Y75500D01*
X94800D01*
X95300Y76000D01*
X93300Y74500D02*X93800Y74000D01*
X94800D01*
X95300Y74500D01*
Y77500D02*Y74500D01*
X39500Y8500D02*Y7200D01*
X38800Y6500D02*X39500Y7200D01*
X36200Y6500D02*X38800D01*
X36200D02*X35500Y7200D01*
Y8500D02*Y7200D01*
X39500Y11700D02*Y10400D01*
X38800Y9700D02*X39500Y10400D01*
X36200Y9700D02*X38800D01*
X36200D02*X35500Y10400D01*
Y11700D02*Y10400D01*
X39500Y16700D02*Y14700D01*
Y16700D02*X39000Y17200D01*
X37800D02*X39000D01*
X37300Y16700D02*X37800Y17200D01*
X37300Y16700D02*Y15200D01*
X35500D02*X39500D01*
X35500Y16700D02*Y14700D01*
Y16700D02*X36000Y17200D01*
X36800D01*
X37300Y16700D02*X36800Y17200D01*
X35500Y18400D02*X37500Y19400D01*
X35500Y20400D01*
X37500Y19400D02*X39500D01*
X37500Y23600D02*Y21600D01*
X35500Y26800D02*X36000Y27300D01*
X35500Y26800D02*Y25300D01*
X36000Y24800D02*X35500Y25300D01*
X36000Y24800D02*X37000D01*
X37500Y25300D01*
Y26800D02*Y25300D01*
Y26800D02*X38000Y27300D01*
X39000D01*
X39500Y26800D02*X39000Y27300D01*
X39500Y26800D02*Y25300D01*
X39000Y24800D02*X39500Y25300D01*
X36500Y28500D02*X39500D01*
X36500D02*X35500Y29200D01*
Y30300D02*Y29200D01*
Y30300D02*X36500Y31000D01*
X39500D01*
X37500D02*Y28500D01*
X39000Y34000D02*X39500Y34500D01*
X36000Y34000D02*X35500Y34500D01*
X36000Y34000D02*X39000D01*
X39500Y37700D02*Y36400D01*
X38800Y35700D02*X39500Y36400D01*
X36200Y35700D02*X38800D01*
X36200D02*X35500Y36400D01*
Y37700D02*Y36400D01*
Y38900D02*X36000Y39400D01*
X39000D01*
X39500Y38900D02*X39000Y39400D01*
X36000Y40600D02*X35500Y41100D01*
Y42600D02*Y41100D01*
Y42600D02*X36000Y43100D01*
X37000D01*
X39500Y40600D02*X37000Y43100D01*
X39500D02*Y40600D01*
X39000Y44300D02*X39500Y44800D01*
X36000Y44300D02*X39000D01*
X36000D02*X35500Y44800D01*
Y45800D02*Y44800D01*
Y45800D02*X36000Y46300D01*
X39000D01*
X39500Y45800D02*X39000Y46300D01*
X39500Y45800D02*Y44800D01*
X38500Y44300D02*X36500Y46300D01*
X36300Y47500D02*X35500Y48300D01*
X39500D01*
Y49000D02*Y47500D01*
Y50700D02*X35500Y52700D01*
Y50200D01*
X149500Y8500D02*Y7200D01*
X148800Y6500D02*X149500Y7200D01*
X146200Y6500D02*X148800D01*
X146200D02*X145500Y7200D01*
Y8500D02*Y7200D01*
X149500Y11700D02*Y10400D01*
X148800Y9700D02*X149500Y10400D01*
X146200Y9700D02*X148800D01*
X146200D02*X145500Y10400D01*
Y11700D02*Y10400D01*
X149500Y16700D02*Y14700D01*
Y16700D02*X149000Y17200D01*
X147800D02*X149000D01*
X147300Y16700D02*X147800Y17200D01*
X147300Y16700D02*Y15200D01*
X145500D02*X149500D01*
X145500Y16700D02*Y14700D01*
Y16700D02*X146000Y17200D01*
X146800D01*
X147300Y16700D02*X146800Y17200D01*
X145500Y18400D02*X147500Y19400D01*
X145500Y20400D01*
X147500Y19400D02*X149500D01*
X147500Y23600D02*Y21600D01*
X145500Y26800D02*X146000Y27300D01*
X145500Y26800D02*Y25300D01*
X146000Y24800D02*X145500Y25300D01*
X146000Y24800D02*X147000D01*
X147500Y25300D01*
Y26800D02*Y25300D01*
Y26800D02*X148000Y27300D01*
X149000D01*
X149500Y26800D02*X149000Y27300D01*
X149500Y26800D02*Y25300D01*
X149000Y24800D02*X149500Y25300D01*
X146500Y28500D02*X149500D01*
X146500D02*X145500Y29200D01*
Y30300D02*Y29200D01*
Y30300D02*X146500Y31000D01*
X149500D01*
X147500D02*Y28500D01*
X149000Y34000D02*X149500Y34500D01*
X146000Y34000D02*X145500Y34500D01*
X146000Y34000D02*X149000D01*
X149500Y37700D02*Y36400D01*
X148800Y35700D02*X149500Y36400D01*
X146200Y35700D02*X148800D01*
X146200D02*X145500Y36400D01*
Y37700D02*Y36400D01*
Y38900D02*X146000Y39400D01*
X149000D01*
X149500Y38900D02*X149000Y39400D01*
X146000Y40600D02*X145500Y41100D01*
Y42600D02*Y41100D01*
Y42600D02*X146000Y43100D01*
X147000D01*
X149500Y40600D02*X147000Y43100D01*
X149500D02*Y40600D01*
X149000Y44300D02*X149500Y44800D01*
X146000Y44300D02*X149000D01*
X146000D02*X145500Y44800D01*
Y45800D02*Y44800D01*
Y45800D02*X146000Y46300D01*
X149000D01*
X149500Y45800D02*X149000Y46300D01*
X149500Y45800D02*Y44800D01*
X148500Y44300D02*X146500Y46300D01*
X146300Y47500D02*X145500Y48300D01*
X149500D01*
Y49000D02*Y47500D01*
Y50700D02*X145500Y52700D01*
Y50200D01*
X259500Y8500D02*Y7200D01*
X258800Y6500D02*X259500Y7200D01*
X256200Y6500D02*X258800D01*
X256200D02*X255500Y7200D01*
Y8500D02*Y7200D01*
X259500Y11700D02*Y10400D01*
X258800Y9700D02*X259500Y10400D01*
X256200Y9700D02*X258800D01*
X256200D02*X255500Y10400D01*
Y11700D02*Y10400D01*
X259500Y16700D02*Y14700D01*
Y16700D02*X259000Y17200D01*
X257800D02*X259000D01*
X257300Y16700D02*X257800Y17200D01*
X257300Y16700D02*Y15200D01*
X255500D02*X259500D01*
X255500Y16700D02*Y14700D01*
Y16700D02*X256000Y17200D01*
X256800D01*
X257300Y16700D02*X256800Y17200D01*
X255500Y18400D02*X257500Y19400D01*
X255500Y20400D01*
X257500Y19400D02*X259500D01*
X257500Y23600D02*Y21600D01*
X255500Y26800D02*X256000Y27300D01*
X255500Y26800D02*Y25300D01*
X256000Y24800D02*X255500Y25300D01*
X256000Y24800D02*X257000D01*
X257500Y25300D01*
Y26800D02*Y25300D01*
Y26800D02*X258000Y27300D01*
X259000D01*
X259500Y26800D02*X259000Y27300D01*
X259500Y26800D02*Y25300D01*
X259000Y24800D02*X259500Y25300D01*
X256500Y28500D02*X259500D01*
X256500D02*X255500Y29200D01*
Y30300D02*Y29200D01*
Y30300D02*X256500Y31000D01*
X259500D01*
X257500D02*Y28500D01*
X259000Y34000D02*X259500Y34500D01*
X256000Y34000D02*X255500Y34500D01*
X256000Y34000D02*X259000D01*
X259500Y37700D02*Y36400D01*
X258800Y35700D02*X259500Y36400D01*
X256200Y35700D02*X258800D01*
X256200D02*X255500Y36400D01*
Y37700D02*Y36400D01*
Y38900D02*X256000Y39400D01*
X259000D01*
X259500Y38900D02*X259000Y39400D01*
X256000Y40600D02*X255500Y41100D01*
Y42600D02*Y41100D01*
Y42600D02*X256000Y43100D01*
X257000D01*
X259500Y40600D02*X257000Y43100D01*
X259500D02*Y40600D01*
X259000Y44300D02*X259500Y44800D01*
X256000Y44300D02*X259000D01*
X256000D02*X255500Y44800D01*
Y45800D02*Y44800D01*
Y45800D02*X256000Y46300D01*
X259000D01*
X259500Y45800D02*X259000Y46300D01*
X259500Y45800D02*Y44800D01*
X258500Y44300D02*X256500Y46300D01*
X256300Y47500D02*X255500Y48300D01*
X259500D01*
Y49000D02*Y47500D01*
Y50700D02*X255500Y52700D01*
Y50200D01*
X386500Y106500D02*X388500D01*
X389000Y106000D01*
Y105000D01*
X388500Y104500D02*X389000Y105000D01*
X387000Y104500D02*X388500D01*
X387000Y106500D02*Y102500D01*
X387800Y104500D02*X389000Y102500D01*
X390700Y106500D02*Y102500D01*
X390200Y106500D02*X392200D01*
X392700Y106000D01*
Y105000D01*
X392200Y104500D02*X392700Y105000D01*
X390700Y104500D02*X392200D01*
X393900Y106500D02*X394900D01*
X394400D02*Y102500D01*
X393900D02*X394900D01*
X396100Y104500D02*X398100D01*
X399300Y106500D02*X401300D01*
X399300D02*Y104500D01*
X399800Y105000D01*
X400800D01*
X401300Y104500D01*
Y103000D01*
X400800Y102500D02*X401300Y103000D01*
X399800Y102500D02*X400800D01*
X399300Y103000D02*X399800Y102500D01*
X402500Y106500D02*X403500Y102500D01*
X404500Y106500D01*
X405700D02*X406700D01*
X406200D02*Y102500D01*
X405700D02*X406700D01*
X407900Y106000D02*X408400Y106500D01*
X409900D01*
X410400Y106000D01*
Y105000D01*
X407900Y102500D02*X410400Y105000D01*
X407900Y102500D02*X410400D01*
X412300D02*X413600D01*
X411600Y103200D02*X412300Y102500D01*
X411600Y105800D02*Y103200D01*
Y105800D02*X412300Y106500D01*
X413600D01*
X416600Y104500D02*X417600Y102500D01*
X418600Y104500D02*X417600Y102500D01*
X419800Y105700D02*X420600Y106500D01*
Y102500D01*
X419800D02*X421300D01*
X422500D02*X423000D01*
X424200Y103000D02*X424700Y102500D01*
X424200Y106000D02*Y103000D01*
Y106000D02*X424700Y106500D01*
X425700D01*
X426200Y106000D01*
Y103000D01*
X425700Y102500D02*X426200Y103000D01*
X424700Y102500D02*X425700D01*
X424200Y103500D02*X426200Y105500D01*
X496500Y106500D02*X498500D01*
X499000Y106000D01*
Y105000D01*
X498500Y104500D02*X499000Y105000D01*
X497000Y104500D02*X498500D01*
X497000Y106500D02*Y102500D01*
X497800Y104500D02*X499000Y102500D01*
X500700Y106500D02*Y102500D01*
X500200Y106500D02*X502200D01*
X502700Y106000D01*
Y105000D01*
X502200Y104500D02*X502700Y105000D01*
X500700Y104500D02*X502200D01*
X503900Y106500D02*X504900D01*
X504400D02*Y102500D01*
X503900D02*X504900D01*
X506100Y104500D02*X508100D01*
X509300Y106500D02*X511300D01*
X509300D02*Y104500D01*
X509800Y105000D01*
X510800D01*
X511300Y104500D01*
Y103000D01*
X510800Y102500D02*X511300Y103000D01*
X509800Y102500D02*X510800D01*
X509300Y103000D02*X509800Y102500D01*
X512500Y106500D02*X513500Y102500D01*
X514500Y106500D01*
X515700D02*X516700D01*
X516200D02*Y102500D01*
X515700D02*X516700D01*
X517900Y106000D02*X518400Y106500D01*
X519900D01*
X520400Y106000D01*
Y105000D01*
X517900Y102500D02*X520400Y105000D01*
X517900Y102500D02*X520400D01*
X522300D02*X523600D01*
X521600Y103200D02*X522300Y102500D01*
X521600Y105800D02*Y103200D01*
Y105800D02*X522300Y106500D01*
X523600D01*
X526600Y104500D02*X527600Y102500D01*
X528600Y104500D02*X527600Y102500D01*
X529800Y105700D02*X530600Y106500D01*
Y102500D01*
X529800D02*X531300D01*
X532500D02*X533000D01*
X534200Y103000D02*X534700Y102500D01*
X534200Y106000D02*Y103000D01*
Y106000D02*X534700Y106500D01*
X535700D01*
X536200Y106000D01*
Y103000D01*
X535700Y102500D02*X536200Y103000D01*
X534700Y102500D02*X535700D01*
X534200Y103500D02*X536200Y105500D01*
X381500Y79500D02*X382500D01*
X382000D02*Y75500D01*
X381500D02*X382500D01*
X383700Y77000D02*Y76000D01*
Y77000D02*X384200Y77500D01*
X385200D01*
X385700Y77000D01*
Y76000D01*
X385200Y75500D02*X385700Y76000D01*
X384200Y75500D02*X385200D01*
X383700Y76000D02*X384200Y75500D01*
X386900Y77500D02*Y76000D01*
X387400Y75500D01*
X387900D01*
X388400Y76000D01*
Y77500D02*Y76000D01*
X388900Y75500D01*
X389400D01*
X389900Y76000D01*
Y77500D02*Y76000D01*
X392600Y77500D02*X393100Y77000D01*
X391600Y77500D02*X392600D01*
X391100Y77000D02*X391600Y77500D01*
X391100Y77000D02*Y76000D01*
X391600Y75500D01*
X393100Y77500D02*Y76000D01*
X393600Y75500D01*
X391600D02*X392600D01*
X393100Y76000D01*
X398600Y79500D02*X399100Y79000D01*
X397100Y79500D02*X398600D01*
X396600Y79000D02*X397100Y79500D01*
X396600Y79000D02*Y78000D01*
X397100Y77500D01*
X398600D01*
X399100Y77000D01*
Y76000D01*
X398600Y75500D02*X399100Y76000D01*
X397100Y75500D02*X398600D01*
X396600Y76000D02*X397100Y75500D01*
X400800Y77500D02*X402300D01*
X400300Y77000D02*X400800Y77500D01*
X400300Y77000D02*Y76000D01*
X400800Y75500D01*
X402300D01*
X405000Y77500D02*X405500Y77000D01*
X404000Y77500D02*X405000D01*
X403500Y77000D02*X404000Y77500D01*
X403500Y77000D02*Y76000D01*
X404000Y75500D01*
X405500Y77500D02*Y76000D01*
X406000Y75500D01*
X404000D02*X405000D01*
X405500Y76000D01*
X407200Y79500D02*Y76000D01*
X407700Y75500D01*
X409200D02*X410700D01*
X408700Y76000D02*X409200Y75500D01*
X408700Y77000D02*Y76000D01*
Y77000D02*X409200Y77500D01*
X410200D01*
X410700Y77000D01*
X408700Y76500D02*X410700D01*
Y77000D02*Y76500D01*
X413900Y79500D02*Y75500D01*
X413400D02*X413900Y76000D01*
X412400Y75500D02*X413400D01*
X411900Y76000D02*X412400Y75500D01*
X411900Y77000D02*Y76000D01*
Y77000D02*X412400Y77500D01*
X413400D01*
X413900Y77000D01*
X416900Y77700D02*X418400D01*
X416900Y75500D02*X418900D01*
X416900Y79500D02*Y75500D01*
Y79500D02*X418900D01*
X420600Y77000D02*Y75500D01*
Y77000D02*X421100Y77500D01*
X421600D01*
X422100Y77000D01*
Y75500D01*
X420100Y77500D02*X420600Y77000D01*
X424800Y77500D02*X425300Y77000D01*
X423800Y77500D02*X424800D01*
X423300Y77000D02*X423800Y77500D01*
X423300Y77000D02*Y76000D01*
X423800Y75500D01*
X424800D01*
X425300Y76000D01*
X423300Y74500D02*X423800Y74000D01*
X424800D01*
X425300Y74500D01*
Y77500D02*Y74500D01*
X491500Y79500D02*X492500D01*
X492000D02*Y75500D01*
X491500D02*X492500D01*
X493700Y77000D02*Y76000D01*
Y77000D02*X494200Y77500D01*
X495200D01*
X495700Y77000D01*
Y76000D01*
X495200Y75500D02*X495700Y76000D01*
X494200Y75500D02*X495200D01*
X493700Y76000D02*X494200Y75500D01*
X496900Y77500D02*Y76000D01*
X497400Y75500D01*
X497900D01*
X498400Y76000D01*
Y77500D02*Y76000D01*
X498900Y75500D01*
X499400D01*
X499900Y76000D01*
Y77500D02*Y76000D01*
X502600Y77500D02*X503100Y77000D01*
X501600Y77500D02*X502600D01*
X501100Y77000D02*X501600Y77500D01*
X501100Y77000D02*Y76000D01*
X501600Y75500D01*
X503100Y77500D02*Y76000D01*
X503600Y75500D01*
X501600D02*X502600D01*
X503100Y76000D01*
X508600Y79500D02*X509100Y79000D01*
X507100Y79500D02*X508600D01*
X506600Y79000D02*X507100Y79500D01*
X506600Y79000D02*Y78000D01*
X507100Y77500D01*
X508600D01*
X509100Y77000D01*
Y76000D01*
X508600Y75500D02*X509100Y76000D01*
X507100Y75500D02*X508600D01*
X506600Y76000D02*X507100Y75500D01*
X510800Y77500D02*X512300D01*
X510300Y77000D02*X510800Y77500D01*
X510300Y77000D02*Y76000D01*
X510800Y75500D01*
X512300D01*
X515000Y77500D02*X515500Y77000D01*
X514000Y77500D02*X515000D01*
X513500Y77000D02*X514000Y77500D01*
X513500Y77000D02*Y76000D01*
X514000Y75500D01*
X515500Y77500D02*Y76000D01*
X516000Y75500D01*
X514000D02*X515000D01*
X515500Y76000D01*
X517200Y79500D02*Y76000D01*
X517700Y75500D01*
X519200D02*X520700D01*
X518700Y76000D02*X519200Y75500D01*
X518700Y77000D02*Y76000D01*
Y77000D02*X519200Y77500D01*
X520200D01*
X520700Y77000D01*
X518700Y76500D02*X520700D01*
Y77000D02*Y76500D01*
X523900Y79500D02*Y75500D01*
X523400D02*X523900Y76000D01*
X522400Y75500D02*X523400D01*
X521900Y76000D02*X522400Y75500D01*
X521900Y77000D02*Y76000D01*
Y77000D02*X522400Y77500D01*
X523400D01*
X523900Y77000D01*
X526900Y77700D02*X528400D01*
X526900Y75500D02*X528900D01*
X526900Y79500D02*Y75500D01*
Y79500D02*X528900D01*
X530600Y77000D02*Y75500D01*
Y77000D02*X531100Y77500D01*
X531600D01*
X532100Y77000D01*
Y75500D01*
X530100Y77500D02*X530600Y77000D01*
X534800Y77500D02*X535300Y77000D01*
X533800Y77500D02*X534800D01*
X533300Y77000D02*X533800Y77500D01*
X533300Y77000D02*Y76000D01*
X533800Y75500D01*
X534800D01*
X535300Y76000D01*
X533300Y74500D02*X533800Y74000D01*
X534800D01*
X535300Y74500D01*
Y77500D02*Y74500D01*
X369500Y8500D02*Y7200D01*
X368800Y6500D02*X369500Y7200D01*
X366200Y6500D02*X368800D01*
X366200D02*X365500Y7200D01*
Y8500D02*Y7200D01*
X369500Y11700D02*Y10400D01*
X368800Y9700D02*X369500Y10400D01*
X366200Y9700D02*X368800D01*
X366200D02*X365500Y10400D01*
Y11700D02*Y10400D01*
X369500Y16700D02*Y14700D01*
Y16700D02*X369000Y17200D01*
X367800D02*X369000D01*
X367300Y16700D02*X367800Y17200D01*
X367300Y16700D02*Y15200D01*
X365500D02*X369500D01*
X365500Y16700D02*Y14700D01*
Y16700D02*X366000Y17200D01*
X366800D01*
X367300Y16700D02*X366800Y17200D01*
X365500Y18400D02*X367500Y19400D01*
X365500Y20400D01*
X367500Y19400D02*X369500D01*
X367500Y23600D02*Y21600D01*
X365500Y26800D02*X366000Y27300D01*
X365500Y26800D02*Y25300D01*
X366000Y24800D02*X365500Y25300D01*
X366000Y24800D02*X367000D01*
X367500Y25300D01*
Y26800D02*Y25300D01*
Y26800D02*X368000Y27300D01*
X369000D01*
X369500Y26800D02*X369000Y27300D01*
X369500Y26800D02*Y25300D01*
X369000Y24800D02*X369500Y25300D01*
X366500Y28500D02*X369500D01*
X366500D02*X365500Y29200D01*
Y30300D02*Y29200D01*
Y30300D02*X366500Y31000D01*
X369500D01*
X367500D02*Y28500D01*
X369000Y34000D02*X369500Y34500D01*
X366000Y34000D02*X365500Y34500D01*
X366000Y34000D02*X369000D01*
X369500Y37700D02*Y36400D01*
X368800Y35700D02*X369500Y36400D01*
X366200Y35700D02*X368800D01*
X366200D02*X365500Y36400D01*
Y37700D02*Y36400D01*
Y38900D02*X366000Y39400D01*
X369000D01*
X369500Y38900D02*X369000Y39400D01*
X366000Y40600D02*X365500Y41100D01*
Y42600D02*Y41100D01*
Y42600D02*X366000Y43100D01*
X367000D01*
X369500Y40600D02*X367000Y43100D01*
X369500D02*Y40600D01*
X369000Y44300D02*X369500Y44800D01*
X366000Y44300D02*X369000D01*
X366000D02*X365500Y44800D01*
Y45800D02*Y44800D01*
Y45800D02*X366000Y46300D01*
X369000D01*
X369500Y45800D02*X369000Y46300D01*
X369500Y45800D02*Y44800D01*
X368500Y44300D02*X366500Y46300D01*
X366300Y47500D02*X365500Y48300D01*
X369500D01*
Y49000D02*Y47500D01*
Y50700D02*X365500Y52700D01*
Y50200D01*
X479500Y8500D02*Y7200D01*
X478800Y6500D02*X479500Y7200D01*
X476200Y6500D02*X478800D01*
X476200D02*X475500Y7200D01*
Y8500D02*Y7200D01*
X479500Y11700D02*Y10400D01*
X478800Y9700D02*X479500Y10400D01*
X476200Y9700D02*X478800D01*
X476200D02*X475500Y10400D01*
Y11700D02*Y10400D01*
X479500Y16700D02*Y14700D01*
Y16700D02*X479000Y17200D01*
X477800D02*X479000D01*
X477300Y16700D02*X477800Y17200D01*
X477300Y16700D02*Y15200D01*
X475500D02*X479500D01*
X475500Y16700D02*Y14700D01*
Y16700D02*X476000Y17200D01*
X476800D01*
X477300Y16700D02*X476800Y17200D01*
X475500Y18400D02*X477500Y19400D01*
X475500Y20400D01*
X477500Y19400D02*X479500D01*
X477500Y23600D02*Y21600D01*
X475500Y26800D02*X476000Y27300D01*
X475500Y26800D02*Y25300D01*
X476000Y24800D02*X475500Y25300D01*
X476000Y24800D02*X477000D01*
X477500Y25300D01*
Y26800D02*Y25300D01*
Y26800D02*X478000Y27300D01*
X479000D01*
X479500Y26800D02*X479000Y27300D01*
X479500Y26800D02*Y25300D01*
X479000Y24800D02*X479500Y25300D01*
X476500Y28500D02*X479500D01*
X476500D02*X475500Y29200D01*
Y30300D02*Y29200D01*
Y30300D02*X476500Y31000D01*
X479500D01*
X477500D02*Y28500D01*
X479000Y34000D02*X479500Y34500D01*
X476000Y34000D02*X475500Y34500D01*
X476000Y34000D02*X479000D01*
X479500Y37700D02*Y36400D01*
X478800Y35700D02*X479500Y36400D01*
X476200Y35700D02*X478800D01*
X476200D02*X475500Y36400D01*
Y37700D02*Y36400D01*
Y38900D02*X476000Y39400D01*
X479000D01*
X479500Y38900D02*X479000Y39400D01*
X476000Y40600D02*X475500Y41100D01*
Y42600D02*Y41100D01*
Y42600D02*X476000Y43100D01*
X477000D01*
X479500Y40600D02*X477000Y43100D01*
X479500D02*Y40600D01*
X479000Y44300D02*X479500Y44800D01*
X476000Y44300D02*X479000D01*
X476000D02*X475500Y44800D01*
Y45800D02*Y44800D01*
Y45800D02*X476000Y46300D01*
X479000D01*
X479500Y45800D02*X479000Y46300D01*
X479500Y45800D02*Y44800D01*
X478500Y44300D02*X476500Y46300D01*
X476300Y47500D02*X475500Y48300D01*
X479500D01*
Y49000D02*Y47500D01*
Y50700D02*X475500Y52700D01*
Y50200D01*
G54D61*X206500Y72300D02*Y1000D01*
X154500Y72300D02*Y1000D01*
Y72300D02*X206500D01*
X154500Y1000D02*X206500Y980D01*
G54D62*X250000Y60700D02*Y30700D01*
X230000Y60700D02*X250000D01*
X230000D02*Y30700D01*
X250000D01*
X240000Y40700D02*X250000D01*
X240000D02*Y30700D01*
G54D61*X316500Y72300D02*Y1000D01*
X264500Y72300D02*Y1000D01*
Y72300D02*X316500D01*
X264500Y1000D02*X316500Y980D01*
G54D62*X184241Y94799D02*Y82201D01*
X176759D02*X184241D01*
X176759Y94799D02*Y82201D01*
Y94799D02*X184241D01*
X228701Y92241D02*X241299D01*
Y84759D01*
X228701D02*X241299D01*
X228701Y92241D02*Y84759D01*
X267245Y88893D02*Y88107D01*
X272755Y88893D02*Y88107D01*
X260906Y100311D02*Y76689D01*
X249094D02*X260906D01*
X249094Y100311D02*Y76689D01*
Y100311D02*X260906D01*
X262406Y102311D02*G75*G03X262406Y102311I0J-500D01*G01*
X74241Y94799D02*Y82201D01*
X66759D02*X74241D01*
X66759Y94799D02*Y82201D01*
Y94799D02*X74241D01*
G54D61*X96500Y72300D02*Y1000D01*
X44500Y72300D02*Y1000D01*
Y72300D02*X96500D01*
X44500Y1000D02*X96500Y980D01*
G54D62*X8701Y92241D02*X21299D01*
Y84759D01*
X8701D02*X21299D01*
X8701Y92241D02*Y84759D01*
X47245Y88893D02*Y88107D01*
X52755Y88893D02*Y88107D01*
X40906Y100311D02*Y76689D01*
X29094D02*X40906D01*
X29094Y100311D02*Y76689D01*
Y100311D02*X40906D01*
X42406Y102311D02*G75*G03X42406Y102311I0J-500D01*G01*
X30000Y60700D02*Y30700D01*
X10000Y60700D02*X30000D01*
X10000D02*Y30700D01*
X30000D01*
X20000Y40700D02*X30000D01*
X20000D02*Y30700D01*
X118701Y92241D02*X131299D01*
Y84759D01*
X118701D02*X131299D01*
X118701Y92241D02*Y84759D01*
X140000Y60700D02*Y30700D01*
X120000Y60700D02*X140000D01*
X120000D02*Y30700D01*
X140000D01*
X130000Y40700D02*X140000D01*
X130000D02*Y30700D01*
X157245Y88893D02*Y88107D01*
X162755Y88893D02*Y88107D01*
X150906Y100311D02*Y76689D01*
X139094D02*X150906D01*
X139094Y100311D02*Y76689D01*
Y100311D02*X150906D01*
X152406Y102311D02*G75*G03X152406Y102311I0J-500D01*G01*
X294241Y94799D02*Y82201D01*
X286759D02*X294241D01*
X286759Y94799D02*Y82201D01*
Y94799D02*X294241D01*
X338701Y92241D02*X351299D01*
Y84759D01*
X338701D02*X351299D01*
X338701Y92241D02*Y84759D01*
X404241Y94799D02*Y82201D01*
X396759D02*X404241D01*
X396759Y94799D02*Y82201D01*
Y94799D02*X404241D01*
G54D61*X426500Y72300D02*Y1000D01*
X374500Y72300D02*Y1000D01*
Y72300D02*X426500D01*
X374500Y1000D02*X426500Y980D01*
G54D62*X377245Y88893D02*Y88107D01*
X382755Y88893D02*Y88107D01*
X370906Y100311D02*Y76689D01*
X359094D02*X370906D01*
X359094Y100311D02*Y76689D01*
Y100311D02*X370906D01*
X372406Y102311D02*G75*G03X372406Y102311I0J-500D01*G01*
X360000Y60700D02*Y30700D01*
X340000Y60700D02*X360000D01*
X340000D02*Y30700D01*
X360000D01*
X350000Y40700D02*X360000D01*
X350000D02*Y30700D01*
X448701Y92241D02*X461299D01*
Y84759D01*
X448701D02*X461299D01*
X448701Y92241D02*Y84759D01*
X514241Y94799D02*Y82201D01*
X506759D02*X514241D01*
X506759Y94799D02*Y82201D01*
Y94799D02*X514241D01*
X487245Y88893D02*Y88107D01*
X492755Y88893D02*Y88107D01*
X480906Y100311D02*Y76689D01*
X469094D02*X480906D01*
X469094Y100311D02*Y76689D01*
Y100311D02*X480906D01*
X482406Y102311D02*G75*G03X482406Y102311I0J-500D01*G01*
X470000Y60700D02*Y30700D01*
X450000Y60700D02*X470000D01*
X450000D02*Y30700D01*
X470000D01*
X460000Y40700D02*X470000D01*
X460000D02*Y30700D01*
G54D61*X536500Y72300D02*Y1000D01*
X484500Y72300D02*Y1000D01*
Y72300D02*X536500D01*
X484500Y1000D02*X536500Y980D01*
G54D60*X127900Y67000D02*X128700D01*
Y63500D01*
X128200Y63000D02*X128700Y63500D01*
X127700Y63000D02*X128200D01*
X127200Y63500D02*X127700Y63000D01*
X127200Y64000D02*Y63500D01*
X129900Y66500D02*X130400Y67000D01*
X131900D01*
X132400Y66500D01*
Y65500D01*
X129900Y63000D02*X132400Y65500D01*
X129900Y63000D02*X132400D01*
X237900Y67000D02*X238700D01*
Y63500D01*
X238200Y63000D02*X238700Y63500D01*
X237700Y63000D02*X238200D01*
X237200Y63500D02*X237700Y63000D01*
X237200Y64000D02*Y63500D01*
X239900Y66500D02*X240400Y67000D01*
X241900D01*
X242400Y66500D01*
Y65500D01*
X239900Y63000D02*X242400Y65500D01*
X239900Y63000D02*X242400D01*
X347900Y67000D02*X348700D01*
Y63500D01*
X348200Y63000D02*X348700Y63500D01*
X347700Y63000D02*X348200D01*
X347200Y63500D02*X347700Y63000D01*
X347200Y64000D02*Y63500D01*
X349900Y66500D02*X350400Y67000D01*
X351900D01*
X352400Y66500D01*
Y65500D01*
X349900Y63000D02*X352400Y65500D01*
X349900Y63000D02*X352400D01*
X169500Y90500D02*X171500D01*
X172000Y90000D01*
Y89000D01*
X171500Y88500D02*X172000Y89000D01*
X170000Y88500D02*X171500D01*
X170000Y90500D02*Y86500D01*
X170800Y88500D02*X172000Y86500D01*
X173200Y89700D02*X174000Y90500D01*
Y86500D01*
X173200D02*X174700D01*
X279500Y90500D02*X281500D01*
X282000Y90000D01*
Y89000D01*
X281500Y88500D02*X282000Y89000D01*
X280000Y88500D02*X281500D01*
X280000Y90500D02*Y86500D01*
X280800Y88500D02*X282000Y86500D01*
X283200Y89700D02*X284000Y90500D01*
Y86500D01*
X283200D02*X284700D01*
X389500Y90500D02*X391500D01*
X392000Y90000D01*
Y89000D01*
X391500Y88500D02*X392000Y89000D01*
X390000Y88500D02*X391500D01*
X390000Y90500D02*Y86500D01*
X390800Y88500D02*X392000Y86500D01*
X393200Y89700D02*X394000Y90500D01*
Y86500D01*
X393200D02*X394700D01*
X499500Y90500D02*X501500D01*
X502000Y90000D01*
Y89000D01*
X501500Y88500D02*X502000Y89000D01*
X500000Y88500D02*X501500D01*
X500000Y90500D02*Y86500D01*
X500800Y88500D02*X502000Y86500D01*
X503200Y89700D02*X504000Y90500D01*
Y86500D01*
X503200D02*X504700D01*
X268093Y96150D02*X269393D01*
X267393Y96850D02*X268093Y96150D01*
X267393Y99450D02*Y96850D01*
Y99450D02*X268093Y100150D01*
X269393D01*
X270593Y99350D02*X271393Y100150D01*
Y96150D01*
X270593D02*X272093D01*
X252500Y106500D02*Y103000D01*
X253000Y102500D01*
X254000D01*
X254500Y103000D01*
Y106500D02*Y103000D01*
X255700Y105700D02*X256500Y106500D01*
Y102500D01*
X255700D02*X257200D01*
X342000Y98000D02*X344000D01*
X344500Y97500D01*
Y96500D01*
X344000Y96000D02*X344500Y96500D01*
X342500Y96000D02*X344000D01*
X342500Y98000D02*Y94000D01*
X343300Y96000D02*X344500Y94000D01*
X345700Y97500D02*X346200Y98000D01*
X347700D01*
X348200Y97500D01*
Y96500D01*
X345700Y94000D02*X348200Y96500D01*
X345700Y94000D02*X348200D01*
X378093Y96150D02*X379393D01*
X377393Y96850D02*X378093Y96150D01*
X377393Y99450D02*Y96850D01*
Y99450D02*X378093Y100150D01*
X379393D01*
X380593Y99350D02*X381393Y100150D01*
Y96150D01*
X380593D02*X382093D01*
X362500Y106500D02*Y103000D01*
X363000Y102500D01*
X364000D01*
X364500Y103000D01*
Y106500D02*Y103000D01*
X365700Y105700D02*X366500Y106500D01*
Y102500D01*
X365700D02*X367200D01*
X399357Y34000D02*X400157D01*
Y30500D01*
X399657Y30000D02*X400157Y30500D01*
X399157Y30000D02*X399657D01*
X398657Y30500D02*X399157Y30000D01*
X398657Y31000D02*Y30500D01*
X401357Y33200D02*X402157Y34000D01*
Y30000D01*
X401357D02*X402857D01*
X509357Y34000D02*X510157D01*
Y30500D01*
X509657Y30000D02*X510157Y30500D01*
X509157Y30000D02*X509657D01*
X508657Y30500D02*X509157Y30000D01*
X508657Y31000D02*Y30500D01*
X511357Y33200D02*X512157Y34000D01*
Y30000D01*
X511357D02*X512857D01*
X457900Y67000D02*X458700D01*
Y63500D01*
X458200Y63000D02*X458700Y63500D01*
X457700Y63000D02*X458200D01*
X457200Y63500D02*X457700Y63000D01*
X457200Y64000D02*Y63500D01*
X459900Y66500D02*X460400Y67000D01*
X461900D01*
X462400Y66500D01*
Y65500D01*
X459900Y63000D02*X462400Y65500D01*
X459900Y63000D02*X462400D01*
X452000Y98000D02*X454000D01*
X454500Y97500D01*
Y96500D01*
X454000Y96000D02*X454500Y96500D01*
X452500Y96000D02*X454000D01*
X452500Y98000D02*Y94000D01*
X453300Y96000D02*X454500Y94000D01*
X455700Y97500D02*X456200Y98000D01*
X457700D01*
X458200Y97500D01*
Y96500D01*
X455700Y94000D02*X458200Y96500D01*
X455700Y94000D02*X458200D01*
X488093Y96150D02*X489393D01*
X487393Y96850D02*X488093Y96150D01*
X487393Y99450D02*Y96850D01*
Y99450D02*X488093Y100150D01*
X489393D01*
X490593Y99350D02*X491393Y100150D01*
Y96150D01*
X490593D02*X492093D01*
X472500Y106500D02*Y103000D01*
X473000Y102500D01*
X474000D01*
X474500Y103000D01*
Y106500D02*Y103000D01*
X475700Y105700D02*X476500Y106500D01*
Y102500D01*
X475700D02*X477200D01*
X69357Y34000D02*X70157D01*
Y30500D01*
X69657Y30000D02*X70157Y30500D01*
X69157Y30000D02*X69657D01*
X68657Y30500D02*X69157Y30000D01*
X68657Y31000D02*Y30500D01*
X71357Y33200D02*X72157Y34000D01*
Y30000D01*
X71357D02*X72857D01*
X179357Y34000D02*X180157D01*
Y30500D01*
X179657Y30000D02*X180157Y30500D01*
X179157Y30000D02*X179657D01*
X178657Y30500D02*X179157Y30000D01*
X178657Y31000D02*Y30500D01*
X181357Y33200D02*X182157Y34000D01*
Y30000D01*
X181357D02*X182857D01*
X289357Y34000D02*X290157D01*
Y30500D01*
X289657Y30000D02*X290157Y30500D01*
X289157Y30000D02*X289657D01*
X288657Y30500D02*X289157Y30000D01*
X288657Y31000D02*Y30500D01*
X291357Y33200D02*X292157Y34000D01*
Y30000D01*
X291357D02*X292857D01*
X12000Y98000D02*X14000D01*
X14500Y97500D01*
Y96500D01*
X14000Y96000D02*X14500Y96500D01*
X12500Y96000D02*X14000D01*
X12500Y98000D02*Y94000D01*
X13300Y96000D02*X14500Y94000D01*
X15700Y97500D02*X16200Y98000D01*
X17700D01*
X18200Y97500D01*
Y96500D01*
X15700Y94000D02*X18200Y96500D01*
X15700Y94000D02*X18200D01*
X59500Y90500D02*X61500D01*
X62000Y90000D01*
Y89000D01*
X61500Y88500D02*X62000Y89000D01*
X60000Y88500D02*X61500D01*
X60000Y90500D02*Y86500D01*
X60800Y88500D02*X62000Y86500D01*
X63200Y89700D02*X64000Y90500D01*
Y86500D01*
X63200D02*X64700D01*
X48093Y96150D02*X49393D01*
X47393Y96850D02*X48093Y96150D01*
X47393Y99450D02*Y96850D01*
Y99450D02*X48093Y100150D01*
X49393D01*
X50593Y99350D02*X51393Y100150D01*
Y96150D01*
X50593D02*X52093D01*
X32500Y106500D02*Y103000D01*
X33000Y102500D01*
X34000D01*
X34500Y103000D01*
Y106500D02*Y103000D01*
X35700Y105700D02*X36500Y106500D01*
Y102500D01*
X35700D02*X37200D01*
X17900Y67000D02*X18700D01*
Y63500D01*
X18200Y63000D02*X18700Y63500D01*
X17700Y63000D02*X18200D01*
X17200Y63500D02*X17700Y63000D01*
X17200Y64000D02*Y63500D01*
X19900Y66500D02*X20400Y67000D01*
X21900D01*
X22400Y66500D01*
Y65500D01*
X19900Y63000D02*X22400Y65500D01*
X19900Y63000D02*X22400D01*
X122000Y98000D02*X124000D01*
X124500Y97500D01*
Y96500D01*
X124000Y96000D02*X124500Y96500D01*
X122500Y96000D02*X124000D01*
X122500Y98000D02*Y94000D01*
X123300Y96000D02*X124500Y94000D01*
X125700Y97500D02*X126200Y98000D01*
X127700D01*
X128200Y97500D01*
Y96500D01*
X125700Y94000D02*X128200Y96500D01*
X125700Y94000D02*X128200D01*
X232000Y98000D02*X234000D01*
X234500Y97500D01*
Y96500D01*
X234000Y96000D02*X234500Y96500D01*
X232500Y96000D02*X234000D01*
X232500Y98000D02*Y94000D01*
X233300Y96000D02*X234500Y94000D01*
X235700Y97500D02*X236200Y98000D01*
X237700D01*
X238200Y97500D01*
Y96500D01*
X235700Y94000D02*X238200Y96500D01*
X235700Y94000D02*X238200D01*
X158093Y96150D02*X159393D01*
X157393Y96850D02*X158093Y96150D01*
X157393Y99450D02*Y96850D01*
Y99450D02*X158093Y100150D01*
X159393D01*
X160593Y99350D02*X161393Y100150D01*
Y96150D01*
X160593D02*X162093D01*
X142500Y106500D02*Y103000D01*
X143000Y102500D01*
X144000D01*
X144500Y103000D01*
Y106500D02*Y103000D01*
X145700Y105700D02*X146500Y106500D01*
Y102500D01*
X145700D02*X147200D01*
M02*
